<?xml version="1.0" encoding="UTF-8" standalone="no"?>
<!DOCTYPE svg PUBLIC "-//W3C//DTD SVG 1.1//EN"
 "http://www.w3.org/Graphics/SVG/1.1/DTD/svg11.dtd">
<!-- Generated by graphviz version 10.0.1 (20240210.2158)
 -->
<!-- Pages: 1 -->
<svg width="175pt" height="462pt"
 viewBox="0.00 0.00 174.75 462.00" xmlns="http://www.w3.org/2000/svg" xmlns:xlink="http://www.w3.org/1999/xlink">
<g id="graph0" class="graph" transform="scale(1 1) rotate(0) translate(4 458)">
<polygon fill="white" stroke="none" points="-4,4 -4,-458 170.75,-458 170.75,4 -4,4"/>
<!-- ZFZ4ikj7MZtua5Bb8biXf3SMrWKissbFZ3isr/mGIRnZmovMFH6IyZGKroghGFWHDC+mZEDBX6U2JWmNb8RIIA== -->
<g id="node1" class="node">
<title>ZFZ4ikj7MZtua5Bb8biXf3SMrWKissbFZ3isr/mGIRnZmovMFH6IyZGKroghGFWHDC+mZEDBX6U2JWmNb8RIIA==</title>
<polygon fill="none" stroke="black" points="38.38,-428 38.38,-450 128.38,-450 128.38,-428 38.38,-428"/>
<text text-anchor="start" x="41.38" y="-433.7" font-family="Times,serif" font-size="14.00">Qma.Company</text>
<polygon fill="none" stroke="black" points="38.38,-406 38.38,-428 75.38,-428 75.38,-406 38.38,-406"/>
<text text-anchor="start" x="51.25" y="-411.7" font-family="Times,serif" font-size="14.00">Id</text>
<polygon fill="none" stroke="black" points="75.38,-406 75.38,-428 128.38,-428 128.38,-406 75.38,-406"/>
<text text-anchor="start" x="88.38" y="-411.7" font-family="Times,serif" font-size="14.00">Qma</text>
</g>
<!-- jydLjhvSHzATwXCp6k0s74lqNDSl4X++kikv39cDTJ1hlqr9MO47id955oKsrMWO9hPd82LLvnp9L5AuPRPgEw== -->
<g id="node2" class="node">
<title>jydLjhvSHzATwXCp6k0s74lqNDSl4X++kikv39cDTJ1hlqr9MO47id955oKsrMWO9hPd82LLvnp9L5AuPRPgEw==</title>
<polygon fill="none" stroke="black" points="17.88,-323.5 17.88,-345.5 148.88,-345.5 148.88,-323.5 17.88,-323.5"/>
<text text-anchor="start" x="20.75" y="-329.2" font-family="Times,serif" font-size="14.00">Qma.AppEnvironment</text>
<polygon fill="none" stroke="black" points="17.88,-301.5 17.88,-323.5 78.88,-323.5 78.88,-301.5 17.88,-301.5"/>
<text text-anchor="start" x="42.75" y="-307.2" font-family="Times,serif" font-size="14.00">Id</text>
<polygon fill="none" stroke="black" points="78.88,-301.5 78.88,-323.5 148.88,-323.5 148.88,-301.5 78.88,-301.5"/>
<text text-anchor="start" x="104.12" y="-307.2" font-family="Times,serif" font-size="14.00">dev</text>
</g>
<!-- jydLjhvSHzATwXCp6k0s74lqNDSl4X++kikv39cDTJ1hlqr9MO47id955oKsrMWO9hPd82LLvnp9L5AuPRPgEw==&#45;&gt;ZFZ4ikj7MZtua5Bb8biXf3SMrWKissbFZ3isr/mGIRnZmovMFH6IyZGKroghGFWHDC+mZEDBX6U2JWmNb8RIIA== -->
<g id="edge1" class="edge">
<title>jydLjhvSHzATwXCp6k0s74lqNDSl4X++kikv39cDTJ1hlqr9MO47id955oKsrMWO9hPd82LLvnp9L5AuPRPgEw==&#45;&gt;ZFZ4ikj7MZtua5Bb8biXf3SMrWKissbFZ3isr/mGIRnZmovMFH6IyZGKroghGFWHDC+mZEDBX6U2JWmNb8RIIA==</title>
<path fill="none" stroke="black" d="M83.38,-349.31C83.38,-361.69 83.38,-376.89 83.38,-390.56"/>
<polygon fill="black" stroke="black" points="79.88,-390.55 83.38,-400.55 86.88,-390.55 79.88,-390.55"/>
<text text-anchor="middle" x="110" y="-370.7" font-family="Times,serif" font-size="14.00">Company</text>
</g>
<!-- h3+4yk2W+2LkTdRMVjFi3vqZLe6vUoOhUSYjf137gSmCP4dgcGsj11hPHVBL7wSSTDAnxtSdyEFTvjhlKcDYOQ== -->
<g id="node3" class="node">
<title>h3+4yk2W+2LkTdRMVjFi3vqZLe6vUoOhUSYjf137gSmCP4dgcGsj11hPHVBL7wSSTDAnxtSdyEFTvjhlKcDYOQ==</title>
<polygon fill="none" stroke="black" points="38.88,-219 38.88,-241 127.88,-241 127.88,-219 38.88,-219"/>
<text text-anchor="start" x="52.25" y="-224.7" font-family="Times,serif" font-size="14.00">Qma.Order</text>
<polygon fill="none" stroke="black" points="38.88,-197 38.88,-219 86.88,-219 86.88,-197 38.88,-197"/>
<text text-anchor="start" x="41.5" y="-202.7" font-family="Times,serif" font-size="14.00">OrderId</text>
<polygon fill="none" stroke="black" points="86.88,-197 86.88,-219 127.88,-219 127.88,-197 86.88,-197"/>
<text text-anchor="start" x="89.75" y="-202.7" font-family="Times,serif" font-size="14.00">order1</text>
</g>
<!-- h3+4yk2W+2LkTdRMVjFi3vqZLe6vUoOhUSYjf137gSmCP4dgcGsj11hPHVBL7wSSTDAnxtSdyEFTvjhlKcDYOQ==&#45;&gt;jydLjhvSHzATwXCp6k0s74lqNDSl4X++kikv39cDTJ1hlqr9MO47id955oKsrMWO9hPd82LLvnp9L5AuPRPgEw== -->
<g id="edge2" class="edge">
<title>h3+4yk2W+2LkTdRMVjFi3vqZLe6vUoOhUSYjf137gSmCP4dgcGsj11hPHVBL7wSSTDAnxtSdyEFTvjhlKcDYOQ==&#45;&gt;jydLjhvSHzATwXCp6k0s74lqNDSl4X++kikv39cDTJ1hlqr9MO47id955oKsrMWO9hPd82LLvnp9L5AuPRPgEw==</title>
<path fill="none" stroke="black" d="M83.38,-244.81C83.38,-257.19 83.38,-272.39 83.38,-286.06"/>
<polygon fill="black" stroke="black" points="79.88,-286.05 83.38,-296.05 86.88,-286.05 79.88,-286.05"/>
<text text-anchor="middle" x="119" y="-266.2" font-family="Times,serif" font-size="14.00">Environment</text>
</g>
<!-- 5e+Na/ub4ZYYipZDDdEQ/JfUROKxdUQ36egWj0wBvGJE0fk+ZU86GtKBZFCQVzBhZc1HVfFJe+zZfoynlAeK3w== -->
<g id="node4" class="node">
<title>5e+Na/ub4ZYYipZDDdEQ/JfUROKxdUQ36egWj0wBvGJE0fk+ZU86GtKBZFCQVzBhZc1HVfFJe+zZfoynlAeK3w==</title>
<polygon fill="none" stroke="black" points="28.88,-114.5 28.88,-136.5 137.88,-136.5 137.88,-114.5 28.88,-114.5"/>
<text text-anchor="start" x="31.62" y="-120.2" font-family="Times,serif" font-size="14.00">Qma.Order.Details</text>
<polygon fill="none" stroke="black" points="28.88,-92.5 28.88,-114.5 82.88,-114.5 82.88,-92.5 28.88,-92.5"/>
<text text-anchor="start" x="38.25" y="-98.2" font-family="Times,serif" font-size="14.00">details</text>
<polygon fill="none" stroke="black" points="82.88,-92.5 82.88,-114.5 137.88,-114.5 137.88,-92.5 82.88,-92.5"/>
<text text-anchor="start" x="92.75" y="-98.2" font-family="Times,serif" font-size="14.00">details</text>
</g>
<!-- 5e+Na/ub4ZYYipZDDdEQ/JfUROKxdUQ36egWj0wBvGJE0fk+ZU86GtKBZFCQVzBhZc1HVfFJe+zZfoynlAeK3w==&#45;&gt;h3+4yk2W+2LkTdRMVjFi3vqZLe6vUoOhUSYjf137gSmCP4dgcGsj11hPHVBL7wSSTDAnxtSdyEFTvjhlKcDYOQ== -->
<g id="edge3" class="edge">
<title>5e+Na/ub4ZYYipZDDdEQ/JfUROKxdUQ36egWj0wBvGJE0fk+ZU86GtKBZFCQVzBhZc1HVfFJe+zZfoynlAeK3w==&#45;&gt;h3+4yk2W+2LkTdRMVjFi3vqZLe6vUoOhUSYjf137gSmCP4dgcGsj11hPHVBL7wSSTDAnxtSdyEFTvjhlKcDYOQ==</title>
<path fill="none" stroke="black" d="M83.38,-140.31C83.38,-152.69 83.38,-167.89 83.38,-181.56"/>
<polygon fill="black" stroke="black" points="79.88,-181.55 83.38,-191.55 86.88,-181.55 79.88,-181.55"/>
<text text-anchor="middle" x="99.12" y="-161.7" font-family="Times,serif" font-size="14.00">Order</text>
</g>
<!-- tNTC5vVkRPHLnuUw6e7cBufNGzycCu1ZKe8DLLlc3fs3VPaa7Vvo2nkfELboI564TJ3x6R1Gr1KokNX+Nh/9XQ== -->
<g id="node5" class="node">
<title>tNTC5vVkRPHLnuUw6e7cBufNGzycCu1ZKe8DLLlc3fs3VPaa7Vvo2nkfELboI564TJ3x6R1Gr1KokNX+Nh/9XQ==</title>
<polygon fill="none" stroke="black" points="9,-6.75 9,-29.25 157.75,-29.25 157.75,-6.75 9,-6.75"/>
<text text-anchor="start" x="12.5" y="-12.95" font-family="Times,serif" font-size="14.00">Qma.Order.ReadyToSync</text>
<polygon fill="none" stroke="black" points="8,-5.75 8,-30.25 158.75,-30.25 158.75,-5.75 8,-5.75"/>
</g>
<!-- tNTC5vVkRPHLnuUw6e7cBufNGzycCu1ZKe8DLLlc3fs3VPaa7Vvo2nkfELboI564TJ3x6R1Gr1KokNX+Nh/9XQ==&#45;&gt;5e+Na/ub4ZYYipZDDdEQ/JfUROKxdUQ36egWj0wBvGJE0fk+ZU86GtKBZFCQVzBhZc1HVfFJe+zZfoynlAeK3w== -->
<g id="edge4" class="edge">
<title>tNTC5vVkRPHLnuUw6e7cBufNGzycCu1ZKe8DLLlc3fs3VPaa7Vvo2nkfELboI564TJ3x6R1Gr1KokNX+Nh/9XQ==&#45;&gt;5e+Na/ub4ZYYipZDDdEQ/JfUROKxdUQ36egWj0wBvGJE0fk+ZU86GtKBZFCQVzBhZc1HVfFJe+zZfoynlAeK3w==</title>
<path fill="none" stroke="black" d="M83.38,-35.89C83.38,-47.34 83.38,-62.91 83.38,-77.1"/>
<polygon fill="black" stroke="black" points="79.88,-77.06 83.38,-87.06 86.88,-77.06 79.88,-77.06"/>
<text text-anchor="middle" x="118.25" y="-57.2" font-family="Times,serif" font-size="14.00">OrderDetails</text>
</g>
</g>
</svg>
