<?xml version="1.0" encoding="UTF-8" standalone="no"?>
<!DOCTYPE svg PUBLIC "-//W3C//DTD SVG 1.1//EN"
 "http://www.w3.org/Graphics/SVG/1.1/DTD/svg11.dtd">
<!-- Generated by graphviz version 10.0.1 (20240210.2158)
 -->
<!-- Pages: 1 -->
<svg width="494pt" height="488pt"
 viewBox="0.00 0.00 494.38 488.00" xmlns="http://www.w3.org/2000/svg" xmlns:xlink="http://www.w3.org/1999/xlink">
<g id="graph0" class="graph" transform="scale(1 1) rotate(0) translate(4 484)">
<polygon fill="white" stroke="none" points="-4,4 -4,-484 490.38,-484 490.38,4 -4,4"/>
<!-- ZFZ4ikj7MZtua5Bb8biXf3SMrWKissbFZ3isr/mGIRnZmovMFH6IyZGKroghGFWHDC+mZEDBX6U2JWmNb8RIIA== -->
<g id="node1" class="node">
<title>ZFZ4ikj7MZtua5Bb8biXf3SMrWKissbFZ3isr/mGIRnZmovMFH6IyZGKroghGFWHDC+mZEDBX6U2JWmNb8RIIA==</title>
<polygon fill="none" stroke="black" points="222,-453 222,-475 312,-475 312,-453 222,-453"/>
<text text-anchor="start" x="225" y="-458.7" font-family="Times,serif" font-size="14.00">Qma.Company</text>
<polygon fill="none" stroke="black" points="222,-431 222,-453 259,-453 259,-431 222,-431"/>
<text text-anchor="start" x="234.88" y="-436.7" font-family="Times,serif" font-size="14.00">Id</text>
<polygon fill="none" stroke="black" points="259,-431 259,-453 312,-453 312,-431 259,-431"/>
<text text-anchor="start" x="272" y="-436.7" font-family="Times,serif" font-size="14.00">Qma</text>
<polygon fill="none" stroke="black" points="221,-430 221,-476 313,-476 313,-430 221,-430"/>
</g>
<!-- jydLjhvSHzATwXCp6k0s74lqNDSl4X++kikv39cDTJ1hlqr9MO47id955oKsrMWO9hPd82LLvnp9L5AuPRPgEw== -->
<g id="node2" class="node">
<title>jydLjhvSHzATwXCp6k0s74lqNDSl4X++kikv39cDTJ1hlqr9MO47id955oKsrMWO9hPd82LLvnp9L5AuPRPgEw==</title>
<polygon fill="none" stroke="black" points="201.5,-346.5 201.5,-368.5 332.5,-368.5 332.5,-346.5 201.5,-346.5"/>
<text text-anchor="start" x="204.38" y="-352.2" font-family="Times,serif" font-size="14.00">Qma.AppEnvironment</text>
<polygon fill="none" stroke="black" points="201.5,-324.5 201.5,-346.5 262.5,-346.5 262.5,-324.5 201.5,-324.5"/>
<text text-anchor="start" x="226.38" y="-330.2" font-family="Times,serif" font-size="14.00">Id</text>
<polygon fill="none" stroke="black" points="262.5,-324.5 262.5,-346.5 332.5,-346.5 332.5,-324.5 262.5,-324.5"/>
<text text-anchor="start" x="287.75" y="-330.2" font-family="Times,serif" font-size="14.00">dev</text>
<polygon fill="none" stroke="black" points="200.5,-323.5 200.5,-369.5 333.5,-369.5 333.5,-323.5 200.5,-323.5"/>
</g>
<!-- jydLjhvSHzATwXCp6k0s74lqNDSl4X++kikv39cDTJ1hlqr9MO47id955oKsrMWO9hPd82LLvnp9L5AuPRPgEw==&#45;&gt;ZFZ4ikj7MZtua5Bb8biXf3SMrWKissbFZ3isr/mGIRnZmovMFH6IyZGKroghGFWHDC+mZEDBX6U2JWmNb8RIIA== -->
<g id="edge1" class="edge">
<title>jydLjhvSHzATwXCp6k0s74lqNDSl4X++kikv39cDTJ1hlqr9MO47id955oKsrMWO9hPd82LLvnp9L5AuPRPgEw==&#45;&gt;ZFZ4ikj7MZtua5Bb8biXf3SMrWKissbFZ3isr/mGIRnZmovMFH6IyZGKroghGFWHDC+mZEDBX6U2JWmNb8RIIA==</title>
<path fill="none" stroke="black" d="M267,-373.33C267,-385.89 267,-401.22 267,-414.99"/>
<polygon fill="black" stroke="black" points="263.5,-414.59 267,-424.59 270.5,-414.59 263.5,-414.59"/>
<text text-anchor="middle" x="293.62" y="-394.7" font-family="Times,serif" font-size="14.00">Company</text>
</g>
<!-- XecajLMJms1hJ7t9IFcoI50OhyV0ADM/dHasOrlKf9tsaJze8iy5Qxzbp+oWRJR2XBUkYyQ37pkp4DIBimLoFA== -->
<g id="node3" class="node">
<title>XecajLMJms1hJ7t9IFcoI50OhyV0ADM/dHasOrlKf9tsaJze8iy5Qxzbp+oWRJR2XBUkYyQ37pkp4DIBimLoFA==</title>
<polygon fill="none" stroke="black" points="162,-240 162,-262 248,-262 248,-240 162,-240"/>
<text text-anchor="start" x="164.88" y="-245.7" font-family="Times,serif" font-size="14.00">Qma.DeviceId</text>
<polygon fill="none" stroke="black" points="162,-218 162,-240 199,-240 199,-218 162,-218"/>
<text text-anchor="start" x="165.12" y="-223.7" font-family="Times,serif" font-size="14.00">Value</text>
<polygon fill="none" stroke="black" points="199,-218 199,-240 248,-240 248,-218 199,-218"/>
<text text-anchor="start" x="202.5" y="-223.7" font-family="Times,serif" font-size="14.00">device1</text>
<polygon fill="none" stroke="black" points="161,-217 161,-263 249,-263 249,-217 161,-217"/>
</g>
<!-- XecajLMJms1hJ7t9IFcoI50OhyV0ADM/dHasOrlKf9tsaJze8iy5Qxzbp+oWRJR2XBUkYyQ37pkp4DIBimLoFA==&#45;&gt;jydLjhvSHzATwXCp6k0s74lqNDSl4X++kikv39cDTJ1hlqr9MO47id955oKsrMWO9hPd82LLvnp9L5AuPRPgEw== -->
<g id="edge2" class="edge">
<title>XecajLMJms1hJ7t9IFcoI50OhyV0ADM/dHasOrlKf9tsaJze8iy5Qxzbp+oWRJR2XBUkYyQ37pkp4DIBimLoFA==&#45;&gt;jydLjhvSHzATwXCp6k0s74lqNDSl4X++kikv39cDTJ1hlqr9MO47id955oKsrMWO9hPd82LLvnp9L5AuPRPgEw==</title>
<path fill="none" stroke="black" d="M219.52,-266.72C225.68,-277.51 232.99,-290.16 239.75,-301.5 241.39,-304.25 243.1,-307.08 244.83,-309.93"/>
<polygon fill="black" stroke="black" points="241.72,-311.54 249.93,-318.24 247.68,-307.88 241.72,-311.54"/>
<text text-anchor="middle" x="275.62" y="-288.2" font-family="Times,serif" font-size="14.00">Environment</text>
</g>
<!-- epADD4VN1Bpd8pFfIKBCXjB4Jo8yVW1DiCgPf2jm4ztjDgDQ1aTlu+0EftYSCL77mTIWg6orrUKDQ+vKySzVzQ== -->
<g id="node4" class="node">
<title>epADD4VN1Bpd8pFfIKBCXjB4Jo8yVW1DiCgPf2jm4ztjDgDQ1aTlu+0EftYSCL77mTIWg6orrUKDQ+vKySzVzQ==</title>
<polygon fill="none" stroke="black" points="9,-133.5 9,-155.5 125,-155.5 125,-133.5 9,-133.5"/>
<text text-anchor="start" x="11.88" y="-139.2" font-family="Times,serif" font-size="14.00">Qma.DeviceSession</text>
<polygon fill="none" stroke="black" points="9,-111.5 9,-133.5 70,-133.5 70,-111.5 9,-111.5"/>
<text text-anchor="start" x="13.25" y="-117.2" font-family="Times,serif" font-size="14.00">SessionId</text>
<polygon fill="none" stroke="black" points="70,-111.5 70,-133.5 125,-133.5 125,-111.5 70,-111.5"/>
<text text-anchor="start" x="74.62" y="-117.2" font-family="Times,serif" font-size="14.00">session1</text>
<polygon fill="none" stroke="black" points="8,-110.5 8,-156.5 126,-156.5 126,-110.5 8,-110.5"/>
</g>
<!-- epADD4VN1Bpd8pFfIKBCXjB4Jo8yVW1DiCgPf2jm4ztjDgDQ1aTlu+0EftYSCL77mTIWg6orrUKDQ+vKySzVzQ==&#45;&gt;XecajLMJms1hJ7t9IFcoI50OhyV0ADM/dHasOrlKf9tsaJze8iy5Qxzbp+oWRJR2XBUkYyQ37pkp4DIBimLoFA== -->
<g id="edge3" class="edge">
<title>epADD4VN1Bpd8pFfIKBCXjB4Jo8yVW1DiCgPf2jm4ztjDgDQ1aTlu+0EftYSCL77mTIWg6orrUKDQ+vKySzVzQ==&#45;&gt;XecajLMJms1hJ7t9IFcoI50OhyV0ADM/dHasOrlKf9tsaJze8iy5Qxzbp+oWRJR2XBUkYyQ37pkp4DIBimLoFA==</title>
<path fill="none" stroke="black" d="M101.11,-160.33C119.44,-174.21 142.23,-191.46 161.78,-206.27"/>
<polygon fill="black" stroke="black" points="159.51,-208.94 169.6,-212.19 163.74,-203.36 159.51,-208.94"/>
<text text-anchor="middle" x="169.75" y="-181.7" font-family="Times,serif" font-size="14.00">DeviceId</text>
</g>
<!-- 2gM4MV11nAT5id647aUB0yaN5c9vNMsyMkFu9mtrqrOy0DD6jMcwhNq3mVYNknupavhxkWdg0Qhg+qLnNW8bcQ== -->
<g id="node5" class="node">
<title>2gM4MV11nAT5id647aUB0yaN5c9vNMsyMkFu9mtrqrOy0DD6jMcwhNq3mVYNknupavhxkWdg0Qhg+qLnNW8bcQ==</title>
<polygon fill="none" stroke="black" points="161.5,-133.5 161.5,-155.5 284.5,-155.5 284.5,-133.5 161.5,-133.5"/>
<text text-anchor="start" x="178.38" y="-139.2" font-family="Times,serif" font-size="14.00">Qma.UserName</text>
<polygon fill="none" stroke="black" points="161.5,-111.5 161.5,-133.5 197.5,-133.5 197.5,-111.5 161.5,-111.5"/>
<text text-anchor="start" x="164.12" y="-117.2" font-family="Times,serif" font-size="14.00">Value</text>
<polygon fill="none" stroke="black" points="197.5,-111.5 197.5,-133.5 284.5,-133.5 284.5,-111.5 197.5,-111.5"/>
<text text-anchor="start" x="200.12" y="-117.2" font-family="Times,serif" font-size="14.00">david.schwartz</text>
<polygon fill="none" stroke="black" points="160.5,-110.5 160.5,-156.5 285.5,-156.5 285.5,-110.5 160.5,-110.5"/>
</g>
<!-- h3+4yk2W+2LkTdRMVjFi3vqZLe6vUoOhUSYjf137gSmCP4dgcGsj11hPHVBL7wSSTDAnxtSdyEFTvjhlKcDYOQ== -->
<g id="node6" class="node">
<title>h3+4yk2W+2LkTdRMVjFi3vqZLe6vUoOhUSYjf137gSmCP4dgcGsj11hPHVBL7wSSTDAnxtSdyEFTvjhlKcDYOQ==</title>
<polygon fill="none" stroke="black" points="307.5,-240 307.5,-262 396.5,-262 396.5,-240 307.5,-240"/>
<text text-anchor="start" x="320.88" y="-245.7" font-family="Times,serif" font-size="14.00">Qma.Order</text>
<polygon fill="none" stroke="black" points="307.5,-218 307.5,-240 355.5,-240 355.5,-218 307.5,-218"/>
<text text-anchor="start" x="310.12" y="-223.7" font-family="Times,serif" font-size="14.00">OrderId</text>
<polygon fill="none" stroke="black" points="355.5,-218 355.5,-240 396.5,-240 396.5,-218 355.5,-218"/>
<text text-anchor="start" x="358.38" y="-223.7" font-family="Times,serif" font-size="14.00">order1</text>
<polygon fill="none" stroke="black" points="306.5,-217 306.5,-263 397.5,-263 397.5,-217 306.5,-217"/>
</g>
<!-- h3+4yk2W+2LkTdRMVjFi3vqZLe6vUoOhUSYjf137gSmCP4dgcGsj11hPHVBL7wSSTDAnxtSdyEFTvjhlKcDYOQ==&#45;&gt;jydLjhvSHzATwXCp6k0s74lqNDSl4X++kikv39cDTJ1hlqr9MO47id955oKsrMWO9hPd82LLvnp9L5AuPRPgEw== -->
<g id="edge4" class="edge">
<title>h3+4yk2W+2LkTdRMVjFi3vqZLe6vUoOhUSYjf137gSmCP4dgcGsj11hPHVBL7wSSTDAnxtSdyEFTvjhlKcDYOQ==&#45;&gt;jydLjhvSHzATwXCp6k0s74lqNDSl4X++kikv39cDTJ1hlqr9MO47id955oKsrMWO9hPd82LLvnp9L5AuPRPgEw==</title>
<path fill="none" stroke="black" d="M336.07,-266.79C328.87,-277.83 319.97,-290.64 311,-301.5 308.22,-304.87 305.21,-308.27 302.13,-311.62"/>
<polygon fill="black" stroke="black" points="299.79,-309 295.42,-318.65 304.85,-313.83 299.79,-309"/>
<text text-anchor="middle" x="359.62" y="-288.2" font-family="Times,serif" font-size="14.00">Environment</text>
</g>
<!-- 5e+Na/ub4ZYYipZDDdEQ/JfUROKxdUQ36egWj0wBvGJE0fk+ZU86GtKBZFCQVzBhZc1HVfFJe+zZfoynlAeK3w== -->
<g id="node7" class="node">
<title>5e+Na/ub4ZYYipZDDdEQ/JfUROKxdUQ36egWj0wBvGJE0fk+ZU86GtKBZFCQVzBhZc1HVfFJe+zZfoynlAeK3w==</title>
<polygon fill="none" stroke="black" points="320.5,-133.5 320.5,-155.5 429.5,-155.5 429.5,-133.5 320.5,-133.5"/>
<text text-anchor="start" x="323.25" y="-139.2" font-family="Times,serif" font-size="14.00">Qma.Order.Details</text>
<polygon fill="none" stroke="black" points="320.5,-111.5 320.5,-133.5 374.5,-133.5 374.5,-111.5 320.5,-111.5"/>
<text text-anchor="start" x="329.88" y="-117.2" font-family="Times,serif" font-size="14.00">details</text>
<polygon fill="none" stroke="black" points="374.5,-111.5 374.5,-133.5 429.5,-133.5 429.5,-111.5 374.5,-111.5"/>
<text text-anchor="start" x="384.38" y="-117.2" font-family="Times,serif" font-size="14.00">details</text>
<polygon fill="none" stroke="black" points="319.5,-110.5 319.5,-156.5 430.5,-156.5 430.5,-110.5 319.5,-110.5"/>
</g>
<!-- 5e+Na/ub4ZYYipZDDdEQ/JfUROKxdUQ36egWj0wBvGJE0fk+ZU86GtKBZFCQVzBhZc1HVfFJe+zZfoynlAeK3w==&#45;&gt;h3+4yk2W+2LkTdRMVjFi3vqZLe6vUoOhUSYjf137gSmCP4dgcGsj11hPHVBL7wSSTDAnxtSdyEFTvjhlKcDYOQ== -->
<g id="edge5" class="edge">
<title>5e+Na/ub4ZYYipZDDdEQ/JfUROKxdUQ36egWj0wBvGJE0fk+ZU86GtKBZFCQVzBhZc1HVfFJe+zZfoynlAeK3w==&#45;&gt;h3+4yk2W+2LkTdRMVjFi3vqZLe6vUoOhUSYjf137gSmCP4dgcGsj11hPHVBL7wSSTDAnxtSdyEFTvjhlKcDYOQ==</title>
<path fill="none" stroke="black" d="M369.31,-160.33C366.55,-172.89 363.18,-188.22 360.15,-201.99"/>
<polygon fill="black" stroke="black" points="356.76,-201.11 358.03,-211.63 363.59,-202.61 356.76,-201.11"/>
<text text-anchor="middle" x="380.75" y="-181.7" font-family="Times,serif" font-size="14.00">Order</text>
</g>
<!-- DtJRPUdrQ6ehVm7HvI8kSRAAMrJPIiQlxgFcX95fQX7orqVMfYAxStvXHST/f9tEqz/ILkH/WV6yk+4aRByPKg== -->
<g id="node8" class="node">
<title>DtJRPUdrQ6ehVm7HvI8kSRAAMrJPIiQlxgFcX95fQX7orqVMfYAxStvXHST/f9tEqz/ILkH/WV6yk+4aRByPKg==</title>
<polygon fill="none" stroke="black" points="97.5,-27 97.5,-49 292.5,-49 292.5,-27 97.5,-27"/>
<text text-anchor="start" x="145.88" y="-32.7" font-family="Times,serif" font-size="14.00">Qma.Order.Saved</text>
<polygon fill="none" stroke="black" points="97.5,-5 97.5,-27 152.5,-27 152.5,-5 97.5,-5"/>
<text text-anchor="start" x="100.25" y="-10.7" font-family="Times,serif" font-size="14.00">SavedOn</text>
<polygon fill="none" stroke="black" points="152.5,-5 152.5,-27 292.5,-27 292.5,-5 152.5,-5"/>
<text text-anchor="start" x="155.38" y="-10.7" font-family="Times,serif" font-size="14.00">2024&#45;04&#45;28T14:41:36....</text>
<polygon fill="none" stroke="black" points="96.5,-4 96.5,-50 293.5,-50 293.5,-4 96.5,-4"/>
</g>
<!-- DtJRPUdrQ6ehVm7HvI8kSRAAMrJPIiQlxgFcX95fQX7orqVMfYAxStvXHST/f9tEqz/ILkH/WV6yk+4aRByPKg==&#45;&gt;epADD4VN1Bpd8pFfIKBCXjB4Jo8yVW1DiCgPf2jm4ztjDgDQ1aTlu+0EftYSCL77mTIWg6orrUKDQ+vKySzVzQ== -->
<g id="edge6" class="edge">
<title>DtJRPUdrQ6ehVm7HvI8kSRAAMrJPIiQlxgFcX95fQX7orqVMfYAxStvXHST/f9tEqz/ILkH/WV6yk+4aRByPKg==&#45;&gt;epADD4VN1Bpd8pFfIKBCXjB4Jo8yVW1DiCgPf2jm4ztjDgDQ1aTlu+0EftYSCL77mTIWg6orrUKDQ+vKySzVzQ==</title>
<path fill="none" stroke="black" d="M163.36,-53.83C146.44,-67.65 125.42,-84.81 107.33,-99.57"/>
<polygon fill="black" stroke="black" points="105.43,-96.61 99.89,-105.65 109.85,-102.03 105.43,-96.61"/>
<text text-anchor="middle" x="159.62" y="-75.2" font-family="Times,serif" font-size="14.00">Session</text>
</g>
<!-- DtJRPUdrQ6ehVm7HvI8kSRAAMrJPIiQlxgFcX95fQX7orqVMfYAxStvXHST/f9tEqz/ILkH/WV6yk+4aRByPKg==&#45;&gt;2gM4MV11nAT5id647aUB0yaN5c9vNMsyMkFu9mtrqrOy0DD6jMcwhNq3mVYNknupavhxkWdg0Qhg+qLnNW8bcQ== -->
<g id="edge8" class="edge">
<title>DtJRPUdrQ6ehVm7HvI8kSRAAMrJPIiQlxgFcX95fQX7orqVMfYAxStvXHST/f9tEqz/ILkH/WV6yk+4aRByPKg==&#45;&gt;2gM4MV11nAT5id647aUB0yaN5c9vNMsyMkFu9mtrqrOy0DD6jMcwhNq3mVYNknupavhxkWdg0Qhg+qLnNW8bcQ==</title>
<path fill="none" stroke="black" d="M201.92,-53.83C205.29,-66.39 209.39,-81.72 213.08,-95.49"/>
<polygon fill="black" stroke="black" points="209.7,-96.39 215.67,-105.14 216.46,-94.58 209.7,-96.39"/>
<text text-anchor="middle" x="235.38" y="-75.2" font-family="Times,serif" font-size="14.00">SavedBy</text>
</g>
<!-- DtJRPUdrQ6ehVm7HvI8kSRAAMrJPIiQlxgFcX95fQX7orqVMfYAxStvXHST/f9tEqz/ILkH/WV6yk+4aRByPKg==&#45;&gt;5e+Na/ub4ZYYipZDDdEQ/JfUROKxdUQ36egWj0wBvGJE0fk+ZU86GtKBZFCQVzBhZc1HVfFJe+zZfoynlAeK3w== -->
<g id="edge7" class="edge">
<title>DtJRPUdrQ6ehVm7HvI8kSRAAMrJPIiQlxgFcX95fQX7orqVMfYAxStvXHST/f9tEqz/ILkH/WV6yk+4aRByPKg==&#45;&gt;5e+Na/ub4ZYYipZDDdEQ/JfUROKxdUQ36egWj0wBvGJE0fk+ZU86GtKBZFCQVzBhZc1HVfFJe+zZfoynlAeK3w==</title>
<path fill="none" stroke="black" d="M239.49,-53.83C264.05,-68.09 294.74,-85.9 320.7,-100.97"/>
<polygon fill="black" stroke="black" points="318.68,-103.85 329.08,-105.84 322.19,-97.8 318.68,-103.85"/>
<text text-anchor="middle" x="315.12" y="-75.2" font-family="Times,serif" font-size="14.00">Details</text>
</g>
<!-- tNTC5vVkRPHLnuUw6e7cBufNGzycCu1ZKe8DLLlc3fs3VPaa7Vvo2nkfELboI564TJ3x6R1Gr1KokNX+Nh/9XQ== -->
<g id="node9" class="node">
<title>tNTC5vVkRPHLnuUw6e7cBufNGzycCu1ZKe8DLLlc3fs3VPaa7Vvo2nkfELboI564TJ3x6R1Gr1KokNX+Nh/9XQ==</title>
<polygon fill="none" stroke="black" points="328.62,-15.75 328.62,-38.25 477.38,-38.25 477.38,-15.75 328.62,-15.75"/>
<text text-anchor="start" x="332.12" y="-21.95" font-family="Times,serif" font-size="14.00">Qma.Order.ReadyToSync</text>
<polygon fill="none" stroke="black" points="327.62,-14.75 327.62,-39.25 478.38,-39.25 478.38,-14.75 327.62,-14.75"/>
</g>
<!-- tNTC5vVkRPHLnuUw6e7cBufNGzycCu1ZKe8DLLlc3fs3VPaa7Vvo2nkfELboI564TJ3x6R1Gr1KokNX+Nh/9XQ==&#45;&gt;5e+Na/ub4ZYYipZDDdEQ/JfUROKxdUQ36egWj0wBvGJE0fk+ZU86GtKBZFCQVzBhZc1HVfFJe+zZfoynlAeK3w== -->
<g id="edge9" class="edge">
<title>tNTC5vVkRPHLnuUw6e7cBufNGzycCu1ZKe8DLLlc3fs3VPaa7Vvo2nkfELboI564TJ3x6R1Gr1KokNX+Nh/9XQ==&#45;&gt;5e+Na/ub4ZYYipZDDdEQ/JfUROKxdUQ36egWj0wBvGJE0fk+ZU86GtKBZFCQVzBhZc1HVfFJe+zZfoynlAeK3w==</title>
<path fill="none" stroke="black" d="M398.5,-44.79C394.82,-58.51 389.49,-78.42 384.83,-95.8"/>
<polygon fill="black" stroke="black" points="381.49,-94.74 382.29,-105.31 388.26,-96.55 381.49,-94.74"/>
<text text-anchor="middle" x="425.88" y="-75.2" font-family="Times,serif" font-size="14.00">OrderDetails</text>
</g>
</g>
</svg>
