<svg version="1.1" xmlns="http://www.w3.org/2000/svg" viewBox="0 0 1500 880" width="4500" height="2640">
  <!-- svg-source:excalidraw -->
  
  <defs>
    <style>
      @font-face {
        font-family: "Virgil";
        src: url("https://excalidraw.com/Virgil.woff2");
      }
      @font-face {
        font-family: "Cascadia";
        src: url("https://excalidraw.com/Cascadia.woff2");
      }
    </style>
  </defs>
  <rect x="0" y="0" width="1500" height="880" fill="#ffffff"></rect><g stroke-linecap="round" transform="translate(30 564) rotate(0 79.5 26)"><path d="M86.81 0.43 C99.26 0.39, 114.22 1.22, 124.97 3.64 C135.72 6.06, 145.77 10.99, 151.32 14.96 C156.87 18.92, 159.05 23.2, 158.29 27.43 C157.53 31.66, 153.51 36.67, 146.76 40.34 C140.01 44.01, 129.25 47.48, 117.78 49.43 C106.3 51.39, 90.8 52.11, 77.91 52.06 C65.03 52.02, 51.62 51.21, 40.49 49.15 C29.36 47.09, 17.81 43.57, 11.14 39.71 C4.46 35.85, 0.6 30.42, 0.44 25.99 C0.28 21.57, 3.95 16.86, 10.16 13.18 C16.38 9.51, 26.93 6.16, 37.72 3.94 C48.52 1.72, 66.16 0.56, 74.94 -0.12 C83.72 -0.8, 87.27 -0.49, 90.41 -0.16 C93.55 0.17, 94.05 1.31, 93.78 1.84 M80.27 0.3 C92.74 0.16, 107.54 2.5, 118.64 4.76 C129.73 7.01, 139.93 10.4, 146.82 13.83 C153.71 17.26, 159.68 21.21, 159.96 25.34 C160.24 29.46, 154.6 34.81, 148.51 38.58 C142.42 42.35, 134.07 45.56, 123.43 47.96 C112.79 50.37, 97.94 52.88, 84.68 53.02 C71.42 53.16, 55.52 50.75, 43.87 48.82 C32.22 46.9, 22.21 44.83, 14.79 41.47 C7.36 38.1, 0.88 33.17, -0.68 28.65 C-2.24 24.12, 0.02 17.99, 5.44 14.33 C10.85 10.66, 21 9.15, 31.8 6.65 C42.6 4.15, 62.39 0.3, 70.21 -0.68 C78.03 -1.66, 77.25 0.45, 78.72 0.79 C80.18 1.12, 78.78 0.79, 78.99 1.34" stroke="none" stroke-width="0" fill="#228be6"></path><path d="M71.69 0.2 C84.06 -0.63, 100.05 0.04, 111.94 1.62 C123.84 3.2, 135.33 6.27, 143.04 9.67 C150.74 13.08, 156.54 17.65, 158.19 22.05 C159.83 26.45, 157.74 31.95, 152.92 36.06 C148.11 40.18, 139.16 44.08, 129.28 46.76 C119.4 49.44, 106.46 51.41, 93.62 52.16 C80.78 52.92, 64.66 52.84, 52.24 51.28 C39.83 49.73, 27.43 46.31, 19.12 42.85 C10.81 39.4, 4.86 34.56, 2.41 30.58 C-0.05 26.6, 0.55 23.08, 4.41 19 C8.27 14.91, 16.18 9.12, 25.56 6.05 C34.94 2.98, 51.63 1.59, 60.69 0.57 C69.75 -0.46, 75.56 0.05, 79.91 -0.09 C84.26 -0.23, 87.03 -0.66, 86.78 -0.29 M79.61 0.25 C91.73 -0.36, 105.75 1.44, 117.2 3.48 C128.66 5.51, 141.41 8.65, 148.35 12.47 C155.28 16.28, 158.52 22.21, 158.81 26.36 C159.09 30.5, 156.1 33.7, 150.05 37.34 C144.01 40.98, 133.19 45.69, 122.53 48.21 C111.87 50.73, 98.72 52.39, 86.11 52.47 C73.49 52.54, 58.62 50.58, 46.85 48.67 C35.08 46.75, 23.4 44.3, 15.49 40.98 C7.58 37.65, 1.06 33.03, -0.62 28.71 C-2.29 24.39, 0.21 19.01, 5.43 15.05 C10.65 11.09, 20.3 7.2, 30.69 4.94 C41.08 2.68, 59.91 2.44, 67.76 1.48 C75.6 0.53, 75.93 -0.84, 77.76 -0.77 C79.59 -0.71, 78.59 1.33, 78.74 1.87" stroke="#000000" stroke-width="1" fill="none"></path></g><g transform="translate(72 576.5) rotate(0 31.5 12.5)"><text x="0" y="18" font-family="Virgil, Segoe UI Emoji" font-size="20px" fill="#000000" text-anchor="start" style="white-space: pre;" direction="ltr">j.query</text></g><g stroke-linecap="round" transform="translate(1190 630) rotate(0 20 109)"><path d="M0 0 L40 0 L40 218 L0 218" stroke="none" stroke-width="0" fill="#ffffff"></path><path d="M0 0 C10.3 0, 20.6 0, 40 0 M40 0 C40 64.97, 40 129.95, 40 218 M40 218 C31.23 218, 22.47 218, 0 218 M0 218 C0 169.56, 0 121.11, 0 0" stroke="#000000" stroke-width="2.5" fill="none" stroke-dasharray="1.5 8"></path></g><g stroke-linecap="round"><g transform="translate(1150 412.3388698295588) rotate(0 50 0)"><path d="M0 0 C32.6 0, 65.19 0, 100 0" stroke="#000000" stroke-width="2.5" fill="none" stroke-dasharray="1.5 8"></path></g></g><g stroke-linecap="round" transform="translate(1190 370) rotate(0 20 119)"><path d="M0 0 L40 0 L40 238 L0 238" stroke="none" stroke-width="0" fill="#ffffff"></path><path d="M0 0 C8.33 0, 16.67 0, 40 0 M40 0 C40 83.72, 40 167.43, 40 238 M40 238 C26.1 238, 12.19 238, 0 238 M0 238 C0 188.6, 0 139.2, 0 0" stroke="#000000" stroke-width="2.5" fill="none" stroke-dasharray="1.5 8"></path></g><g stroke-linecap="round"><g transform="translate(189.99415973643812 709.6747710717718) rotate(0 149.50292013178097 -0.6607007361227488)"><path d="M0 0 C86.34 -0.38, 172.68 -0.76, 299.01 -1.32 M0 0 C91.47 -0.4, 182.93 -0.81, 299.01 -1.32" stroke="#087f5b" stroke-width="4" fill="none"></path></g><g transform="translate(189.99415973643812 709.6747710717718) rotate(0 149.50292013178097 -0.6607007361227488)"><path d="M270.86 9.06 C278.99 6.06, 287.11 3.07, 299.01 -1.32 M270.86 9.06 C279.47 5.89, 288.08 2.71, 299.01 -1.32" stroke="#087f5b" stroke-width="4" fill="none"></path></g><g transform="translate(189.99415973643812 709.6747710717718) rotate(0 149.50292013178097 -0.6607007361227488)"><path d="M270.77 -11.46 C278.92 -8.53, 287.08 -5.6, 299.01 -1.32 M270.77 -11.46 C279.41 -8.36, 288.04 -5.26, 299.01 -1.32" stroke="#087f5b" stroke-width="4" fill="none"></path></g></g><g stroke-linecap="round" transform="translate(490 390) rotate(0 90 180)"><path d="M0 0 C54.72 0, 109.43 0, 180 0 M0 0 C41.4 0, 82.8 0, 180 0 M180 0 C180 120.77, 180 241.54, 180 360 M180 0 C180 135.38, 180 270.76, 180 360 M180 360 C142.73 360, 105.46 360, 0 360 M180 360 C133.84 360, 87.67 360, 0 360 M0 360 C0 243.78, 0 127.56, 0 0 M0 360 C0 283.85, 0 207.7, 0 0" stroke="#000000" stroke-width="2" fill="none"></path></g><g stroke-linecap="round" transform="translate(10 190) rotate(0 381.17647058823536 340)"><path d="M0 0 C283.97 0, 567.95 0, 762.35 0 M0 0 C267.55 0, 535.1 0, 762.35 0 M762.35 0 C762.35 199.99, 762.35 399.98, 762.35 680 M762.35 0 C762.35 170.49, 762.35 340.98, 762.35 680 M762.35 680 C563.5 680, 364.64 680, 0 680 M762.35 680 C502.96 680, 243.56 680, 0 680 M0 680 C0 491.3, 0 302.6, 0 0 M0 680 C0 457.69, 0 235.38, 0 0" stroke="#495057" stroke-width="4" fill="none"></path></g><g stroke-linecap="round" transform="translate(10 10) rotate(0 380 70)"><path d="M0 0 C199.32 0, 398.64 0, 760 0 M0 0 C197.76 0, 395.52 0, 760 0 M760 0 C760 55.28, 760 110.56, 760 140 M760 0 C760 55.33, 760 110.65, 760 140 M760 140 C474.16 140, 188.33 140, 0 140 M760 140 C457.81 140, 155.62 140, 0 140 M0 140 C0 96.8, 0 53.61, 0 0 M0 140 C0 105.8, 0 71.6, 0 0" stroke="#495057" stroke-width="4" fill="none"></path></g><g transform="translate(210 10) rotate(0 158 12.5)"><text x="0" y="18" font-family="Virgil, Segoe UI Emoji" font-size="20px" fill="#000000" text-anchor="start" style="white-space: pre;" direction="ltr">Jinaga.JS - client (up &amp; running)</text></g><g transform="translate(190 190) rotate(0 202.5 12.5)"><text x="0" y="18" font-family="Virgil, Segoe UI Emoji" font-size="20px" fill="#000000" text-anchor="start" style="white-space: pre;" direction="ltr">Jianaga.NET - client (under development)</text></g><g stroke-linecap="round" transform="translate(550.1021778163922 544.3060549631518) rotate(0 49.36914087559103 19.74765635023641)"><path d="M30.65 1.54 C39 0.01, 50.75 0.44, 60.3 1.4 C69.86 2.35, 81.51 4.26, 87.99 7.26 C94.48 10.26, 98.68 15.51, 99.23 19.4 C99.78 23.3, 96.97 27.46, 91.31 30.66 C85.64 33.85, 74.85 37.23, 65.24 38.58 C55.63 39.93, 43.02 39.79, 33.62 38.73 C24.23 37.67, 14.57 35.49, 8.85 32.21 C3.14 28.93, -0.79 23.19, -0.67 19.04 C-0.54 14.9, 3.82 10.34, 9.62 7.34 C15.41 4.33, 29.26 2.15, 34.09 1.01 C38.92 -0.13, 38.38 0.07, 38.57 0.49" stroke="none" stroke-width="0" fill="#ffffff"></path><path d="M46.52 -0.09 C55.9 -0.55, 69.18 1.73, 77.37 4.03 C85.55 6.33, 92.43 10.1, 95.62 13.69 C98.82 17.29, 99.5 22.08, 96.52 25.6 C93.54 29.12, 85.85 32.42, 77.74 34.8 C69.62 37.18, 57.67 39.89, 47.83 39.86 C37.99 39.83, 26.47 36.93, 18.68 34.6 C10.89 32.26, 3.63 29.45, 1.1 25.84 C-1.43 22.23, -0.24 16.7, 3.5 12.92 C7.23 9.14, 15.18 5.31, 23.51 3.18 C31.84 1.04, 47.35 0.5, 53.48 0.13 C59.61 -0.23, 60.41 0.8, 60.31 0.99" stroke="#000000" stroke-width="2.5" fill="none" stroke-dasharray="1.5 8"></path></g><g stroke-linecap="round" transform="translate(550.8427149295278 509.7476563502378) rotate(0 49.36914087559103 27.153027481575577)"><path d="M1.3 1.94 L98.51 -0.85 L99.12 52.56 L0.31 53.5" stroke="none" stroke-width="0" fill="#ffffff"></path><path d="M-0.2 0.24 C29.13 -0.74, 55.14 0.88, 100.09 -0.67 M97.84 -1.96 C97.58 19.62, 98.04 36.31, 97.43 56.07 M99.2 53.89 C68.64 54.55, 38.51 53.63, -1.53 52.76 M-0.7 55.92 C0.29 36.17, 2.14 21.7, 0.25 1.11" stroke="transparent" stroke-width="2.5" fill="none" stroke-dasharray="1.5 8"></path></g><g stroke-linecap="round" transform="translate(550.3490235207705 490) rotate(0 49.36914087559103 19.74765635023641)"><path d="M40.16 1.15 C49.23 0.27, 63.23 0.5, 72.23 2.24 C81.22 3.98, 89.69 8.11, 94.13 11.6 C98.58 15.1, 100.84 19.38, 98.9 23.19 C96.97 26.99, 90.05 31.7, 82.51 34.42 C74.97 37.15, 63.48 39, 53.68 39.54 C43.88 40.08, 32.14 39.76, 23.7 37.66 C15.27 35.57, 6.88 30.81, 3.05 26.97 C-0.77 23.12, -1.79 18.33, 0.73 14.57 C3.24 10.82, 11.14 6.9, 18.14 4.44 C25.13 1.98, 38.16 0.36, 42.72 -0.19 C47.28 -0.73, 45.23 0.94, 45.5 1.19" stroke="none" stroke-width="0" fill="#ffffff"></path><path d="M67.3 1.95 C76.3 3.13, 85.45 6.42, 90.68 9.62 C95.9 12.82, 99.42 17.46, 98.66 21.15 C97.9 24.84, 92.71 28.71, 86.11 31.75 C79.52 34.8, 68.73 38.56, 59.1 39.43 C49.47 40.29, 37.32 38.52, 28.35 36.95 C19.39 35.39, 9.94 33.32, 5.32 30.04 C0.69 26.77, -0.97 21.31, 0.58 17.3 C2.13 13.29, 7.68 8.82, 14.62 5.98 C21.56 3.14, 32.52 0.84, 42.24 0.25 C51.97 -0.33, 67.07 1.97, 72.96 2.49 C78.84 3, 78.07 3.06, 77.53 3.35" stroke="#000000" stroke-width="2.5" fill="none" stroke-dasharray="1.5 8"></path></g><g stroke-linecap="round"><g transform="translate(550.4681050058546 509.5507500357203) rotate(0 -0.1608815789268192 27.517620880518734)"><path d="M0.15 0.87 C0.05 9.92, -0.53 45.13, -0.47 54.17" stroke="#000000" stroke-width="2.5" fill="none" stroke-dasharray="1.5 8"></path></g></g><g stroke-linecap="round"><g transform="translate(649.1326551493261 509.81791946433464) rotate(0 0.268712118407052 27.09543137106357)"><path d="M0.87 -0.4 C0.83 8.68, -0.29 45.59, -0.33 54.59" stroke="#000000" stroke-width="2.5" fill="none" stroke-dasharray="1.5 8"></path></g></g><g transform="translate(569 540) rotate(0 32.5 12.5)"><text x="0" y="18" font-family="Virgil, Segoe UI Emoji" font-size="20px" fill="#000000" text-anchor="start" style="white-space: pre;" direction="ltr">SQLite</text></g><g stroke-linecap="round" transform="translate(550.38882983097 678.3965145206582) rotate(0 48.542285927868704 19.416914371147527)"><path d="M29.92 2.03 C38.21 0.06, 51.11 -0.89, 60.49 -0.1 C69.87 0.69, 80.24 3.78, 86.21 6.76 C92.18 9.74, 96.06 13.85, 96.31 17.76 C96.57 21.67, 93.11 27.04, 87.76 30.23 C82.41 33.42, 73.37 35.57, 64.21 36.9 C55.05 38.24, 41.97 39.23, 32.81 38.23 C23.64 37.24, 14.56 34.25, 9.22 30.93 C3.89 27.61, 0.39 22.4, 0.78 18.31 C1.17 14.22, 5.08 9.42, 11.57 6.39 C18.07 3.35, 33.06 1.09, 39.76 0.1 C46.45 -0.9, 51.47 0.07, 51.73 0.41 M29.19 1.02 C37.24 -1.05, 49.76 -1.91, 59.38 -0.86 C69 0.19, 80.67 3.85, 86.89 7.34 C93.12 10.83, 96.35 16.34, 96.71 20.06 C97.08 23.78, 94.82 26.75, 89.08 29.66 C83.33 32.58, 71.67 36.35, 62.24 37.55 C52.81 38.76, 41.52 38.32, 32.49 36.88 C23.45 35.44, 13.54 31.93, 8.03 28.92 C2.53 25.91, -1.17 22.72, -0.55 18.81 C0.07 14.91, 6.9 8.53, 11.75 5.48 C16.61 2.43, 25.37 0.93, 28.58 0.52 C31.79 0.11, 30.65 2.38, 31.02 3" stroke="none" stroke-width="0" fill="#ffffff"></path><path d="M26.07 1.58 C34.26 -0.31, 47.37 -0.32, 57.1 0.5 C66.83 1.31, 77.82 3.62, 84.45 6.47 C91.08 9.32, 95.82 13.9, 96.87 17.59 C97.92 21.28, 95.65 25.18, 90.75 28.61 C85.86 32.04, 76.52 36.42, 67.48 38.17 C58.44 39.91, 45.97 40.27, 36.51 39.08 C27.06 37.89, 16.9 34.36, 10.74 31.03 C4.59 27.7, -0.27 22.94, -0.41 19.07 C-0.55 15.21, 5.05 10.88, 9.89 7.84 C14.74 4.81, 25.11 1.83, 28.64 0.87 C32.18 -0.1, 30.7 1.5, 31.1 2.03 M70.29 3.21 C78.98 4.59, 87.6 7.02, 92 10.54 C96.4 14.06, 98.41 20.28, 96.67 24.32 C94.93 28.36, 88.87 32.31, 81.54 34.77 C74.22 37.24, 62.71 39.15, 52.74 39.1 C42.78 39.06, 29.83 36.57, 21.75 34.5 C13.67 32.43, 7.51 30, 4.26 26.68 C1.02 23.37, -0.25 18.61, 2.28 14.6 C4.82 10.6, 11.35 5.28, 19.46 2.64 C27.57 -0.01, 42.54 -1.4, 50.96 -1.24 C59.37 -1.08, 66.79 3.02, 69.96 3.61 C73.13 4.19, 70.27 2.12, 69.99 2.26" stroke="#000000" stroke-width="1" fill="none"></path></g><g stroke-linecap="round" transform="translate(551.1169641198876 644.4169143711467) rotate(0 48.542285927868704 26.698257260328205)"><path d="M-1.14 -0.08 L97.31 -0.06 L95.5 53.77 L1.29 52.59" stroke="none" stroke-width="0" fill="#ffffff"></path><path d="M-1.97 -1.74 C34.79 1.29, 69.16 2.42, 97.6 1.88 M0.31 -0.61 C34.53 0.36, 68.6 0.41, 97.36 -0.43 M96.7 0.04 C94.99 11.89, 97.61 28.33, 98.22 55.29 M97.81 -0.17 C96.83 12.53, 97.84 24.88, 97.64 53.69 M98.78 54.14 C66.08 53.7, 33.83 51.16, 1.93 51.74 M96.94 53.26 C72.83 53.58, 48.66 52.42, 0.42 54.17 M-1.24 53.94 C-0.76 30.59, -1.83 9.23, -0.44 0.92 M0.91 54.05 C0.74 42.4, 0.13 31.03, -0.65 -0.18" stroke="transparent" stroke-width="1" fill="none"></path></g><g stroke-linecap="round" transform="translate(550.6315412606089 624.9999999999998) rotate(0 48.542285927868704 19.416914371147527)"><path d="M67.63 0.81 C76.35 1.86, 85.79 5.88, 90.53 9.21 C95.27 12.53, 97.31 16.86, 96.06 20.75 C94.81 24.65, 89.56 29.74, 83.04 32.56 C76.52 35.37, 66.46 36.87, 56.94 37.62 C47.42 38.37, 34.49 38.6, 25.92 37.05 C17.36 35.5, 9.55 31.94, 5.52 28.33 C1.49 24.71, -0.12 19.35, 1.76 15.34 C3.65 11.33, 9.69 6.84, 16.83 4.26 C23.98 1.68, 35.6 0.18, 44.66 -0.14 C53.72 -0.46, 65.98 1.67, 71.2 2.33 C76.42 2.99, 76.41 3.49, 75.98 3.81 M62.7 -0.47 C71.86 0.55, 83.29 4.8, 88.95 8.46 C94.61 12.11, 97.01 17.73, 96.67 21.45 C96.34 25.17, 93.25 28.01, 86.95 30.76 C80.66 33.5, 68.51 36.98, 58.9 37.91 C49.28 38.85, 38.05 38.05, 29.28 36.36 C20.5 34.66, 11.16 30.89, 6.26 27.73 C1.35 24.58, -1.48 21.32, -0.17 17.44 C1.14 13.56, 7.27 7.51, 14.13 4.47 C21 1.43, 32.58 -0.43, 41.02 -0.82 C49.46 -1.21, 61.16 1.62, 64.79 2.14 C68.42 2.66, 63.33 2.34, 62.81 2.31" stroke="none" stroke-width="0" fill="#ffffff"></path><path d="M43.39 0.42 C52.59 -0.1, 65.31 1.12, 73.64 3.1 C81.96 5.08, 89.62 8.88, 93.33 12.29 C97.05 15.69, 98.28 19.69, 95.93 23.53 C93.59 27.38, 86.91 32.67, 79.28 35.37 C71.64 38.06, 59.91 39.78, 50.14 39.69 C40.38 39.6, 28.74 37.34, 20.69 34.81 C12.63 32.27, 4.68 28.17, 1.81 24.49 C-1.05 20.8, 0.14 16.39, 3.5 12.7 C6.86 9, 15.33 4.36, 21.96 2.33 C28.6 0.3, 39.22 0.76, 43.33 0.54 C47.43 0.31, 46.21 0.85, 46.59 0.98 M49.61 -0.42 C59.05 -0.58, 71.61 2.7, 79.4 5.35 C87.2 8, 94.02 11.82, 96.4 15.48 C98.78 19.14, 97.73 24.05, 93.7 27.3 C89.67 30.55, 80.53 32.99, 72.21 34.98 C63.89 36.97, 53.35 39.38, 43.79 39.24 C34.23 39.11, 22.15 37.16, 14.85 34.16 C7.55 31.16, 1.24 25.47, -0.02 21.26 C-1.27 17.05, 2.69 11.92, 7.32 8.91 C11.96 5.9, 20.75 4.73, 27.8 3.21 C34.85 1.69, 46 0.16, 49.64 -0.21 C53.27 -0.57, 49.52 0.42, 49.62 1.01" stroke="#000000" stroke-width="1" fill="none"></path></g><g stroke-linecap="round"><g transform="translate(551.0459510859102 644.0642883142293) rotate(0 -0.2200826106313798 26.054083557674403)"><path d="M-1.05 -0.3 C-0.88 8.65, 0.09 43.53, 0.45 52.53 M0.61 -1.51 C0.7 7.67, -0.29 44.17, -0.23 53.62" stroke="#000000" stroke-width="1" fill="none"></path></g></g><g stroke-linecap="round"><g transform="translate(648.0873017667757 644.1967121128403) rotate(0 0.43084278194072567 27.026104260432703)"><path d="M-0.3 0.52 C-0.28 9.74, -1.12 45.35, -1.05 54.31 M1.74 -0.26 C2.24 8.76, 1.58 44.02, 1.21 52.81" stroke="#000000" stroke-width="1" fill="none"></path></g></g><g transform="translate(565 661) rotate(0 34 25)"><text x="34" y="18" font-family="Virgil, Segoe UI Emoji" font-size="20px" fill="#000000" text-anchor="middle" style="white-space: pre;" direction="ltr">Memory</text><text x="34" y="43" font-family="Virgil, Segoe UI Emoji" font-size="20px" fill="#000000" text-anchor="middle" style="white-space: pre;" direction="ltr">Store</text></g><g stroke-linecap="round"><g transform="translate(771 69.11767339661026) rotate(0 99.69806988841856 -0.11497256235514897)"><path d="M1.18 -0.18 C34.28 -0.29, 166.33 -0.39, 199.06 -0.28 M0.34 -1.32 C33.33 -1.28, 165.97 1.15, 198.66 1.09" stroke="#000000" stroke-width="1" fill="none"></path></g><g transform="translate(771 69.11767339661026) rotate(0 99.69806988841856 -0.11497256235514897)"><path d="M29.06 -8.71 C19.32 -7.5, 10.98 -4.15, 0.13 0 M29.16 -10.77 C19.32 -5.88, 8.06 -3.22, 0.45 0.65" stroke="#000000" stroke-width="1" fill="none"></path></g><g transform="translate(771 69.11767339661026) rotate(0 99.69806988841856 -0.11497256235514897)"><path d="M29.08 11.81 C19.27 6.07, 10.93 2.46, 0.13 0 M29.18 9.76 C19.16 7.03, 7.89 2.08, 0.45 0.65" stroke="#000000" stroke-width="1" fill="none"></path></g><g transform="translate(771 69.11767339661026) rotate(0 99.69806988841856 -0.11497256235514897)"><path d="M170.08 12.84 C179.4 6.62, 190.2 3.1, 197.62 1.27 M170.18 10.79 C181.11 7.73, 190.79 2.87, 197.93 1.92" stroke="#000000" stroke-width="1" fill="none"></path></g><g transform="translate(771 69.11767339661026) rotate(0 99.69806988841856 -0.11497256235514897)"><path d="M170.27 -7.68 C179.6 -6.94, 190.33 -3.51, 197.62 1.27 M170.38 -9.73 C181.41 -5.18, 191.02 -2.42, 197.93 1.92" stroke="#000000" stroke-width="1" fill="none"></path></g></g><g stroke-linecap="round" transform="translate(29 444) rotate(0 79.5 26)"><path d="M98.33 0.26 C110.78 0.82, 125.66 4.5, 135.1 7.46 C144.53 10.41, 151.26 13.82, 154.94 17.99 C158.63 22.15, 160.02 28.26, 157.2 32.45 C154.37 36.64, 146.58 40.04, 137.98 43.13 C129.39 46.23, 117.65 49.59, 105.63 51.02 C93.61 52.46, 78.65 52.55, 65.86 51.75 C53.06 50.95, 38.99 48.87, 28.85 46.2 C18.7 43.54, 9.49 39.79, 4.99 35.78 C0.48 31.77, -0.16 26.5, 1.81 22.15 C3.77 17.81, 9.01 12.92, 16.76 9.71 C24.52 6.5, 36.23 4.42, 48.32 2.87 C60.41 1.33, 78.71 0.5, 89.33 0.44 C99.94 0.38, 106.58 1.81, 111.99 2.51 C117.4 3.22, 122.21 4.44, 121.78 4.68 M50.67 0.49 C61.69 -1.18, 78.75 0.38, 91.52 1.21 C104.3 2.04, 116.84 3.13, 127.3 5.46 C137.76 7.8, 149.12 11.2, 154.26 15.21 C159.41 19.21, 159.79 25.17, 158.19 29.5 C156.59 33.83, 152.25 37.72, 144.68 41.18 C137.11 44.64, 124.6 48.51, 112.76 50.28 C100.92 52.05, 86.78 52.05, 73.64 51.82 C60.49 51.58, 44.56 51.39, 33.88 48.88 C23.2 46.37, 15.21 40.87, 9.55 36.75 C3.88 32.64, -0.42 28.53, -0.11 24.2 C0.19 19.87, 4.3 14.05, 11.38 10.76 C18.46 7.47, 35.86 6.16, 42.39 4.47 C48.92 2.79, 49.03 1.02, 50.54 0.65 C52.05 0.28, 50.97 1.79, 51.46 2.23" stroke="none" stroke-width="0" fill="#fab005"></path><path d="M92.52 -0.53 C104.81 -0.42, 117.87 2.63, 128.05 5.48 C138.22 8.33, 148.44 12.65, 153.58 16.57 C158.72 20.49, 160.48 24.93, 158.87 28.99 C157.26 33.05, 151.61 37.52, 143.9 40.93 C136.19 44.34, 124.56 47.53, 112.61 49.48 C100.66 51.43, 85.23 52.88, 72.21 52.62 C59.18 52.37, 45.26 50.4, 34.47 47.94 C23.69 45.49, 13.15 41.94, 7.48 37.91 C1.82 33.87, -0.35 28.07, 0.46 23.73 C1.28 19.39, 5.33 15.26, 12.38 11.87 C19.44 8.47, 31.36 5.31, 42.79 3.34 C54.23 1.37, 72.33 0.4, 80.98 0.05 C89.64 -0.29, 91.91 1.22, 94.75 1.26 C97.58 1.3, 98.12 -0.14, 97.98 0.31 M57.43 0.49 C68.84 -0.66, 86.04 1.09, 98.53 2.14 C111.01 3.2, 122.87 4.36, 132.33 6.82 C141.79 9.27, 151.14 12.8, 155.29 16.89 C159.44 20.98, 159.86 27.07, 157.23 31.36 C154.61 35.64, 147.99 39.54, 139.54 42.6 C131.09 45.66, 118.78 48.1, 106.51 49.74 C94.24 51.38, 78.66 53.08, 65.91 52.44 C53.16 51.81, 40.05 48.83, 30.02 45.94 C20 43.04, 10.52 38.98, 5.75 35.08 C0.98 31.18, -0.12 26.7, 1.4 22.53 C2.93 18.36, 7.03 13.61, 14.91 10.06 C22.79 6.5, 41.35 2.82, 48.69 1.2 C56.02 -0.42, 57.09 0.17, 58.9 0.33 C60.71 0.49, 59.42 1.54, 59.53 2.14" stroke="#000000" stroke-width="1" fill="none"></path></g><g transform="translate(71 457) rotate(0 34.5 12.5)"><text x="0" y="18" font-family="Virgil, Segoe UI Emoji" font-size="20px" fill="#000000" text-anchor="start" style="white-space: pre;" direction="ltr">j.watch</text></g><g transform="translate(547 397) rotate(0 32.5 12.5)"><text x="0" y="18" font-family="Virgil, Segoe UI Emoji" font-size="20px" fill="#000000" text-anchor="start" style="white-space: pre;" direction="ltr">IStore</text></g><g stroke-linecap="round" transform="translate(1301.305180703781 761.7894736842127) rotate(0 65.26315789473574 26.10526315789423)"><path d="M43.02 2.19 C53.03 0.35, 67.03 0.33, 78.3 1.24 C89.57 2.15, 102.21 4.5, 110.66 7.65 C119.12 10.81, 126.38 15.87, 129.03 20.19 C131.68 24.52, 130.15 29.45, 126.57 33.6 C122.99 37.74, 116.08 42.01, 107.55 45.06 C99.02 48.11, 86.65 51.07, 75.39 51.9 C64.12 52.73, 50.74 51.87, 39.96 50.02 C29.18 48.17, 17.29 44.77, 10.72 40.81 C4.16 36.85, 0.78 30.98, 0.57 26.26 C0.35 21.55, 3.79 16.25, 9.43 12.53 C15.07 8.81, 28.67 5.81, 34.39 3.96 C40.11 2.11, 41.69 1.92, 43.75 1.43 C45.81 0.94, 46.31 0.73, 46.75 1.03 M42.2 2.05 C52.11 -0.11, 67.39 -1.49, 78.9 -0.67 C90.41 0.14, 102.96 3.69, 111.27 6.94 C119.58 10.19, 126.16 14.52, 128.77 18.85 C131.37 23.18, 130.38 28.34, 126.89 32.91 C123.4 37.48, 116.51 43.01, 107.84 46.26 C99.17 49.52, 86.44 52.04, 74.88 52.41 C63.31 52.79, 49.16 50.48, 38.46 48.54 C27.77 46.6, 16.94 44.49, 10.72 40.77 C4.5 37.05, 1.5 31.04, 1.15 26.22 C0.8 21.4, 3.08 15.98, 8.62 11.86 C14.15 7.74, 28.42 3.36, 34.38 1.48 C40.35 -0.4, 43.02 0.42, 44.4 0.55 C45.79 0.69, 42.3 1.81, 42.69 2.31" stroke="none" stroke-width="0" fill="#ffffff"></path><path d="M93.86 3.41 C104.08 5.09, 115.87 9.29, 121.84 13.01 C127.8 16.73, 129.98 21.3, 129.68 25.74 C129.37 30.18, 126.08 35.64, 120.02 39.66 C113.97 43.68, 103.66 47.95, 93.34 49.85 C83.01 51.76, 69.57 51.56, 58.09 51.08 C46.6 50.6, 33.43 49.56, 24.43 46.99 C15.42 44.43, 7.9 40.26, 4.05 35.68 C0.19 31.11, -1.1 24.24, 1.28 19.53 C3.65 14.83, 9.99 10.72, 18.31 7.45 C26.62 4.18, 39.8 0.97, 51.16 -0.08 C62.51 -1.14, 78.49 0.66, 86.42 1.13 C94.34 1.59, 96.41 2.01, 98.7 2.68 C101 3.35, 100.85 4.71, 100.2 5.17 M61.92 -0.65 C72.65 -1.41, 85.91 -0.11, 95.66 2.3 C105.41 4.71, 114.52 9.8, 120.43 13.8 C126.34 17.79, 131.25 21.56, 131.12 26.29 C130.99 31.02, 126.05 38, 119.65 42.18 C113.25 46.35, 103.28 49.68, 92.75 51.33 C82.21 52.99, 67.81 52.93, 56.45 52.1 C45.09 51.27, 33.34 49.13, 24.59 46.37 C15.85 43.6, 7.68 39.9, 3.99 35.51 C0.3 31.13, -0.46 24.93, 2.44 20.08 C5.33 15.23, 13.15 9.83, 21.36 6.41 C29.57 2.98, 45.08 0.73, 51.72 -0.46 C58.36 -1.66, 59.79 -0.97, 61.2 -0.74 C62.61 -0.51, 60.15 0.35, 60.2 0.9" stroke="#000000" stroke-width="1" fill="none"></path></g><g stroke-linecap="round" transform="translate(1302.2841280722016 716.105263157895) rotate(0 65.26315789473563 35.8947368421052)"><path d="M1.98 0.05 L129.36 0.03 L131.57 70.08 L1.61 70.58" stroke="none" stroke-width="0" fill="#ffffff"></path><path d="M1.86 1.55 C47.41 -0.66, 95.28 2.3, 131.54 -1.7 M0.11 0.16 C31.15 -0.28, 61.48 1.18, 130.89 0.93 M129.93 1.83 C128.35 19.75, 129.41 39.67, 128.77 70.22 M130.39 0.35 C130.32 24.36, 130 46.94, 130.02 70.88 M130.94 73.73 C86.28 72.97, 39.84 71.34, 1.79 72.17 M130.75 72.69 C83.62 72.14, 37.21 72.53, -0.54 71.39 M1.96 69.89 C-1.58 47.68, 0.98 26.55, 1.13 -0.38 M0.52 72.32 C-1.08 44.75, -0.12 17.66, 0.76 -0.04" stroke="transparent" stroke-width="1" fill="none"></path></g><g stroke-linecap="round" transform="translate(1301.6314964932537 690) rotate(0 65.26315789473563 26.10526315789423)"><path d="M83.46 1.76 C94.21 2.62, 106.58 5.77, 114.36 9.18 C122.13 12.6, 128.4 17.87, 130.13 22.27 C131.86 26.67, 129.21 31.58, 124.74 35.59 C120.28 39.61, 112.46 43.61, 103.35 46.36 C94.25 49.12, 81.46 51.66, 70.1 52.12 C58.74 52.57, 45.55 51.27, 35.18 49.09 C24.82 46.9, 13.68 43.16, 7.91 39 C2.14 34.84, -0.15 28.85, 0.58 24.14 C1.3 19.42, 5.83 14.25, 12.26 10.73 C18.69 7.21, 28.9 4.76, 39.18 3.03 C49.45 1.31, 66.04 0.73, 73.92 0.39 C81.81 0.04, 83.91 0.7, 86.48 0.95 C89.04 1.21, 89.71 1.42, 89.31 1.93 M82.26 -0.34 C93.31 0.3, 105.8 4.51, 113.67 7.94 C121.54 11.36, 127.48 15.82, 129.48 20.2 C131.49 24.58, 129.77 29.72, 125.7 34.21 C121.64 38.69, 114.16 44.06, 105.11 47.12 C96.07 50.17, 83.06 52.42, 71.44 52.56 C59.81 52.69, 45.78 50.09, 35.36 47.93 C24.93 45.77, 14.59 43.44, 8.89 39.59 C3.19 35.74, 0.89 29.65, 1.15 24.83 C1.41 20.02, 4.4 14.68, 10.45 10.69 C16.51 6.69, 26.75 2.78, 37.49 0.88 C48.23 -1.02, 67.55 -0.78, 74.89 -0.72 C82.23 -0.65, 80.1 0.98, 81.53 1.26 C82.96 1.55, 83.62 0.53, 83.47 1.02" stroke="none" stroke-width="0" fill="#ffffff"></path><path d="M73.08 0.65 C84.03 0.54, 95.81 2.25, 104.71 4.93 C113.6 7.6, 122.35 12.24, 126.43 16.71 C130.51 21.19, 131.5 27.32, 129.17 31.76 C126.84 36.19, 120.52 39.97, 112.46 43.34 C104.39 46.7, 91.99 50.53, 80.79 51.95 C69.59 53.37, 56.26 53.5, 45.27 51.84 C34.27 50.18, 22.36 45.72, 14.82 41.97 C7.28 38.22, 1.41 33.91, 0.05 29.35 C-1.31 24.79, 1.8 18.82, 6.66 14.62 C11.51 10.42, 19.68 6.73, 29.2 4.15 C38.72 1.57, 54.15 -0.49, 63.79 -0.87 C73.43 -1.24, 80.78 0.98, 87.02 1.89 C93.26 2.8, 101.5 4.17, 101.23 4.59 M59.97 -0.68 C70.39 -1.14, 83.74 1.57, 94.11 3.7 C104.48 5.84, 116.07 8.05, 122.18 12.15 C128.3 16.25, 131.07 23.33, 130.81 28.29 C130.54 33.26, 126.98 38.3, 120.6 41.93 C114.23 45.55, 102.98 48.31, 92.54 50.03 C82.09 51.75, 69.28 52.67, 57.94 52.27 C46.59 51.86, 33.47 50.52, 24.45 47.59 C15.42 44.65, 7.33 39.41, 3.79 34.65 C0.25 29.9, 0.57 23.76, 3.2 19.05 C5.82 14.34, 11.46 9.61, 19.57 6.41 C27.67 3.2, 45.16 0.8, 51.84 -0.2 C58.52 -1.2, 58.15 0.28, 59.62 0.39 C61.09 0.5, 60.23 0.31, 60.66 0.45" stroke="#000000" stroke-width="1" fill="none"></path></g><g stroke-linecap="round"><g transform="translate(1301.828365665935 715.7077037301524) rotate(0 0.33493930983354403 35.95911272091007)"><path d="M0.93 0.26 C0.88 12.17, -0.83 60.55, -0.83 72.57 M-0.04 -0.66 C0.34 11.43, 1.37 59.02, 1.5 70.86" stroke="#000000" stroke-width="1" fill="none"></path></g></g><g stroke-linecap="round"><g transform="translate(1432.3597790987649 716.2216479163894) rotate(0 -0.2909688875863594 35.85706035677072)"><path d="M0.26 -0.73 C0.16 11.19, 0.51 60.59, 0.53 72.45 M-1.07 1.5 C-1.35 13.02, -0.17 59.26, -0.01 70.87" stroke="#000000" stroke-width="1" fill="none"></path></g></g><g transform="translate(1310 759) rotate(0 57 12.5)"><text x="0" y="18" font-family="Virgil, Segoe UI Emoji" font-size="20px" fill="#000000" text-anchor="start" style="white-space: pre;" direction="ltr">PostgreSQL</text></g><g stroke-linecap="round" transform="translate(1295 583.5263157894742) rotate(0 66.8421052631569 26.73684210526278)"><path d="M35.86 2.88 C45.41 0.57, 60.1 0.26, 71.63 0.68 C83.16 1.1, 95.65 2.83, 105.04 5.41 C114.44 8, 123.26 11.93, 128 16.2 C132.74 20.46, 135.17 26.23, 133.5 31 C131.84 35.77, 125.74 41.13, 118.03 44.81 C110.32 48.49, 98.41 51.87, 87.24 53.08 C76.07 54.29, 62.2 53.29, 51 52.05 C39.79 50.8, 28.34 48.86, 19.99 45.59 C11.64 42.32, 3.74 37.09, 0.9 32.44 C-1.95 27.8, -1.03 21.97, 2.92 17.71 C6.87 13.44, 18.3 9.4, 24.6 6.87 C30.9 4.34, 37.08 3.52, 40.71 2.52 C44.34 1.52, 45.75 0.48, 46.37 0.87" stroke="none" stroke-width="0" fill="#ffffff"></path><path d="M87.31 0.38 C98.17 1.12, 109.64 4.93, 117.12 8.65 C124.59 12.37, 130.32 18.18, 132.15 22.69 C133.98 27.21, 132.22 31.62, 128.09 35.75 C123.96 39.89, 116.72 44.68, 107.39 47.5 C98.06 50.32, 83.99 52.18, 72.09 52.67 C60.2 53.15, 46.55 52.51, 36.03 50.42 C25.5 48.33, 15.02 43.95, 8.93 40.12 C2.83 36.3, -0.72 32, -0.53 27.47 C-0.35 22.93, 3.94 17.02, 10.02 12.92 C16.11 8.82, 25.69 5.07, 35.97 2.85 C46.26 0.63, 61.63 -0.33, 71.75 -0.4 C81.86 -0.47, 91.31 1.38, 96.67 2.42 C102.02 3.47, 104.5 5.51, 103.89 5.87" stroke="#000000" stroke-width="2.5" fill="none" stroke-dasharray="1.5 8"></path></g><g stroke-linecap="round" transform="translate(1296.0026315789487 536.7368421052615) rotate(0 66.8421052631569 36.76315789473699)"><path d="M1.22 -1.72 L134.43 -1.09 L133.17 74.82 L0.14 74.47" stroke="none" stroke-width="0" fill="#ffffff"></path><path d="M1.19 0.5 C28.51 1.06, 52.55 -0.51, 132.78 -1.18 M135.47 -1.53 C132.56 23.85, 131.94 50.22, 131.85 72.36 M134.2 71.66 C100.74 71.64, 66.73 74.71, -0.54 72.87 M-1.45 73.64 C-1.8 45.01, 0.47 19.63, -0.28 -0.06" stroke="transparent" stroke-width="2.5" fill="none" stroke-dasharray="1.5 8"></path></g><g stroke-linecap="round" transform="translate(1295.3342105263168 509.9999999999999) rotate(0 66.8421052631569 26.736842105262724)"><path d="M72.57 0.71 C83.58 0.8, 96.51 3, 105.8 5.64 C115.1 8.28, 123.77 12.26, 128.36 16.55 C132.95 20.84, 135.17 26.61, 133.35 31.37 C131.52 36.13, 125.24 41.46, 117.41 45.09 C109.57 48.73, 97.56 52.05, 86.34 53.19 C75.12 54.34, 61.25 53.26, 50.08 51.95 C38.91 50.64, 27.57 48.63, 19.33 45.32 C11.1 42.01, 3.38 36.74, 0.69 32.08 C-1.99 27.41, -0.88 21.59, 3.23 17.35 C7.34 13.11, 16.16 9.42, 25.33 6.63 C34.5 3.85, 50.02 1.88, 58.24 0.65 C66.45 -0.58, 71.35 -0.83, 74.61 -0.75 C77.87 -0.67, 77.91 0.48, 77.8 1.15" stroke="none" stroke-width="0" fill="#ffffff"></path><path d="M90.29 1.24 C100.78 2.65, 111.97 7.16, 119.02 10.76 C126.06 14.36, 131.04 18.39, 132.55 22.84 C134.07 27.28, 133.06 33.17, 128.12 37.44 C123.19 41.71, 112.99 45.81, 102.94 48.45 C92.89 51.09, 79.6 53.16, 67.82 53.3 C56.03 53.43, 42.3 51.44, 32.22 49.24 C22.14 47.05, 12.69 44.1, 7.34 40.12 C1.99 36.13, -0.52 30.14, 0.14 25.34 C0.79 20.55, 4.7 15.3, 11.27 11.35 C17.84 7.4, 28.57 3.55, 39.56 1.66 C50.55 -0.23, 67.2 -0.4, 77.23 0.02 C87.25 0.44, 94.59 3.2, 99.7 4.18 C104.82 5.15, 108.56 5.58, 107.94 5.87" stroke="#000000" stroke-width="2.5" fill="none" stroke-dasharray="1.5 8"></path></g><g stroke-linecap="round"><g transform="translate(1295.35503129077 536.4213481942506) rotate(0 0.5967522309673541 36.70991930579237)"><path d="M0.3 0.86 C0.36 12.83, 0.95 60.54, 0.89 72.56" stroke="#000000" stroke-width="2.5" fill="none" stroke-dasharray="1.5 8"></path></g></g><g stroke-linecap="round"><g transform="translate(1429.030923813056 537.0346424339909) rotate(0 -0.183054634609789 37.086158397488646)"><path d="M0.86 0.99 C0.54 13.14, -0.95 61.28, -1.22 73.18" stroke="#000000" stroke-width="2.5" fill="none" stroke-dasharray="1.5 8"></path></g></g><g transform="translate(1314 578) rotate(0 49.5 12.5)"><text x="0" y="18" font-family="Virgil, Segoe UI Emoji" font-size="20px" fill="#000000" text-anchor="start" style="white-space: pre;" direction="ltr">SQLserver</text></g><g stroke-linecap="round" transform="translate(30 324) rotate(0 79.5 26)"><path d="M98.67 1.61 C110.97 2.21, 125.05 4.57, 134.47 7.44 C143.89 10.31, 151.34 14.93, 155.19 18.84 C159.05 22.75, 160.19 26.89, 157.59 30.89 C154.99 34.89, 148.27 39.6, 139.6 42.83 C130.92 46.06, 117.96 48.69, 105.55 50.25 C93.14 51.82, 78.01 53.08, 65.16 52.22 C52.31 51.36, 38.43 47.98, 28.44 45.11 C18.46 42.24, 9.98 38.74, 5.23 34.98 C0.48 31.23, -1.88 26.59, -0.06 22.6 C1.77 18.6, 7.9 14.43, 16.18 11.01 C24.46 7.59, 37.44 3.92, 49.61 2.09 C61.78 0.26, 80.08 0.29, 89.18 0.03 C98.28 -0.23, 101.03 0.1, 104.21 0.52 C107.38 0.93, 108.51 2.11, 108.23 2.5" stroke="none" stroke-width="0" fill="#be4bdb"></path><path d="M74.9 -0.17 C87.27 -0.84, 103.53 0.25, 115.07 2.17 C126.61 4.08, 136.77 7.64, 144.15 11.32 C151.53 15.01, 158.15 19.93, 159.32 24.26 C160.49 28.59, 156.57 33.66, 151.18 37.3 C145.79 40.94, 137.25 43.54, 126.98 46.1 C116.72 48.66, 102.4 52.15, 89.59 52.67 C76.77 53.18, 62.24 50.88, 50.11 49.19 C37.98 47.49, 25.03 45.84, 16.82 42.51 C8.62 39.18, 2.76 33.43, 0.87 29.2 C-1.02 24.98, 1.08 21.03, 5.47 17.16 C9.85 13.29, 17.51 8.8, 27.19 5.99 C36.88 3.19, 52.83 1.12, 63.57 0.31 C74.31 -0.49, 84.56 0.8, 91.64 1.16 C98.72 1.51, 106.26 2.19, 106.07 2.47" stroke="#000000" stroke-width="2.5" fill="none" stroke-dasharray="1.5 8"></path></g><g transform="translate(61.5 337) rotate(0 49.5 12.5)"><text x="0" y="18" font-family="Virgil, Segoe UI Emoji" font-size="20px" fill="#000000" text-anchor="start" style="white-space: pre;" direction="ltr">j.subscribe</text></g><g stroke-linecap="round"><g transform="translate(769.6492092603817 591.8002078878508) rotate(0 101.1233135190048 -1.2994028498791295)"><path d="M1.19 -0.49 C34.31 -0.99, 166.32 -1.88, 199.59 -2.1 M0.35 -1.8 C33.78 -2.2, 168.58 -0.94, 201.9 -0.73" stroke="#000000" stroke-width="1" fill="none"></path></g><g transform="translate(769.6492092603817 591.8002078878508) rotate(0 101.1233135190048 -1.2994028498791295)"><path d="M172.8 8.04 C183.58 6.04, 194.58 -0.04, 202.58 -2.72 M172.83 10.05 C183.17 6.76, 192.83 2.04, 201.86 0.16" stroke="#000000" stroke-width="1" fill="none"></path></g><g transform="translate(769.6492092603817 591.8002078878508) rotate(0 101.1233135190048 -1.2994028498791295)"><path d="M172.96 -12.48 C183.83 -6.83, 194.77 -5.27, 202.58 -2.72 M172.99 -10.47 C183.13 -6.87, 192.74 -4.69, 201.86 0.16" stroke="#000000" stroke-width="1" fill="none"></path></g></g><g transform="translate(790 568) rotate(0 83 37.5)"><text x="83" y="18" font-family="Virgil, Segoe UI Emoji" font-size="20px" fill="#000000" text-anchor="middle" style="white-space: pre;" direction="ltr">Polling</text><text x="83" y="43" font-family="Virgil, Segoe UI Emoji" font-size="20px" fill="#000000" text-anchor="middle" style="white-space: pre;" direction="ltr">(PipeLine syntax)</text><text x="83" y="68" font-family="Virgil, Segoe UI Emoji" font-size="20px" fill="#000000" text-anchor="middle" style="white-space: pre;" direction="ltr"></text></g><g stroke-linecap="round"><g transform="translate(969 470) rotate(0 -99.5 0)"><path d="M0 0 C-72.47 0, -144.94 0, -199 0 M0 0 C-61.01 0, -122.02 0, -199 0" stroke="#000000" stroke-width="2" fill="none"></path></g><g transform="translate(969 470) rotate(0 -99.5 0)"><path d="M-170.81 -10.26 C-181.08 -6.52, -191.34 -2.79, -199 0 M-170.81 -10.26 C-179.45 -7.11, -188.09 -3.97, -199 0" stroke="#000000" stroke-width="2" fill="none"></path></g><g transform="translate(969 470) rotate(0 -99.5 0)"><path d="M-170.81 10.26 C-181.08 6.52, -191.34 2.79, -199 0 M-170.81 10.26 C-179.45 7.11, -188.09 3.97, -199 0" stroke="#000000" stroke-width="2" fill="none"></path></g></g><g transform="translate(814 447) rotate(0 62 37.5)"><text x="0" y="18" font-family="Virgil, Segoe UI Emoji" font-size="20px" fill="#000000" text-anchor="start" style="white-space: pre;" direction="ltr">Notifications</text><text x="0" y="43" font-family="Virgil, Segoe UI Emoji" font-size="20px" fill="#000000" text-anchor="start" style="white-space: pre;" direction="ltr">- Native</text><text x="0" y="68" font-family="Virgil, Segoe UI Emoji" font-size="20px" fill="#000000" text-anchor="start" style="white-space: pre;" direction="ltr">- Http2.0</text></g><g stroke-linecap="round" transform="translate(1250 290) rotate(0 102 279)"><path d="M0 0 C61.52 0, 123.05 0, 204 0 M0 0 C61.21 0, 122.43 0, 204 0 M204 0 C204 202.61, 204 405.22, 204 558 M204 0 C204 177.51, 204 355.01, 204 558 M204 558 C142.7 558, 81.4 558, 0 558 M204 558 C153.48 558, 102.95 558, 0 558 M0 558 C0 418.17, 0 278.34, 0 0 M0 558 C0 339.49, 0 120.98, 0 0" stroke="#000000" stroke-width="2" fill="none"></path></g><g transform="translate(1277 290) rotate(0 75.5 12.5)"><text x="75.5" y="18" font-family="Virgil, Segoe UI Emoji" font-size="20px" fill="#000000" text-anchor="middle" style="white-space: pre;" direction="ltr">Store-interface</text></g><g transform="translate(410 290) rotate(0 63.5 12.5)"><text x="63.5" y="18" font-family="Virgil, Segoe UI Emoji" font-size="20px" fill="#000000" text-anchor="middle" style="white-space: pre;" direction="ltr">FactManager</text></g><g transform="translate(810 788) rotate(0 56 12.5)"><text x="0" y="18" font-family="Virgil, Segoe UI Emoji" font-size="20px" fill="#000000" text-anchor="start" style="white-space: pre;" direction="ltr">Save facts</text></g><g stroke-linecap="round" transform="translate(970 10) rotate(0 260 430)"><path d="M0 0 C200.11 0, 400.21 0, 520 0 M0 0 C169.88 0, 339.76 0, 520 0 M520 0 C520 217.14, 520 434.28, 520 860 M520 0 C520 289.23, 520 578.45, 520 860 M520 860 C378.52 860, 237.04 860, 0 860 M520 860 C326.47 860, 132.95 860, 0 860 M0 860 C0 633.47, 0 406.94, 0 0 M0 860 C0 517.33, 0 174.66, 0 0" stroke="#495057" stroke-width="4" fill="none"></path></g><g transform="translate(1070 10) rotate(0 162.5 12.5)"><text x="0" y="18" font-family="Virgil, Segoe UI Emoji" font-size="20px" fill="#000000" text-anchor="start" style="white-space: pre;" direction="ltr">Jinaga.JS - server (up &amp; running)</text></g><g transform="translate(1070 50) rotate(0 167.5 12.5)"><text x="0" y="18" font-family="Virgil, Segoe UI Emoji" font-size="20px" fill="#000000" text-anchor="start" style="white-space: pre;" direction="ltr">Jinaga.NET - server (coming soon)</text></g><g transform="translate(550 797) rotate(0 29.5 12.5)"><text x="0" y="18" font-family="Virgil, Segoe UI Emoji" font-size="20px" fill="#000000" text-anchor="start" style="white-space: pre;" direction="ltr">Queue</text></g><g stroke-linecap="round" transform="translate(490 790) rotate(0 90 20)"><path d="M0 0 C63.06 0, 126.12 0, 180 0 M0 0 C53.51 0, 107.02 0, 180 0 M180 0 C180 11.6, 180 23.2, 180 40 M180 0 C180 13.67, 180 27.34, 180 40 M180 40 C114.79 40, 49.58 40, 0 40 M180 40 C143.76 40, 107.52 40, 0 40 M0 40 C0 31, 0 22, 0 0 M0 40 C0 25.6, 0 11.2, 0 0" stroke="#000000" stroke-width="2" fill="none"></path></g><g stroke-linecap="round" transform="translate(210 290) rotate(0 260 280)"><path d="M0.49 -0.18 C131.24 1.74, 263.49 0.61, 519.33 0.05 M-0.36 0.36 C109.35 -1, 219.45 -1.4, 519.64 -0.36 M519.35 -0.55 C520.44 135.78, 520.11 273.1, 519.21 560.53 M520.17 -0.29 C520.91 116.34, 521.46 231.93, 520.34 559.73 M519.34 559.3 C317.07 560.47, 112.5 561.42, -0.48 560.11 M520.38 559.66 C404.66 562.02, 289.7 562, 0.2 559.78 M0.41 560.5 C1.22 435.2, 1.91 309.39, 0.63 -0.68 M0.2 559.73 C-1.54 410.52, -1.88 261.25, 0.08 -0.22" stroke="#000000" stroke-width="1" fill="none"></path></g><g transform="translate(470.5 467.5) rotate(270 39 12.5)"><text x="39" y="18" font-family="Virgil, Segoe UI Emoji" font-size="20px" fill="#000000" text-anchor="middle" style="white-space: pre;" direction="ltr">QueryAll</text></g><g stroke-linecap="round" transform="translate(490 430) rotate(0 20 50)"><path d="M0 0 C13.71 0, 27.43 0, 40 0 M0 0 C13.86 0, 27.71 0, 40 0 M40 0 C40 38.67, 40 77.34, 40 100 M40 0 C40 22.75, 40 45.5, 40 100 M40 100 C31.15 100, 22.3 100, 0 100 M40 100 C27.81 100, 15.63 100, 0 100 M0 100 C0 73.08, 0 46.17, 0 0 M0 100 C0 60.45, 0 20.9, 0 0" stroke="#000000" stroke-width="2" fill="none"></path></g><g transform="translate(790 330) rotate(0 83 37.5)"><text x="83" y="18" font-family="Virgil, Segoe UI Emoji" font-size="20px" fill="#000000" text-anchor="middle" style="white-space: pre;" direction="ltr">Subscribing</text><text x="83" y="43" font-family="Virgil, Segoe UI Emoji" font-size="20px" fill="#000000" text-anchor="middle" style="white-space: pre;" direction="ltr">(PipeLine syntax)</text><text x="83" y="68" font-family="Virgil, Segoe UI Emoji" font-size="20px" fill="#000000" text-anchor="middle" style="white-space: pre;" direction="ltr"></text></g><g stroke-linecap="round"><g transform="translate(580 751) rotate(0 0 19)"><path d="M0 0 C0 12.02, 0 24.04, 0 38" stroke="#000000" stroke-width="2.5" fill="none" stroke-dasharray="1.5 8"></path></g><g transform="translate(580 751) rotate(0 0 19)"><path d="M-6.5 20.15 C-4.44 25.79, -2.39 31.44, 0 38" stroke="#000000" stroke-width="2.5" fill="none" stroke-dasharray="1.5 6"></path></g><g transform="translate(580 751) rotate(0 0 19)"><path d="M6.5 20.15 C4.44 25.79, 2.39 31.44, 0 38" stroke="#000000" stroke-width="2.5" fill="none" stroke-dasharray="1.5 6"></path></g></g><g stroke-linecap="round" transform="translate(1050 380) rotate(0 50 30)"><path d="M1.44 -1.79 L99.31 -0.21 L99.06 59.55 L-1.49 60.99" stroke="none" stroke-width="0" fill="#ffffff"></path><path d="M0.97 0.08 C25.08 1.75, 46 -1.44, 98.94 0.41 M0.29 0.47 C36.95 0.43, 73.5 -0.14, 100.53 -0.43 M99.69 -1.87 C99.26 22.83, 98.17 49.22, 98.87 60.16 M100.35 -0.02 C100.24 16.69, 100.22 33.43, 100.73 59.37 M100.78 61.99 C64.64 59.4, 24.77 59.82, 0.36 59.38 M99.7 59.07 C75.43 60.3, 51.64 60.12, -0.36 60.7 M0.81 58.29 C1.98 36.93, 0.72 17.54, 1.34 1.4 M-0.98 59.07 C-0.82 38.77, -0.44 18.05, 0.69 -0.14" stroke="#000000" stroke-width="1" fill="none"></path></g><g transform="translate(1060 384) rotate(0 40.5 25)"><text x="40.5" y="18" font-family="Virgil, Segoe UI Emoji" font-size="20px" fill="#000000" text-anchor="middle" style="white-space: pre;" direction="ltr">Pipeline</text><text x="40.5" y="43" font-family="Virgil, Segoe UI Emoji" font-size="20px" fill="#000000" text-anchor="middle" style="white-space: pre;" direction="ltr">Inverter</text></g><g stroke-linecap="round"><g transform="translate(769.7524353596159 809.8807096190906) rotate(0 99.62378232019205 0.059347333197024454)"><path d="M0 0 C54.87 0.03, 109.74 0.07, 199.25 0.12 M0 0 C52.71 0.03, 105.43 0.06, 199.25 0.12" stroke="#000000" stroke-width="2" fill="none"></path></g><g transform="translate(769.7524353596159 809.8807096190906) rotate(0 99.62378232019205 0.059347333197024454)"><path d="M171.05 10.36 C178.82 7.54, 186.58 4.72, 199.25 0.12 M171.05 10.36 C178.51 7.65, 185.97 4.94, 199.25 0.12" stroke="#000000" stroke-width="2" fill="none"></path></g><g transform="translate(769.7524353596159 809.8807096190906) rotate(0 99.62378232019205 0.059347333197024454)"><path d="M171.06 -10.16 C178.82 -7.33, 186.59 -4.5, 199.25 0.12 M171.06 -10.16 C178.52 -7.44, 185.98 -4.72, 199.25 0.12" stroke="#000000" stroke-width="2" fill="none"></path></g></g><g stroke-linecap="round" transform="translate(30 684) rotate(0 79.5 26)"><path d="M95.68 0.3 C108.11 0.69, 121.66 3.43, 131.27 6.22 C140.88 9.02, 148.85 13.04, 153.32 17.06 C157.79 21.07, 160.04 25.98, 158.06 30.32 C156.09 34.65, 149.68 39.63, 141.48 43.05 C133.29 46.47, 120.77 49.39, 108.9 50.85 C97.03 52.31, 83.19 52.41, 70.27 51.81 C57.34 51.2, 41.82 49.71, 31.37 47.19 C20.91 44.68, 12.67 40.52, 7.54 36.71 C2.41 32.91, -0.39 28.67, 0.59 24.36 C1.56 20.06, 6.01 14.43, 13.39 10.88 C20.77 7.34, 33.24 4.87, 44.89 3.08 C56.53 1.3, 74.04 0.64, 83.27 0.17 C92.5 -0.31, 96.34 -0.26, 100.26 0.23 C104.18 0.73, 106.89 2.69, 106.79 3.14 M43.4 2.87 C53.9 0.82, 70.24 -0.35, 83.28 -0.18 C96.31 0, 110.84 1.83, 121.6 3.9 C132.36 5.97, 141.72 8.47, 147.83 12.25 C153.94 16.03, 158.3 22.32, 158.29 26.58 C158.27 30.84, 153.73 34.17, 147.74 37.81 C141.74 41.45, 133.17 46.18, 122.32 48.42 C111.47 50.66, 95.83 51.21, 82.63 51.27 C69.42 51.34, 54.66 50.64, 43.07 48.8 C31.49 46.97, 20.15 43.72, 13.14 40.26 C6.12 36.8, 1.97 32.07, 0.98 28.05 C-0.01 24.03, 1.82 20.18, 7.19 16.14 C12.56 12.1, 27.21 6.23, 33.2 3.81 C39.18 1.38, 41.48 1.66, 43.11 1.59 C44.73 1.51, 42.57 2.84, 42.93 3.36" stroke="none" stroke-width="0" fill="#12b886"></path><path d="M110.47 1.42 C122.17 2.69, 134.51 6.66, 142.53 10.34 C150.55 14.01, 156.71 19.24, 158.58 23.48 C160.46 27.72, 158.73 31.95, 153.79 35.77 C148.85 39.58, 139 43.7, 128.97 46.36 C118.94 49.02, 106.32 50.87, 93.6 51.71 C80.87 52.56, 64.99 52.92, 52.6 51.42 C40.21 49.92, 27.87 46.03, 19.26 42.73 C10.65 39.42, 3.45 35.66, 0.94 31.61 C-1.57 27.56, 0.03 22.64, 4.21 18.44 C8.39 14.23, 16.53 9.34, 26.04 6.37 C35.55 3.4, 48.88 1.53, 61.27 0.62 C73.66 -0.3, 91.03 0.54, 100.39 0.89 C109.75 1.25, 113.61 2.13, 117.42 2.75 C121.23 3.38, 123.82 4.06, 123.24 4.66 M49.2 1.8 C60.17 0.05, 75.02 0.6, 87.53 1.14 C100.03 1.67, 113.45 2.93, 124.22 5.01 C134.99 7.09, 146.19 9.75, 152.14 13.63 C158.09 17.52, 160.72 24.06, 159.92 28.29 C159.12 32.53, 154.47 35.41, 147.35 39.02 C140.22 42.63, 129.06 47.77, 117.15 49.97 C105.24 52.17, 89.04 52.4, 75.86 52.24 C62.69 52.08, 48.96 51.09, 38.09 48.99 C27.22 46.89, 17.12 43.45, 10.66 39.63 C4.19 35.82, -0.85 30.33, -0.7 26.11 C-0.54 21.88, 5.06 17.86, 11.57 14.27 C18.08 10.68, 32.22 6.72, 38.37 4.57 C44.52 2.41, 46.62 1.81, 48.49 1.35 C50.36 0.89, 48.94 1.32, 49.59 1.82" stroke="#000000" stroke-width="1" fill="none"></path></g><g transform="translate(79 697) rotate(0 28 12.5)"><text x="0" y="18" font-family="Virgil, Segoe UI Emoji" font-size="20px" fill="#000000" text-anchor="start" style="white-space: pre;" direction="ltr">j.fact</text></g><g stroke-linecap="round"><g transform="translate(168.11677574441268 609.7510024553901) rotate(0 161.1010619845011 0.021812307110053553)"><path d="M0.25 -0.92 C96.99 -1.26, 196.11 -0.22, 321.98 1.03 M0.22 -0.2 C75.96 0.86, 153.98 1.7, 321.23 -0.05" stroke="#364fc7" stroke-width="1" fill="none"></path></g><g transform="translate(168.11677574441268 609.7510024553901) rotate(0 161.1010619845011 0.021812307110053553)"><path d="M293.47 9.1 C300.71 7.11, 311.42 5.25, 322.8 0.88 M293.42 10.14 C298.87 7.16, 307.55 5.74, 321.72 -0.66" stroke="#364fc7" stroke-width="1" fill="none"></path></g><g transform="translate(168.11677574441268 609.7510024553901) rotate(0 161.1010619845011 0.021812307110053553)"><path d="M293.32 -11.42 C300.73 -7.17, 311.49 -2.79, 322.8 0.88 M293.28 -10.38 C298.67 -8.46, 307.39 -4.97, 321.72 -0.66" stroke="#364fc7" stroke-width="1" fill="none"></path></g></g><g stroke-linecap="round"><g transform="translate(489 573.960145760906) rotate(0 -161.75964232940942 -2.0319451766906695)"><path d="M0.42 0.87 C-116.19 -1.85, -232.92 -4.13, -322.44 -4.25 M0.1 0.08 C-79.99 -2.08, -161.46 -2.21, -323.94 -4.93" stroke="#364fc7" stroke-width="4" fill="none"></path></g><g transform="translate(489 573.960145760906) rotate(0 -161.75964232940942 -2.0319451766906695)"><path d="M-294.99 -13.52 C-306.21 -10.06, -317.49 -7.41, -322.28 -4.32 M-295.46 -14.66 C-302.05 -13.12, -310.62 -9.18, -324.45 -5.29" stroke="#364fc7" stroke-width="4" fill="none"></path></g><g transform="translate(489 573.960145760906) rotate(0 -161.75964232940942 -2.0319451766906695)"><path d="M-295.3 7 C-306.26 3.1, -317.43 -1.59, -322.28 -4.32 M-295.76 5.86 C-302.25 2.3, -310.73 1.14, -324.45 -5.29" stroke="#364fc7" stroke-width="4" fill="none"></path></g></g><g stroke-linecap="round"><g transform="translate(144.75522892790167 491.0565851769421) rotate(0 172.77913931845674 -0.7381764157145767)"><path d="M1.19 -0.67 C101.8 -1.66, 206.08 -2.06, 344.84 -1.48 M-0.15 0.27 C100.97 -2.27, 201.89 -2.12, 345.71 -0.5" stroke="#e67700" stroke-width="1" fill="none"></path></g><g transform="translate(144.75522892790167 491.0565851769421) rotate(0 172.77913931845674 -0.7381764157145767)"><path d="M319.24 8.49 C324.29 7.26, 334.85 4.15, 345.09 -1.13 M317.2 9.93 C326.06 5.63, 334.58 3.4, 346.41 0.35" stroke="#e67700" stroke-width="1" fill="none"></path></g><g transform="translate(144.75522892790167 491.0565851769421) rotate(0 172.77913931845674 -0.7381764157145767)"><path d="M319.42 -12.03 C324.24 -7.14, 334.74 -4.14, 345.09 -1.13 M317.38 -10.59 C326.08 -8.91, 334.54 -5.14, 346.41 0.35" stroke="#e67700" stroke-width="1" fill="none"></path></g></g><g stroke-linecap="round"><g transform="translate(490 450) rotate(0 -160.8597383871288 0.04964046290029955)"><path d="M-0.64 0.42 C-104.88 0.65, -206.92 -0.17, -320.4 -0.84 M-0.06 0.37 C-120.11 1.27, -241.14 1.18, -321.66 -0.46" stroke="#e67700" stroke-width="4" fill="none"></path></g><g transform="translate(490 450) rotate(0 -160.8597383871288 0.04964046290029955)"><path d="M-294.25 -9.75 C-304.21 -6.15, -310.95 -4.13, -320.75 -1.66 M-293.42 -9.82 C-303.77 -6.71, -315.5 -3.13, -322.56 -1.12" stroke="#e67700" stroke-width="4" fill="none"></path></g><g transform="translate(490 450) rotate(0 -160.8597383871288 0.04964046290029955)"><path d="M-294.52 10.76 C-304.25 7.74, -310.9 3.13, -320.75 -1.66 M-293.69 10.7 C-303.91 6.13, -315.54 2.02, -322.56 -1.12" stroke="#e67700" stroke-width="4" fill="none"></path></g></g><g stroke-linecap="round"><g transform="translate(190 350) rotate(0 289.72618650272494 0.38618179379813)"><path d="M0 0.23 C118.36 0.94, 235.62 0.17, 579.45 0.46" stroke="#862e9c" stroke-width="4.5" fill="none" stroke-dasharray="1.5 10"></path></g><g transform="translate(190 350) rotate(0 289.72618650272494 0.38618179379813)"><path d="M551.26 11.3 C557.76 10.2, 561.61 6.19, 578.08 1.63" stroke="#862e9c" stroke-width="4.5" fill="none" stroke-dasharray="1.5 8"></path></g><g transform="translate(190 350) rotate(0 289.72618650272494 0.38618179379813)"><path d="M551.26 -9.22 C557.88 -6.15, 561.73 -5.98, 578.08 1.63" stroke="#862e9c" stroke-width="4.5" fill="none" stroke-dasharray="1.5 8"></path></g></g><g stroke-linecap="round"><g transform="translate(250 450) rotate(0 -24.91725560836494 0.18143632741691818)"><path d="M1.49 1.48 C-11.9 1.96, -23.27 -0.7, -51.33 -1.17 M-0.84 0.32 C-10.46 0.95, -21.4 -0.82, -50.77 -0.15" stroke="#e67700" stroke-width="4" fill="none"></path></g><g transform="translate(250 450) rotate(0 -24.91725560836494 0.18143632741691818)"><path d="M-25.81 -7.3 C-32.69 -4.8, -37.52 -5.34, -52.1 -1.32 M-28.15 -8.46 C-32.38 -6.16, -37.9 -6.16, -51.54 -0.3" stroke="#e67700" stroke-width="4" fill="none"></path></g><g transform="translate(250 450) rotate(0 -24.91725560836494 0.18143632741691818)"><path d="M-25.76 9.8 C-32.61 8.09, -37.46 3.34, -52.1 -1.32 M-28.09 8.64 C-32.26 7.45, -37.79 3.95, -51.54 -0.3" stroke="#e67700" stroke-width="4" fill="none"></path></g></g><g stroke-linecap="round" transform="translate(310 560) rotate(0 50 30)"><path d="M0.4 -0.04 L98.23 1.75 L101.81 58.98 L-1.65 60.98" stroke="none" stroke-width="0" fill="#ffffff"></path><path d="M-0.36 1.4 C21.91 2.74, 44.22 2.05, 101.26 0.36 M0.64 0.69 C24.19 0.44, 46.2 -0.45, 99.37 0.31 M101.93 0.29 C100.38 15.1, 99.03 31.47, 98.15 61.17 M100.62 -0.19 C100.37 12.96, 99.93 28.26, 100.31 59.49 M100.23 61.22 C70.26 58.32, 44.99 59.13, -0.73 60.61 M100.18 59.06 C64.74 59.75, 29.06 60.01, 0.89 60.62 M-1.93 58.35 C1.29 45.74, 0.43 26.93, -0.11 1.14 M-0.58 59.59 C0.96 45.16, 0.42 30.15, -0.22 -0.96" stroke="#000000" stroke-width="1" fill="none"></path></g><g transform="translate(322 565) rotate(0 38 25)"><text x="38" y="18" font-family="Virgil, Segoe UI Emoji" font-size="20px" fill="#000000" text-anchor="middle" style="white-space: pre;" direction="ltr">Pipeline</text><text x="38" y="43" font-family="Virgil, Segoe UI Emoji" font-size="20px" fill="#000000" text-anchor="middle" style="white-space: pre;" direction="ltr">Compiler</text></g><g stroke-linecap="round" transform="translate(354 439) rotate(0 50 30)"><path d="M0.49 0.53 L101.88 -1.68 L100.47 60.38 L0.45 61.88" stroke="none" stroke-width="0" fill="#ffffff"></path><path d="M1.45 0.46 C19.09 1.06, 41.32 0.81, 101.23 -1.25 M-0.18 0.8 C32.85 0.25, 66.32 0.49, 99.11 -0.99 M99.94 -1.13 C99.44 18.19, 98.26 35.78, 100.89 60.92 M100.88 -0.83 C100.26 15.72, 101.06 31.9, 100.4 59.85 M101.9 60.6 C66.38 60.54, 33.48 60.87, -0.45 60.82 M100.69 59.28 C68.96 60.12, 38.52 60.54, 0.78 59.59 M1.34 61.26 C1.58 46.28, 0 35.21, 0.55 0.58 M-0.18 59.17 C-0.6 45.81, 0.73 30.3, 0.04 -0.63" stroke="#000000" stroke-width="1" fill="none"></path></g><g transform="translate(364 443) rotate(0 40.5 25)"><text x="40.5" y="18" font-family="Virgil, Segoe UI Emoji" font-size="20px" fill="#000000" text-anchor="middle" style="white-space: pre;" direction="ltr">Pipeline</text><text x="40.5" y="43" font-family="Virgil, Segoe UI Emoji" font-size="20px" fill="#000000" text-anchor="middle" style="white-space: pre;" direction="ltr">Inverter</text></g><g stroke-linecap="round" transform="translate(234 439) rotate(0 50 30)"><path d="M-0.98 -1.83 L99.64 -0.09 L101.27 59.32 L1.67 59.06" stroke="none" stroke-width="0" fill="#ffffff"></path><path d="M-1.52 -0.11 C29.99 0.93, 60.58 1.17, 98.82 -0.91 M-0.82 -0.43 C33.83 -0.83, 69.51 -0.3, 100.45 -0.53 M98.56 -0.38 C97.99 22.83, 101.61 44.05, 100.15 59.6 M99.75 -0.69 C99.81 20.96, 99.79 39.5, 99.24 60.43 M98.62 60.38 C58.84 61.04, 20.67 59.91, 1.47 60.08 M99.56 60.72 C74.19 61.03, 45.9 60.78, -0.09 59.01 M-1.51 61.78 C-1.68 46.1, 1.73 36.24, -0.22 1.44 M0.18 59.74 C-0.6 38.09, 0.66 16.36, 0.79 0.4" stroke="#000000" stroke-width="1" fill="none"></path></g><g transform="translate(246 444) rotate(0 38 25)"><text x="38" y="18" font-family="Virgil, Segoe UI Emoji" font-size="20px" fill="#000000" text-anchor="middle" style="white-space: pre;" direction="ltr">Pipeline</text><text x="38" y="43" font-family="Virgil, Segoe UI Emoji" font-size="20px" fill="#000000" text-anchor="middle" style="white-space: pre;" direction="ltr">Compiler</text></g><g stroke-linecap="round"><g transform="translate(670 810) rotate(0 50 0)"><path d="M0 0 C20.88 0, 41.76 0, 100 0" stroke="#000000" stroke-width="2.5" fill="none" stroke-dasharray="1.5 8"></path></g><g transform="translate(670 810) rotate(0 50 0)"><path d="M71.81 10.26 C77.7 8.12, 83.58 5.98, 100 0" stroke="#000000" stroke-width="2.5" fill="none" stroke-dasharray="1.5 6"></path></g><g transform="translate(670 810) rotate(0 50 0)"><path d="M71.81 -10.26 C77.7 -8.12, 83.58 -5.98, 100 0" stroke="#000000" stroke-width="2.5" fill="none" stroke-dasharray="1.5 6"></path></g></g><g stroke-linecap="round"><g transform="translate(670 590) rotate(0 50 0)"><path d="M0 0 C38.77 0, 77.53 0, 100 0" stroke="#000000" stroke-width="2.5" fill="none" stroke-dasharray="1.5 8"></path></g><g transform="translate(670 590) rotate(0 50 0)"><path d="M28.19 -10.26 C17.26 -6.28, 6.33 -2.31, 0 0" stroke="#000000" stroke-width="2.5" fill="none" stroke-dasharray="1.5 6"></path></g><g transform="translate(670 590) rotate(0 50 0)"><path d="M28.19 10.26 C17.26 6.28, 6.33 2.31, 0 0" stroke="#000000" stroke-width="2.5" fill="none" stroke-dasharray="1.5 6"></path></g><g transform="translate(670 590) rotate(0 50 0)"><path d="M71.81 10.26 C82.74 6.28, 93.67 2.31, 100 0" stroke="#000000" stroke-width="2.5" fill="none" stroke-dasharray="1.5 6"></path></g><g transform="translate(670 590) rotate(0 50 0)"><path d="M71.81 -10.26 C82.74 -6.28, 93.67 -2.31, 100 0" stroke="#000000" stroke-width="2.5" fill="none" stroke-dasharray="1.5 6"></path></g></g><g stroke-linecap="round"><g transform="translate(770 470) rotate(0 -50 0)"><path d="M0 0 C-23.15 0, -46.3 0, -100 0" stroke="#000000" stroke-width="2.5" fill="none" stroke-dasharray="1.5 8"></path></g><g transform="translate(770 470) rotate(0 -50 0)"><path d="M-71.81 -10.26 C-78.34 -7.89, -84.86 -5.51, -100 0" stroke="#000000" stroke-width="2.5" fill="none" stroke-dasharray="1.5 6"></path></g><g transform="translate(770 470) rotate(0 -50 0)"><path d="M-71.81 10.26 C-78.34 7.89, -84.86 5.51, -100 0" stroke="#000000" stroke-width="2.5" fill="none" stroke-dasharray="1.5 6"></path></g></g><g stroke-linecap="round"><g transform="translate(770 350) rotate(0 99.8626414991636 0.7251720981113863)"><path d="M0.26 0.52 C33.66 0.69, 167.32 0.19, 200.78 0.11 M-1.06 -0.25 C32.22 0.21, 166.6 1.44, 200.25 1.7" stroke="#000000" stroke-width="1" fill="none"></path></g><g transform="translate(770 350) rotate(0 99.8626414991636 0.7251720981113863)"><path d="M172.84 13.03 C181.61 10.08, 190.85 4.62, 200.14 2.83 M171.24 12.18 C178.32 9.8, 185.38 6.85, 200.49 2.55" stroke="#000000" stroke-width="1" fill="none"></path></g><g transform="translate(770 350) rotate(0 99.8626414991636 0.7251720981113863)"><path d="M173.01 -7.49 C181.58 -3.63, 190.76 -2.28, 200.14 2.83 M171.42 -8.34 C178.46 -5.57, 185.47 -3.37, 200.49 2.55" stroke="#000000" stroke-width="1" fill="none"></path></g></g><g transform="translate(1124.5 481.5) rotate(270 85 12.5)"><text x="85" y="18" font-family="Virgil, Segoe UI Emoji" font-size="20px" fill="#000000" text-anchor="middle" style="white-space: pre;" direction="ltr">Distribution rules</text></g><g transform="translate(1115.676007736122 731.523243377027) rotate(270.10729534183 94 12.5)"><text x="0" y="18" font-family="Virgil, Segoe UI Emoji" font-size="20px" fill="#000000" text-anchor="start" style="white-space: pre;" direction="ltr">Authorzation Rules</text></g><g stroke-linecap="round"><g transform="translate(1230 590) rotate(0 10 0)"><path d="M0 0 C6.37 0, 12.75 0, 20 0 M0 0 C4.08 0, 8.16 0, 20 0" stroke="#000000" stroke-width="2" fill="none"></path></g></g><g stroke-linecap="round"><g transform="translate(1230.0000000000005 809.9999999999998) rotate(0 9.499999999999773 1.1368683772161603e-13)"><path d="M0 0 C4.91 0, 9.82 0, 19 0 M0 0 C6.46 0, 12.93 0, 19 0" stroke="#000000" stroke-width="2" fill="none"></path></g></g><g stroke-linecap="round"><g transform="translate(1050 430) rotate(0 -40.19910509970589 19.59992124580225)"><path d="M0 0 C-12.51 -0.19, -25.01 -0.39, -39.96 -0.62 M-39.96 -0.62 C-39.82 12.73, -39.68 26.08, -39.53 39.82 M-39.53 39.82 C-54.2 39.66, -68.88 39.51, -80.4 39.38" stroke="#000000" stroke-width="2.5" fill="none" stroke-dasharray="1.5 8"></path></g><g transform="translate(1050 430) rotate(0 -40.19910509970589 19.59992124580225)"><path d="M-61.12 32.6 C-67.15 34.72, -73.19 36.84, -80.4 39.38" stroke="#000000" stroke-width="2.5" fill="none" stroke-dasharray="1.5 6"></path></g><g transform="translate(1050 430) rotate(0 -40.19910509970589 19.59992124580225)"><path d="M-61.27 46.58 C-67.26 44.32, -73.24 42.07, -80.4 39.38" stroke="#000000" stroke-width="2.5" fill="none" stroke-dasharray="1.5 6"></path></g></g><g stroke-linecap="round"><g transform="translate(969 589.9999570457205) rotate(0 110.19982172056586 -0.8415618825067668)"><path d="M-0.42 -1.66 C59.47 -0.49, 119.12 -1.97, 220.4 -1.71 M0.77 0.06 C47.58 -0.14, 95.7 -0.51, 220.82 -0.24" stroke="#000000" stroke-width="1" fill="none"></path></g><g transform="translate(969 589.9999570457205) rotate(0 110.19982172056586 -0.8415618825067668)"><path d="M27.29 -13.83 C20.09 -7.53, 12.68 -6.46, 0.04 -3.64 M28.67 -11.84 C21.45 -10.12, 15.83 -8.33, 0.53 -1.94" stroke="#000000" stroke-width="1" fill="none"></path></g><g transform="translate(969 589.9999570457205) rotate(0 110.19982172056586 -0.8415618825067668)"><path d="M27.28 6.69 C20.22 7.45, 12.81 2.97, 0.04 -3.64 M28.66 8.68 C21.6 5.96, 15.99 3.29, 0.53 -1.94" stroke="#000000" stroke-width="1" fill="none"></path></g><g transform="translate(969 589.9999570457205) rotate(0 110.19982172056586 -0.8415618825067668)"><path d="M192.13 8.07 C200.31 8.34, 208.15 3.87, 221.28 -2.22 M193.51 10.06 C198.68 7.41, 205.29 4.75, 221.77 -0.52" stroke="#000000" stroke-width="1" fill="none"></path></g><g transform="translate(969 589.9999570457205) rotate(0 110.19982172056586 -0.8415618825067668)"><path d="M192.15 -12.45 C200.19 -6.63, 208.02 -5.55, 221.28 -2.22 M193.53 -10.46 C198.53 -8.67, 205.14 -6.87, 221.77 -0.52" stroke="#000000" stroke-width="1" fill="none"></path></g></g><g stroke-linecap="round"><g transform="translate(970 810) rotate(0 109.41905320606463 -0.09285419351579094)"><path d="M1.18 0.18 C60.37 0.39, 119.61 -1.45, 218.65 -0.19 M-0.34 0.32 C84.88 1.07, 170.96 -0.19, 219.18 -0.74" stroke="#000000" stroke-width="1" fill="none"></path></g><g transform="translate(970 810) rotate(0 109.41905320606463 -0.09285419351579094)"><path d="M192.48 10.06 C198.62 7.39, 204.72 2.35, 217.62 -0.95 M190.72 10.22 C201.19 6.72, 212.67 1.14, 218.24 -1.59" stroke="#000000" stroke-width="1" fill="none"></path></g><g transform="translate(970 810) rotate(0 109.41905320606463 -0.09285419351579094)"><path d="M192.24 -10.46 C198.25 -7.47, 204.41 -6.86, 217.62 -0.95 M190.48 -10.3 C201.06 -5.82, 212.63 -3.41, 218.24 -1.59" stroke="#000000" stroke-width="1" fill="none"></path></g></g><g stroke-linecap="round"><g transform="translate(970 350) rotate(0 40.41369047619071 19.967032967033106)"><path d="M0 0 C12.3 -0.01, 24.6 -0.02, 40.06 -0.03 M40.06 -0.03 C40.06 11.03, 40.06 22.09, 40.06 39.97 M40.06 39.97 C52.1 39.74, 64.14 39.51, 80.83 39.2" stroke="#000000" stroke-width="2.5" fill="none" stroke-dasharray="1.5 8"></path></g><g transform="translate(970 350) rotate(0 40.41369047619071 19.967032967033106)"><path d="M61.8 46.53 C67.64 44.28, 73.49 42.03, 80.83 39.2" stroke="#000000" stroke-width="2.5" fill="none" stroke-dasharray="1.5 6"></path></g><g transform="translate(970 350) rotate(0 40.41369047619071 19.967032967033106)"><path d="M61.54 32.59 C67.46 34.62, 73.38 36.65, 80.83 39.2" stroke="#000000" stroke-width="2.5" fill="none" stroke-dasharray="1.5 6"></path></g></g></svg>