<svg version="1.1" xmlns="http://www.w3.org/2000/svg" viewBox="0 0 1500 880" width="1500" height="880">
  <!-- svg-source:excalidraw -->
  
  <defs>
    <style>
      @font-face {
        font-family: "Virgil";
        src: url("https://excalidraw.com/Virgil.woff2");
      }
      @font-face {
        font-family: "Cascadia";
        src: url("https://excalidraw.com/Cascadia.woff2");
      }
    </style>
  </defs>
  <rect x="0" y="0" width="1500" height="880" fill="#ffffff"></rect><g stroke-linecap="round" transform="translate(30 564) rotate(0 79.5 26)"><path d="M86.81 0.43 C98.62 0.36, 112.66 1.03, 123.05 3.23 C133.44 5.43, 143.27 9.98, 149.15 13.64 C155.03 17.3, 157.99 21.17, 158.32 25.18 C158.66 29.19, 156.33 34.01, 151.18 37.71 C146.03 41.42, 137.35 45.07, 127.42 47.41 C117.49 49.75, 103.67 51.09, 91.62 51.74 C79.56 52.39, 66.65 52.52, 55.08 51.31 C43.51 50.1, 30.77 47.6, 22.18 44.49 C13.58 41.38, 6.81 36.69, 3.51 32.65 C0.21 28.6, -0.19 24.09, 2.38 20.21 C4.95 16.33, 11.28 12.44, 18.93 9.39 C26.58 6.34, 36.4 3.49, 48.28 1.9 C60.15 0.31, 82.68 -0.16, 90.19 -0.17 C97.7 -0.18, 93.61 1.29, 93.34 1.82 M80.27 0.3 C92.11 0.15, 105.95 2.35, 116.63 4.39 C127.31 6.44, 137.21 9.45, 144.36 12.57 C151.5 15.69, 158.16 19.21, 159.49 23.09 C160.81 26.98, 156.8 32.09, 152.32 35.86 C147.83 39.63, 141.59 42.96, 132.59 45.71 C123.58 48.46, 110.55 51.54, 98.27 52.36 C85.99 53.18, 70.81 51.69, 58.91 50.62 C47.01 49.55, 36.05 48.53, 26.88 45.96 C17.71 43.39, 8.5 39.28, 3.9 35.21 C-0.71 31.13, -2.47 25.3, -0.73 21.52 C1 17.74, 6.83 15.79, 14.3 12.54 C21.77 9.28, 33.34 3.94, 44.08 1.98 C54.82 0.02, 72.9 0.89, 78.72 0.79 C84.54 0.68, 78.78 0.79, 78.99 1.34" stroke="none" stroke-width="0" fill="#228be6"></path><path d="M71.69 0.2 C83.42 -0.61, 98.42 -0.05, 109.83 1.33 C121.24 2.72, 132.31 5.42, 140.16 8.51 C148.01 11.59, 154.34 15.72, 156.95 19.84 C159.55 23.96, 159 29.16, 155.78 33.21 C152.55 37.27, 145.75 41.22, 137.61 44.19 C129.46 47.16, 118.53 49.62, 106.9 51.01 C95.27 52.4, 80.18 53.21, 67.81 52.52 C55.44 51.83, 42.44 49.47, 32.67 46.88 C22.91 44.28, 14.52 40.35, 9.2 36.93 C3.88 33.51, 0.58 30.43, 0.74 26.37 C0.9 22.31, 4.37 16.24, 10.18 12.54 C16 8.84, 24.08 6.27, 35.63 4.17 C47.18 2.06, 71.09 0.66, 79.47 -0.09 C87.85 -0.84, 86.17 -0.69, 85.92 -0.31 M79.61 0.25 C91.09 -0.36, 104.15 1.29, 115.18 3.12 C126.22 4.95, 138.65 7.71, 145.83 11.21 C153 14.71, 156.91 20.22, 158.23 24.12 C159.55 28.01, 158.18 30.96, 153.74 34.6 C149.3 38.23, 140.59 43.06, 131.58 45.92 C122.57 48.78, 111.27 51, 99.67 51.74 C88.06 52.49, 73.95 51.45, 61.97 50.4 C49.99 49.34, 37.41 47.93, 27.79 45.41 C18.17 42.88, 8.96 39.1, 4.26 35.25 C-0.44 31.39, -1.94 26.33, -0.41 22.27 C1.12 18.22, 6.43 13.92, 13.46 10.92 C20.49 7.92, 31.03 6.22, 41.75 4.27 C52.46 2.32, 71.59 -0.37, 77.76 -0.77 C83.93 -1.18, 78.59 1.33, 78.74 1.87" stroke="#000000" stroke-width="1" fill="none"></path></g><g transform="translate(72 576.5) rotate(0 31.5 12.5)"><text x="0" y="18" font-family="Virgil, Segoe UI Emoji" font-size="20px" fill="#000000" text-anchor="start" style="white-space: pre;" direction="ltr">j.query</text></g><g stroke-linecap="round" transform="translate(1190 630) rotate(0 20 109)"><path d="M0 0 L40 0 L40 218 L0 218" stroke="none" stroke-width="0" fill="#ffffff"></path><path d="M0 0 C10.3 0, 20.6 0, 40 0 M40 0 C40 64.97, 40 129.95, 40 218 M40 218 C31.23 218, 22.47 218, 0 218 M0 218 C0 169.56, 0 121.11, 0 0" stroke="#000000" stroke-width="2.5" fill="none" stroke-dasharray="1.5 8"></path></g><g stroke-linecap="round"><g transform="translate(1170 412.3388698295588) rotate(0 39.5 0)"><path d="M0 0 C25.75 0, 51.5 0, 79 0" stroke="#000000" stroke-width="2.5" fill="none" stroke-dasharray="1.5 8"></path></g></g><g stroke-linecap="round" transform="translate(1190 370) rotate(0 20 119)"><path d="M0 0 L40 0 L40 238 L0 238" stroke="none" stroke-width="0" fill="#ffffff"></path><path d="M0 0 C8.33 0, 16.67 0, 40 0 M40 0 C40 83.72, 40 167.43, 40 238 M40 238 C26.1 238, 12.19 238, 0 238 M0 238 C0 188.6, 0 139.2, 0 0" stroke="#000000" stroke-width="2.5" fill="none" stroke-dasharray="1.5 8"></path></g><g stroke-linecap="round"><g transform="translate(189.99415973643812 709.6747710717718) rotate(0 149.50292013178094 -0.6607007361227488)"><path d="M0 0 C86.34 -0.38, 172.68 -0.76, 299.01 -1.32 M0 0 C91.47 -0.4, 182.93 -0.81, 299.01 -1.32" stroke="#087f5b" stroke-width="4" fill="none"></path></g><g transform="translate(189.99415973643812 709.6747710717718) rotate(0 149.50292013178094 -0.6607007361227488)"><path d="M270.86 9.06 C278.99 6.06, 287.11 3.07, 299.01 -1.32 M270.86 9.06 C279.47 5.89, 288.08 2.71, 299.01 -1.32" stroke="#087f5b" stroke-width="4" fill="none"></path></g><g transform="translate(189.99415973643812 709.6747710717718) rotate(0 149.50292013178094 -0.6607007361227488)"><path d="M270.77 -11.46 C278.92 -8.53, 287.08 -5.6, 299.01 -1.32 M270.77 -11.46 C279.41 -8.36, 288.04 -5.26, 299.01 -1.32" stroke="#087f5b" stroke-width="4" fill="none"></path></g></g><g stroke-linecap="round" transform="translate(490 390) rotate(0 90 180)"><path d="M0 0 C54.72 0, 109.43 0, 180 0 M0 0 C41.4 0, 82.8 0, 180 0 M180 0 C180 120.77, 180 241.54, 180 360 M180 0 C180 135.38, 180 270.76, 180 360 M180 360 C142.73 360, 105.46 360, 0 360 M180 360 C133.84 360, 87.67 360, 0 360 M0 360 C0 243.78, 0 127.56, 0 0 M0 360 C0 283.85, 0 207.7, 0 0" stroke="#000000" stroke-width="2" fill="none"></path></g><g stroke-linecap="round" transform="translate(10 210) rotate(0 381.17647058823536 330)"><path d="M0 0 C283.97 0, 567.95 0, 762.35 0 M0 0 C267.55 0, 535.1 0, 762.35 0 M762.35 0 C762.35 194.11, 762.35 388.22, 762.35 660 M762.35 0 C762.35 165.48, 762.35 330.95, 762.35 660 M762.35 660 C563.5 660, 364.64 660, 0 660 M762.35 660 C502.96 660, 243.56 660, 0 660 M0 660 C0 476.85, 0 293.7, 0 0 M0 660 C0 444.23, 0 228.46, 0 0" stroke="#495057" stroke-width="4" fill="none"></path></g><g stroke-linecap="round" transform="translate(10 110) rotate(0 380 30)"><path d="M0 0 C199.32 0, 398.64 0, 760 0 M0 0 C197.76 0, 395.52 0, 760 0 M760 0 C760 23.69, 760 47.38, 760 60 M760 0 C760 23.71, 760 47.42, 760 60 M760 60 C474.16 60, 188.33 60, 0 60 M760 60 C457.81 60, 155.62 60, 0 60 M0 60 C0 41.49, 0 22.97, 0 0 M0 60 C0 45.34, 0 30.69, 0 0" stroke="#495057" stroke-width="4" fill="none"></path></g><g transform="translate(210 110) rotate(0 158 12.5)"><text x="0" y="18" font-family="Virgil, Segoe UI Emoji" font-size="20px" fill="#000000" text-anchor="start" style="white-space: pre;" direction="ltr">Jinaga.JS - client (up &amp; running)</text></g><g transform="translate(190 210) rotate(0 203 12.5)"><text x="0" y="18" font-family="Virgil, Segoe UI Emoji" font-size="20px" fill="#000000" text-anchor="start" style="white-space: pre;" direction="ltr">Jianaga.NET - client (under development)</text></g><g stroke-linecap="round" transform="translate(550.1021778163922 544.3060549631518) rotate(0 49.36914087559103 19.74765635023641)"><path d="M30.65 1.54 C38.83 0.04, 50.22 0.45, 59.63 1.33 C69.04 2.22, 80.52 3.97, 87.09 6.84 C93.67 9.71, 98.14 14.76, 99.08 18.57 C100.03 22.39, 97.89 26.47, 92.79 29.72 C87.69 32.97, 77.66 36.5, 68.47 38.08 C59.28 39.65, 47.07 39.89, 37.64 39.16 C28.2 38.44, 18.22 36.72, 11.87 33.73 C5.52 30.75, 0.5 25.31, -0.47 21.26 C-1.43 17.2, 0.36 12.77, 6.1 9.4 C11.84 6.03, 28.61 2.51, 33.99 1.02 C39.37 -0.46, 38.18 0.08, 38.37 0.51" stroke="none" stroke-width="0" fill="#ffffff"></path><path d="M46.52 -0.09 C55.72 -0.55, 68.68 1.67, 76.79 3.88 C84.89 6.09, 91.76 9.68, 95.15 13.17 C98.53 16.66, 99.64 21.31, 97.1 24.8 C94.57 28.29, 87.58 31.62, 79.94 34.13 C72.31 36.63, 60.94 39.6, 51.29 39.84 C41.65 40.08, 30.18 37.59, 22.06 35.56 C13.95 33.54, 5.99 31.11, 2.6 27.68 C-0.78 24.26, -0.88 18.87, 1.76 15.02 C4.4 11.18, 9.83 7.1, 18.42 4.62 C27.02 2.13, 46.4 0.74, 53.33 0.13 C60.26 -0.48, 60.12 0.78, 60.02 0.97" stroke="#000000" stroke-width="2.5" fill="none" stroke-dasharray="1.5 8"></path></g><g stroke-linecap="round" transform="translate(550.8427149295278 509.7476563502378) rotate(0 49.36914087559103 27.153027481575577)"><path d="M1.3 1.94 L98.51 -0.85 L99.12 52.56 L0.31 53.5" stroke="none" stroke-width="0" fill="#ffffff"></path><path d="M-0.2 0.24 C29.13 -0.74, 55.14 0.88, 100.09 -0.67 M97.84 -1.96 C97.58 19.62, 98.04 36.31, 97.43 56.07 M99.2 53.89 C68.64 54.55, 38.51 53.63, -1.53 52.76 M-0.7 55.92 C0.29 36.17, 2.14 21.7, 0.25 1.11" stroke="transparent" stroke-width="2.5" fill="none" stroke-dasharray="1.5 8"></path></g><g stroke-linecap="round" transform="translate(550.3490235207705 490) rotate(0 49.36914087559103 19.74765635023641)"><path d="M40.16 1.15 C49.06 0.28, 62.72 0.45, 71.61 2.11 C80.5 3.77, 88.89 7.74, 93.5 11.11 C98.1 14.49, 100.74 18.61, 99.24 22.37 C97.73 26.12, 91.51 30.81, 84.49 33.64 C77.47 36.47, 66.63 38.54, 57.11 39.35 C47.59 40.15, 36.03 40.23, 27.36 38.45 C18.7 36.68, 9.74 32.34, 5.12 28.72 C0.5 25.1, -1.75 20.52, -0.35 16.75 C1.05 12.98, 6.37 8.94, 13.53 6.12 C20.7 3.3, 37.35 0.64, 42.66 -0.18 C47.97 -1, 45.11 0.94, 45.39 1.19" stroke="none" stroke-width="0" fill="#ffffff"></path><path d="M67.3 1.95 C76.13 3.1, 85.06 6.28, 90.3 9.39 C95.54 12.49, 99.22 16.97, 98.75 20.6 C98.27 24.22, 93.6 28.02, 87.45 31.11 C81.29 34.21, 71.11 38.1, 61.79 39.16 C52.48 40.23, 40.61 38.77, 31.55 37.49 C22.49 36.21, 12.69 34.51, 7.45 31.47 C2.21 28.43, -0.46 23.2, 0.12 19.23 C0.69 15.25, 4.91 10.71, 10.92 7.63 C16.92 4.55, 25.82 1.62, 36.14 0.76 C46.46 -0.1, 65.97 2.04, 72.83 2.46 C79.69 2.88, 77.83 2.99, 77.3 3.29" stroke="#000000" stroke-width="2.5" fill="none" stroke-dasharray="1.5 8"></path></g><g stroke-linecap="round"><g transform="translate(550.4681050058546 509.5507500357203) rotate(0 -0.16299430568761863 27.517620880518734)"><path d="M0.15 0.87 C0.05 9.92, -0.53 45.13, -0.47 54.17" stroke="#000000" stroke-width="2.5" fill="none" stroke-dasharray="1.5 8"></path></g></g><g stroke-linecap="round"><g transform="translate(649.1326551493261 509.81791946433464) rotate(0 0.268712118407052 27.09543137106357)"><path d="M0.87 -0.4 C0.83 8.68, -0.29 45.59, -0.33 54.59" stroke="#000000" stroke-width="2.5" fill="none" stroke-dasharray="1.5 8"></path></g></g><g transform="translate(569 540) rotate(0 32.5 12.5)"><text x="0" y="18" font-family="Virgil, Segoe UI Emoji" font-size="20px" fill="#000000" text-anchor="start" style="white-space: pre;" direction="ltr">SQLite</text></g><g stroke-linecap="round" transform="translate(550.38882983097 678.3965145206582) rotate(0 48.542285927868704 19.416914371147527)"><path d="M29.92 2.03 C37.98 0.1, 50.39 -0.88, 59.57 -0.18 C68.75 0.51, 78.89 3.38, 84.98 6.19 C91.07 8.99, 95.31 12.83, 96.11 16.63 C96.91 20.42, 94.37 25.68, 89.78 28.95 C85.2 32.22, 77.21 34.58, 68.63 36.22 C60.04 37.87, 47.5 39.38, 38.27 38.84 C29.05 38.31, 19.51 35.94, 13.29 33.02 C7.07 30.1, 2.07 25.31, 0.96 21.33 C-0.14 17.36, 0.27 12.7, 6.67 9.17 C13.08 5.63, 32.01 1.58, 39.4 0.12 C46.79 -1.34, 50.75 0.05, 51.02 0.39 M29.19 1.02 C37.02 -1.02, 49.04 -1.9, 58.46 -0.95 C67.88 0.01, 79.34 3.45, 85.69 6.76 C92.04 10.07, 95.65 15.32, 96.56 18.93 C97.48 22.54, 96.14 25.41, 91.16 28.4 C86.18 31.4, 75.56 35.39, 66.68 36.91 C57.81 38.43, 47.04 38.5, 37.92 37.53 C28.81 36.55, 18.4 33.66, 12 31.04 C5.59 28.43, 0.37 25.64, -0.51 21.84 C-1.39 18.04, 1.87 11.77, 6.72 8.22 C11.57 4.67, 24.53 1.39, 28.58 0.52 C32.63 -0.35, 30.65 2.38, 31.02 3" stroke="none" stroke-width="0" fill="#ffffff"></path><path d="M26.07 1.58 C34.04 -0.27, 46.66 -0.29, 56.17 0.44 C65.68 1.17, 76.4 3.27, 83.11 5.94 C89.83 8.61, 94.88 12.91, 96.45 16.47 C98.02 20.02, 96.65 23.79, 92.53 27.28 C88.42 30.76, 80.16 35.32, 71.75 37.36 C63.34 39.4, 51.51 40.25, 42.08 39.52 C32.65 38.79, 22.15 35.89, 15.19 32.99 C8.23 30.08, 1.95 25.79, 0.34 22.08 C-1.27 18.38, 0.83 14.29, 5.53 10.76 C10.23 7.23, 24.32 2.33, 28.55 0.88 C32.78 -0.57, 30.52 1.53, 30.92 2.06 M70.29 3.21 C78.77 4.54, 87.13 6.81, 91.58 10.2 C96.03 13.59, 98.33 19.61, 97.01 23.58 C95.68 27.54, 90.36 31.44, 83.61 34 C76.86 36.56, 66.13 38.69, 56.5 38.93 C46.87 39.17, 34.18 37.14, 25.85 35.45 C17.52 33.75, 10.71 31.81, 6.53 28.76 C2.35 25.72, -0.4 21.21, 0.79 17.18 C1.99 13.16, 6.76 7.63, 13.71 4.6 C20.65 1.56, 33.1 -0.85, 42.47 -1.01 C51.85 -1.18, 65.37 3.06, 69.96 3.61 C74.55 4.15, 70.27 2.12, 69.99 2.26" stroke="#000000" stroke-width="1" fill="none"></path></g><g stroke-linecap="round" transform="translate(551.1169641198876 644.4169143711467) rotate(0 48.542285927868704 26.698257260328205)"><path d="M-1.14 -0.08 L97.31 -0.06 L95.5 53.77 L1.29 52.59" stroke="none" stroke-width="0" fill="#ffffff"></path><path d="M-1.97 -1.74 C34.79 1.29, 69.16 2.42, 97.6 1.88 M0.31 -0.61 C34.53 0.36, 68.6 0.41, 97.36 -0.43 M96.7 0.04 C94.99 11.89, 97.61 28.33, 98.22 55.29 M97.81 -0.17 C96.83 12.53, 97.84 24.88, 97.64 53.69 M98.78 54.14 C66.08 53.7, 33.83 51.16, 1.93 51.74 M96.94 53.26 C72.83 53.58, 48.66 52.42, 0.42 54.17 M-1.24 53.94 C-0.76 30.59, -1.83 9.23, -0.44 0.92 M0.91 54.05 C0.74 42.4, 0.13 31.03, -0.65 -0.18" stroke="transparent" stroke-width="1" fill="none"></path></g><g stroke-linecap="round" transform="translate(550.6315412606089 624.9999999999998) rotate(0 48.542285927868704 19.416914371147527)"><path d="M67.63 0.81 C76.13 1.82, 85.27 5.69, 90.04 8.89 C94.81 12.08, 97.09 16.2, 96.23 20 C95.38 23.81, 90.86 28.82, 84.93 31.71 C79 34.59, 69.76 36.29, 60.64 37.32 C51.52 38.34, 38.95 39.01, 30.21 37.85 C21.48 36.68, 13.13 33.63, 8.23 30.32 C3.34 27, 0.29 21.94, 0.84 17.96 C1.39 13.97, 5.62 9.34, 11.53 6.41 C17.43 3.48, 26.34 1.07, 36.26 0.39 C46.18 -0.3, 64.48 1.74, 71.06 2.3 C77.63 2.86, 76.14 3.41, 75.72 3.74 M62.7 -0.47 C71.64 0.51, 82.74 4.62, 88.41 8.15 C94.08 11.67, 96.68 17.07, 96.73 20.69 C96.77 24.31, 94.4 27.06, 88.71 29.87 C83.01 32.67, 71.72 36.32, 62.54 37.52 C53.37 38.71, 42.56 38.35, 33.68 37.04 C24.8 35.73, 15 32.48, 9.28 29.65 C3.55 26.83, -0.66 23.89, -0.68 20.08 C-0.69 16.26, 3.61 10.12, 9.18 6.76 C14.74 3.4, 23.45 0.69, 32.72 -0.08 C41.99 -0.85, 59.77 1.74, 64.79 2.14 C69.8 2.54, 63.33 2.34, 62.81 2.31" stroke="none" stroke-width="0" fill="#ffffff"></path><path d="M43.39 0.42 C52.35 -0.09, 64.62 1.05, 72.81 2.91 C81.01 4.78, 88.61 8.35, 92.56 11.6 C96.52 14.85, 98.28 18.63, 96.54 22.42 C94.81 26.22, 89.08 31.52, 82.13 34.37 C75.18 37.23, 64.3 39.27, 54.86 39.54 C45.42 39.82, 33.93 38.11, 25.49 36.01 C17.05 33.91, 8.22 30.35, 4.22 26.95 C0.23 23.55, -0.32 19.37, 1.52 15.61 C3.37 11.86, 8.33 6.95, 15.29 4.44 C22.25 1.92, 38.07 1.12, 43.27 0.54 C48.47 -0.03, 46.1 0.85, 46.48 0.98 M49.61 -0.42 C58.81 -0.59, 70.94 2.59, 78.66 5.11 C86.37 7.64, 93.22 11.23, 95.9 14.75 C98.58 18.27, 98.14 23.01, 94.73 26.24 C91.31 29.48, 83.12 31.98, 75.41 34.17 C67.71 36.36, 57.88 39.14, 48.5 39.39 C39.12 39.63, 26.99 38.23, 19.14 35.64 C11.29 33.05, 3.9 27.84, 1.42 23.85 C-1.06 19.85, 1.08 14.83, 4.25 11.67 C7.41 8.51, 12.83 6.86, 20.39 4.88 C27.96 2.9, 44.76 0.44, 49.64 -0.21 C54.51 -0.85, 49.52 0.42, 49.62 1.01" stroke="#000000" stroke-width="1" fill="none"></path></g><g stroke-linecap="round"><g transform="translate(551.0459510859102 644.0642883142293) rotate(0 -0.21682136474680647 26.054083557674403)"><path d="M-1.05 -0.3 C-0.88 8.65, 0.09 43.53, 0.45 52.53 M0.61 -1.51 C0.7 7.67, -0.29 44.17, -0.23 53.62" stroke="#000000" stroke-width="1" fill="none"></path></g></g><g stroke-linecap="round"><g transform="translate(648.0873017667757 644.1967121128403) rotate(0 0.4307997537748065 27.026104260432703)"><path d="M-0.3 0.52 C-0.28 9.74, -1.12 45.35, -1.05 54.31 M1.74 -0.26 C2.24 8.76, 1.58 44.02, 1.21 52.81" stroke="#000000" stroke-width="1" fill="none"></path></g></g><g transform="translate(565 661) rotate(0 34 25)"><text x="34" y="18" font-family="Virgil, Segoe UI Emoji" font-size="20px" fill="#000000" text-anchor="middle" style="white-space: pre;" direction="ltr">Memory</text><text x="34" y="43" font-family="Virgil, Segoe UI Emoji" font-size="20px" fill="#000000" text-anchor="middle" style="white-space: pre;" direction="ltr">Store</text></g><g stroke-linecap="round"><g transform="translate(771 140.32753537735846) rotate(0 100.19806988841856 -0.13196503421738726)"><path d="M1.18 -0.18 C34.44 -0.29, 167.17 -0.41, 200.06 -0.32 M0.34 -1.32 C33.5 -1.29, 166.8 1.12, 199.66 1.06" stroke="#000000" stroke-width="1" fill="none"></path></g><g transform="translate(771 140.32753537735846) rotate(0 100.19806988841856 -0.13196503421738726)"><path d="M29.06 -8.71 C19.32 -7.5, 10.98 -4.15, 0.13 0 M29.16 -10.77 C19.32 -5.88, 8.06 -3.22, 0.45 0.65" stroke="#000000" stroke-width="1" fill="none"></path></g><g transform="translate(771 140.32753537735846) rotate(0 100.19806988841856 -0.13196503421738726)"><path d="M29.08 11.81 C19.27 6.06, 10.93 2.46, 0.13 0 M29.18 9.75 C19.16 7.02, 7.89 2.08, 0.45 0.65" stroke="#000000" stroke-width="1" fill="none"></path></g><g transform="translate(771 140.32753537735846) rotate(0 100.19806988841856 -0.13196503421738726)"><path d="M171.08 12.82 C180.41 6.59, 191.2 3.07, 198.62 1.24 M171.18 10.76 C182.11 7.7, 191.79 2.84, 198.93 1.89" stroke="#000000" stroke-width="1" fill="none"></path></g><g transform="translate(771 140.32753537735846) rotate(0 100.19806988841856 -0.13196503421738726)"><path d="M171.27 -7.7 C180.59 -6.97, 191.33 -3.54, 198.62 1.24 M171.37 -9.76 C182.41 -5.21, 192.02 -2.46, 198.93 1.89" stroke="#000000" stroke-width="1" fill="none"></path></g></g><g stroke-linecap="round" transform="translate(29 444) rotate(0 79.5 26)"><path d="M98.33 0.26 C110.16 0.76, 124.23 4.23, 133.42 6.95 C142.61 9.66, 149.32 12.68, 153.48 16.56 C157.65 20.45, 160.02 26.2, 158.39 30.24 C156.76 34.27, 150.72 37.57, 143.69 40.79 C136.65 44.01, 126.87 47.66, 116.18 49.56 C105.48 51.46, 91.87 52.25, 79.53 52.18 C67.19 52.11, 53.14 50.99, 42.12 49.14 C31.1 47.29, 20.2 44.47, 13.42 41.1 C6.63 37.72, 2.74 33.03, 1.41 28.88 C0.09 24.73, 1.21 19.82, 5.48 16.2 C9.74 12.59, 17.57 9.75, 27 7.21 C36.42 4.67, 47.95 1.76, 62 0.97 C76.05 0.17, 101.55 1.84, 111.31 2.41 C121.08 2.99, 120.98 4.19, 120.57 4.42 M50.67 0.49 C61.09 -1.12, 77.1 0.43, 89.25 1.11 C101.41 1.79, 113.27 2.56, 123.62 4.57 C133.97 6.58, 145.51 9.51, 151.37 13.17 C157.23 16.83, 158.87 22.37, 158.77 26.51 C158.67 30.65, 156.44 34.41, 150.77 38.01 C145.1 41.6, 134.92 45.79, 124.73 48.08 C114.54 50.37, 102.09 51.15, 89.65 51.74 C77.21 52.34, 61.53 53.22, 50.09 51.66 C38.64 50.09, 29.01 45.68, 20.99 42.35 C12.98 39.01, 5.24 35.64, 1.99 31.64 C-1.26 27.63, -1.68 21.91, 1.47 18.31 C4.62 14.7, 12.71 12.96, 20.89 10.01 C29.07 7.07, 45.45 1.95, 50.54 0.65 C55.64 -0.65, 50.97 1.79, 51.46 2.23" stroke="none" stroke-width="0" fill="#fab005"></path><path d="M92.52 -0.53 C104.19 -0.46, 116.37 2.4, 126.23 5.02 C136.1 7.64, 146.2 11.57, 151.73 15.19 C157.26 18.82, 159.9 22.88, 159.43 26.75 C158.97 30.62, 155.05 34.93, 148.93 38.42 C142.8 41.92, 133.2 45.33, 122.7 47.7 C112.2 50.07, 98.31 52.18, 85.94 52.64 C73.58 53.1, 59.94 52.08, 48.51 50.47 C37.08 48.85, 25.13 46.28, 17.37 42.94 C9.61 39.6, 4.36 34.48, 1.96 30.44 C-0.44 26.39, -0.5 22.36, 2.97 18.67 C6.44 14.98, 14.29 11.18, 22.78 8.3 C31.27 5.42, 41.96 2.57, 53.92 1.4 C65.89 0.22, 87.28 1.43, 94.56 1.25 C101.84 1.06, 97.76 -0.17, 97.62 0.28 M57.43 0.49 C68.22 -0.61, 84.38 1.09, 96.29 1.98 C108.2 2.87, 119.45 3.69, 128.89 5.83 C138.33 7.96, 147.98 11.02, 152.92 14.78 C157.87 18.54, 159.65 24.26, 158.57 28.39 C157.48 32.53, 153.01 36.36, 146.42 39.61 C139.82 42.85, 129.76 45.67, 119 47.87 C108.25 50.07, 94.15 52.59, 81.89 52.8 C69.63 53.02, 56.49 51.12, 45.46 49.15 C34.44 47.18, 23.04 44.16, 15.73 40.96 C8.42 37.77, 3.71 33.94, 1.61 30 C-0.5 26.06, -0.93 21.28, 3.12 17.31 C7.16 13.33, 16.56 8.97, 25.85 6.14 C35.15 3.31, 53.29 0.99, 58.9 0.33 C64.51 -0.34, 59.42 1.54, 59.53 2.14" stroke="#000000" stroke-width="1" fill="none"></path></g><g transform="translate(71 457) rotate(0 34.5 12.5)"><text x="0" y="18" font-family="Virgil, Segoe UI Emoji" font-size="20px" fill="#000000" text-anchor="start" style="white-space: pre;" direction="ltr">j.watch</text></g><g transform="translate(547 397) rotate(0 32.5 12.5)"><text x="0" y="18" font-family="Virgil, Segoe UI Emoji" font-size="20px" fill="#000000" text-anchor="start" style="white-space: pre;" direction="ltr">IStore</text></g><g stroke-linecap="round" transform="translate(1301.305180703781 761.7894736842127) rotate(0 65.26315789473574 26.10526315789423)"><path d="M43.02 2.19 C52.44 0.42, 65.34 0.37, 76.05 1.07 C86.75 1.78, 98.75 3.69, 107.24 6.43 C115.73 9.18, 123.4 13.64, 126.99 17.57 C130.57 21.5, 130.64 26, 128.74 30.04 C126.84 34.08, 122.27 38.39, 115.59 41.81 C108.92 45.22, 98.73 48.87, 88.68 50.54 C78.63 52.22, 66.22 52.59, 55.27 51.86 C44.33 51.14, 31.46 49.14, 23.01 46.21 C14.56 43.29, 8.12 38.5, 4.58 34.32 C1.03 30.13, 0 25.11, 1.74 21.11 C3.47 17.11, 8.03 13.58, 15.01 10.3 C21.99 7.02, 38.37 2.99, 43.62 1.45 C48.86 -0.09, 46.04 0.76, 46.49 1.06 M42.2 2.05 C51.52 -0.03, 65.71 -1.46, 76.66 -0.85 C87.61 -0.24, 99.53 2.86, 107.89 5.7 C116.25 8.55, 123.27 12.27, 126.81 16.22 C130.36 20.16, 130.98 24.89, 129.18 29.36 C127.38 33.84, 122.82 39.43, 115.99 43.06 C109.17 46.69, 98.59 49.9, 88.21 51.13 C77.83 52.37, 64.61 51.28, 53.71 50.46 C42.81 49.65, 30.96 48.93, 22.82 46.24 C14.68 43.54, 8.58 38.6, 4.88 34.29 C1.18 29.98, -1.02 24.82, 0.63 20.39 C2.28 15.96, 7.48 11.02, 14.78 7.71 C22.08 4.4, 39.75 1.45, 44.4 0.55 C49.05 -0.35, 42.3 1.81, 42.69 2.31" stroke="none" stroke-width="0" fill="#ffffff"></path><path d="M93.86 3.41 C103.54 4.97, 114.66 8.82, 120.61 12.23 C126.56 15.65, 129.1 19.74, 129.56 23.91 C130.03 28.08, 128.12 33.24, 123.42 37.27 C118.71 41.29, 110.29 45.73, 101.31 48.05 C92.33 50.38, 80.41 50.89, 69.52 51.21 C58.63 51.53, 45.71 51.58, 35.98 49.95 C26.25 48.32, 17.18 45.27, 11.15 41.41 C5.12 37.56, 0.6 31.36, -0.2 26.81 C-1 22.26, 1.28 18.01, 6.35 14.13 C11.42 10.25, 21.03 5.92, 30.24 3.53 C39.45 1.14, 50.23 -0.06, 61.6 -0.21 C72.98 -0.36, 92.12 1.75, 98.48 2.63 C104.84 3.5, 100.42 4.59, 99.77 5.05 M61.92 -0.65 C72.03 -1.4, 84.27 -0.26, 93.62 1.89 C102.96 4.04, 111.77 8.63, 118 12.24 C124.23 15.85, 129.97 19.08, 131 23.54 C132.04 28, 128.94 34.74, 124.23 39.01 C119.52 43.27, 111.76 46.9, 102.75 49.12 C93.74 51.33, 80.95 52.17, 70.16 52.29 C59.37 52.42, 47.69 51.56, 38 49.85 C28.3 48.15, 18.21 45.68, 11.98 42.08 C5.75 38.48, 1.3 32.98, 0.63 28.26 C-0.04 23.54, 3.28 17.91, 7.95 13.78 C12.62 9.64, 19.79 5.86, 28.67 3.44 C37.54 1.02, 55.95 -0.32, 61.2 -0.74 C66.46 -1.16, 60.15 0.35, 60.2 0.9" stroke="#000000" stroke-width="1" fill="none"></path></g><g stroke-linecap="round" transform="translate(1302.2841280722016 716.105263157895) rotate(0 65.26315789473563 35.8947368421052)"><path d="M1.98 0.05 L129.36 0.03 L131.57 70.08 L1.61 70.58" stroke="none" stroke-width="0" fill="#ffffff"></path><path d="M1.86 1.55 C47.41 -0.66, 95.28 2.3, 131.54 -1.7 M0.11 0.16 C31.15 -0.28, 61.48 1.18, 130.89 0.93 M129.93 1.83 C128.35 19.75, 129.41 39.67, 128.77 70.22 M130.39 0.35 C130.32 24.36, 130 46.94, 130.02 70.88 M130.94 73.73 C86.28 72.97, 39.84 71.34, 1.79 72.17 M130.75 72.69 C83.62 72.14, 37.21 72.53, -0.54 71.39 M1.96 69.89 C-1.58 47.68, 0.98 26.55, 1.13 -0.38 M0.52 72.32 C-1.08 44.75, -0.12 17.66, 0.76 -0.04" stroke="transparent" stroke-width="1" fill="none"></path></g><g stroke-linecap="round" transform="translate(1301.6314964932537 690) rotate(0 65.26315789473563 26.10526315789423)"><path d="M83.46 1.76 C93.62 2.54, 105.18 5.39, 112.8 8.51 C120.43 11.63, 126.84 16.4, 129.21 20.48 C131.58 24.56, 130.16 29.08, 127.02 33 C123.89 36.93, 118.01 40.96, 110.4 44.03 C102.8 47.1, 91.83 50.24, 81.4 51.43 C70.98 52.62, 58.52 52.39, 47.86 51.18 C37.2 49.96, 25.03 47.43, 17.45 44.14 C9.86 40.84, 4.69 35.74, 2.36 31.41 C0.03 27.07, 0.48 22.03, 3.45 18.15 C6.42 14.26, 12.62 10.96, 20.2 8.08 C27.77 5.19, 37.9 2.03, 48.91 0.84 C59.93 -0.35, 79.6 0.75, 86.27 0.93 C92.94 1.1, 89.31 1.35, 88.92 1.87 M82.26 -0.34 C92.72 0.22, 104.39 4.15, 112.1 7.27 C119.8 10.4, 125.86 14.36, 128.49 18.41 C131.13 22.47, 130.62 27.22, 127.89 31.6 C125.15 35.99, 119.6 41.37, 112.08 44.74 C104.55 48.11, 93.38 50.94, 82.72 51.81 C72.06 52.67, 58.8 51.13, 48.12 49.95 C37.43 48.76, 26.1 47.65, 18.62 44.67 C11.13 41.7, 5.98 36.51, 3.2 32.09 C0.42 27.67, -0.66 22.5, 1.92 18.15 C4.5 13.81, 10.7 9.08, 18.7 6.03 C26.69 2.98, 39.42 0.68, 49.89 -0.12 C60.37 -0.91, 75.93 1.08, 81.53 1.26 C87.13 1.45, 83.62 0.53, 83.47 1.02" stroke="none" stroke-width="0" fill="#ffffff"></path><path d="M73.08 0.65 C83.42 0.5, 94.27 1.98, 102.88 4.37 C111.49 6.77, 120.16 10.9, 124.72 15.01 C129.29 19.13, 131.32 24.79, 130.26 29.04 C129.2 33.3, 124.8 36.96, 118.35 40.54 C111.91 44.11, 101.56 48.4, 91.61 50.47 C81.67 52.55, 69.53 53.68, 58.68 52.99 C47.82 52.31, 35.43 49.12, 26.49 46.35 C17.55 43.58, 9.24 40.35, 5.04 36.38 C0.84 32.41, 0 26.86, 1.29 22.54 C2.58 18.22, 6.42 14, 12.77 10.47 C19.12 6.94, 27.16 2.81, 39.38 1.36 C51.6 -0.09, 76.04 1.28, 86.07 1.75 C96.1 2.22, 99.83 3.74, 99.58 4.16 M59.97 -0.68 C69.77 -1.13, 82.1 1.41, 92.06 3.29 C102.02 5.17, 113.3 6.89, 119.73 10.6 C126.16 14.31, 129.74 20.86, 130.64 25.55 C131.54 30.24, 129.81 35.04, 125.12 38.74 C120.43 42.45, 111.42 45.5, 102.5 47.78 C93.59 50.06, 82.41 51.88, 71.65 52.42 C60.88 52.96, 47.88 52.9, 37.92 51.03 C27.96 49.16, 17.97 45.16, 11.91 41.2 C5.84 37.23, 2.48 31.8, 1.54 27.24 C0.61 22.67, 1.74 17.73, 6.3 13.81 C10.85 9.9, 19.97 6.01, 28.86 3.77 C37.75 1.53, 54.32 0.94, 59.62 0.39 C64.92 -0.16, 60.23 0.31, 60.66 0.45" stroke="#000000" stroke-width="1" fill="none"></path></g><g stroke-linecap="round"><g transform="translate(1301.828365665935 715.7077037301524) rotate(0 0.33493761389604515 35.95911272091007)"><path d="M0.93 0.26 C0.88 12.17, -0.83 60.55, -0.83 72.57 M-0.04 -0.66 C0.34 11.43, 1.37 59.02, 1.5 70.86" stroke="#000000" stroke-width="1" fill="none"></path></g></g><g stroke-linecap="round"><g transform="translate(1432.3597790987649 716.2216479163894) rotate(0 -0.2910409396149589 35.85706035677072)"><path d="M0.26 -0.73 C0.16 11.19, 0.51 60.59, 0.53 72.45 M-1.07 1.5 C-1.35 13.02, -0.17 59.26, -0.01 70.87" stroke="#000000" stroke-width="1" fill="none"></path></g></g><g transform="translate(1310 759) rotate(0 57 12.5)"><text x="0" y="18" font-family="Virgil, Segoe UI Emoji" font-size="20px" fill="#000000" text-anchor="start" style="white-space: pre;" direction="ltr">PostgreSQL</text></g><g stroke-linecap="round" transform="translate(1295 583.5263157894742) rotate(0 66.8421052631569 26.73684210526278)"><path d="M35.86 2.88 C44.94 0.66, 58.72 0.35, 69.73 0.63 C80.73 0.91, 92.59 2.31, 101.9 4.56 C111.21 6.81, 120.19 10.23, 125.58 14.13 C130.98 18.03, 134.58 23.37, 134.27 27.97 C133.95 32.58, 129.77 37.87, 123.69 41.76 C117.61 45.65, 107.69 49.49, 97.76 51.33 C87.84 53.17, 75.15 53.12, 64.15 52.8 C53.15 52.49, 41.35 51.74, 31.78 49.41 C22.22 47.09, 12.17 42.9, 6.78 38.85 C1.39 34.81, -1.25 29.45, -0.58 25.16 C0.09 20.87, 3.96 16.88, 10.8 13.12 C17.64 9.35, 34.6 4.59, 40.44 2.56 C46.28 0.53, 45.21 0.55, 45.83 0.94" stroke="none" stroke-width="0" fill="#ffffff"></path><path d="M87.31 0.38 C97.68 1.06, 108.49 4.61, 115.84 8.08 C123.19 11.56, 129.05 16.95, 131.41 21.2 C133.77 25.46, 133.02 29.54, 130 33.6 C126.97 37.66, 121.33 42.48, 113.24 45.56 C105.16 48.64, 92.59 50.99, 81.48 52.08 C70.37 53.18, 57.35 53.41, 46.59 52.12 C35.84 50.84, 24.54 47.46, 16.96 44.36 C9.39 41.25, 3.49 37.7, 1.16 33.5 C-1.18 29.3, -0.25 23.53, 2.96 19.14 C6.17 14.75, 12.4 10.33, 20.4 7.17 C28.4 4.01, 38.33 0.98, 50.96 0.17 C63.59 -0.63, 87.51 1.42, 96.19 2.33 C104.87 3.24, 103.63 5.27, 103.03 5.63" stroke="#000000" stroke-width="2.5" fill="none" stroke-dasharray="1.5 8"></path></g><g stroke-linecap="round" transform="translate(1296.0026315789487 536.7368421052615) rotate(0 66.8421052631569 36.76315789473699)"><path d="M1.22 -1.72 L134.43 -1.09 L133.17 74.82 L0.14 74.47" stroke="none" stroke-width="0" fill="#ffffff"></path><path d="M1.19 0.5 C28.51 1.06, 52.55 -0.51, 132.78 -1.18 M135.47 -1.53 C132.56 23.85, 131.94 50.22, 131.85 72.36 M134.2 71.66 C100.74 71.64, 66.73 74.71, -0.54 72.87 M-1.45 73.64 C-1.8 45.01, 0.47 19.63, -0.28 -0.06" stroke="transparent" stroke-width="2.5" fill="none" stroke-dasharray="1.5 8"></path></g><g stroke-linecap="round" transform="translate(1295.3342105263168 509.9999999999999) rotate(0 66.8421052631569 26.736842105262724)"><path d="M72.57 0.71 C83.07 0.77, 95.21 2.78, 104.26 5.19 C113.31 7.6, 121.87 11.17, 126.84 15.15 C131.81 19.14, 134.87 24.52, 134.08 29.11 C133.29 33.7, 128.59 38.92, 122.11 42.7 C115.63 46.49, 105.35 50.16, 95.21 51.83 C85.08 53.5, 72.28 53.24, 61.31 52.73 C50.35 52.22, 38.72 51.26, 29.42 48.78 C20.12 46.3, 10.49 41.96, 5.52 37.83 C0.55 33.71, -1.54 28.3, -0.4 24.02 C0.75 19.75, 5.94 15.68, 12.38 12.17 C18.82 8.66, 27.87 5.11, 38.22 2.96 C48.57 0.81, 67.93 -0.45, 74.49 -0.76 C81.05 -1.06, 77.67 0.47, 77.57 1.13" stroke="none" stroke-width="0" fill="#ffffff"></path><path d="M90.29 1.24 C100.3 2.57, 110.87 6.82, 117.83 10.17 C124.79 13.51, 129.95 17.13, 132.03 21.33 C134.12 25.52, 134.17 31.11, 130.35 35.34 C126.52 39.56, 117.91 43.72, 109.07 46.65 C100.22 49.59, 88.37 52.18, 77.27 52.94 C66.18 53.7, 52.94 52.6, 42.52 51.2 C32.09 49.8, 21.66 47.83, 14.73 44.54 C7.8 41.24, 2.83 35.93, 0.93 31.41 C-0.98 26.88, -0.44 21.69, 3.3 17.39 C7.04 13.09, 14.52 8.49, 23.37 5.61 C32.22 2.72, 43.75 0.35, 56.39 0.09 C69.03 -0.16, 90.77 3.15, 99.22 4.07 C107.67 4.99, 107.7 5.31, 107.08 5.6" stroke="#000000" stroke-width="2.5" fill="none" stroke-dasharray="1.5 8"></path></g><g stroke-linecap="round"><g transform="translate(1295.35503129077 536.4213481942506) rotate(0 0.5987314207407053 36.70991930579237)"><path d="M0.3 0.86 C0.36 12.83, 0.95 60.54, 0.89 72.56" stroke="#000000" stroke-width="2.5" fill="none" stroke-dasharray="1.5 8"></path></g></g><g stroke-linecap="round"><g transform="translate(1429.030923813056 537.0346424339909) rotate(0 -0.183054634609789 37.086158397488646)"><path d="M0.86 0.99 C0.54 13.14, -0.95 61.28, -1.22 73.18" stroke="#000000" stroke-width="2.5" fill="none" stroke-dasharray="1.5 8"></path></g></g><g transform="translate(1314 578) rotate(0 49.5 12.5)"><text x="0" y="18" font-family="Virgil, Segoe UI Emoji" font-size="20px" fill="#000000" text-anchor="start" style="white-space: pre;" direction="ltr">SQLserver</text></g><g stroke-linecap="round" transform="translate(30 324) rotate(0 79.5 26)"><path d="M98.67 1.61 C110.35 2.15, 123.62 4.29, 132.79 6.93 C141.97 9.56, 149.41 13.79, 153.74 17.42 C158.07 21.04, 160.19 24.83, 158.79 28.68 C157.38 32.52, 152.42 37.13, 145.31 40.49 C138.19 43.84, 127.18 46.76, 116.1 48.79 C105.02 50.82, 91.23 52.78, 78.83 52.66 C66.43 52.53, 52.57 50.11, 41.71 48.05 C30.84 45.99, 20.68 43.42, 13.65 40.3 C6.62 37.18, 1 33.12, -0.46 29.32 C-1.93 25.53, 0.09 21.32, 4.88 17.5 C9.67 13.69, 18.78 9.24, 28.27 6.42 C37.77 3.59, 49.24 1.53, 61.85 0.55 C74.47 -0.44, 96.3 0.17, 103.95 0.49 C111.6 0.8, 108.01 2.04, 107.73 2.44" stroke="none" stroke-width="0" fill="#be4bdb"></path><path d="M74.9 -0.17 C86.64 -0.83, 101.9 0.13, 112.99 1.85 C124.08 3.56, 133.87 6.75, 141.44 10.12 C149 13.48, 156.22 17.97, 158.39 22.03 C160.55 26.1, 158.21 30.89, 154.42 34.5 C150.63 38.1, 144.22 40.79, 135.65 43.65 C127.09 46.52, 114.71 50.55, 103.01 51.71 C91.32 52.88, 77.69 51.49, 65.49 50.66 C53.29 49.82, 39.59 49.23, 29.81 46.73 C20.02 44.23, 11.61 39.36, 6.78 35.65 C1.94 31.94, 0.09 28.37, 0.78 24.47 C1.47 20.57, 4.72 15.74, 10.93 12.25 C17.14 8.76, 24.74 5.4, 38.04 3.54 C51.34 1.68, 79.68 1.32, 90.74 1.11 C101.8 0.9, 104.57 2, 104.39 2.28" stroke="#000000" stroke-width="2.5" fill="none" stroke-dasharray="1.5 8"></path></g><g transform="translate(61.5 337) rotate(0 49.5 12.5)"><text x="0" y="18" font-family="Virgil, Segoe UI Emoji" font-size="20px" fill="#000000" text-anchor="start" style="white-space: pre;" direction="ltr">j.subscribe</text></g><g stroke-linecap="round"><g transform="translate(770 550) rotate(0 100.44791814919563 -0.09984762925290624)"><path d="M1.19 -0.49 C34.08 -0.61, 165.19 0.06, 198.23 0.22 M0.35 -1.8 C33.55 -1.81, 167.45 1, 200.55 1.6" stroke="#000000" stroke-width="1" fill="none"></path></g><g transform="translate(770 550) rotate(0 100.44791814919563 -0.09984762925290624)"><path d="M171.34 10.04 C182.16 8.16, 193.2 2.2, 201.22 -0.39 M171.37 12.05 C181.74 8.86, 191.44 4.25, 200.51 2.49" stroke="#000000" stroke-width="1" fill="none"></path></g><g transform="translate(770 550) rotate(0 100.44791814919563 -0.09984762925290624)"><path d="M171.73 -10.48 C182.56 -4.71, 193.45 -3.03, 201.22 -0.39 M171.77 -8.47 C181.86 -4.76, 191.42 -2.47, 200.51 2.49" stroke="#000000" stroke-width="1" fill="none"></path></g></g><g transform="translate(779 552) rotate(0 87.5 20)"><text x="87.5" y="14" font-family="Virgil, Segoe UI Emoji" font-size="16px" fill="#000000" text-anchor="middle" style="white-space: pre;" direction="ltr">(spec. lng</text><text x="87.5" y="34" font-family="Virgil, Segoe UI Emoji" font-size="16px" fill="#000000" text-anchor="middle" style="white-space: pre;" direction="ltr">returns the feed-urls)</text></g><g stroke-linecap="round"><g transform="translate(969 470) rotate(0 -99.5 0)"><path d="M0 0 C-72.47 0, -144.94 0, -199 0 M0 0 C-61.01 0, -122.02 0, -199 0" stroke="#000000" stroke-width="2" fill="none"></path></g><g transform="translate(969 470) rotate(0 -99.5 0)"><path d="M-170.81 -10.26 C-181.08 -6.52, -191.34 -2.79, -199 0 M-170.81 -10.26 C-179.45 -7.11, -188.09 -3.97, -199 0" stroke="#000000" stroke-width="2" fill="none"></path></g><g transform="translate(969 470) rotate(0 -99.5 0)"><path d="M-170.81 10.26 C-181.08 6.52, -191.34 2.79, -199 0 M-170.81 10.26 C-179.45 7.11, -188.09 3.97, -199 0" stroke="#000000" stroke-width="2" fill="none"></path></g></g><g transform="translate(814 447) rotate(0 62 25)"><text x="0" y="18" font-family="Virgil, Segoe UI Emoji" font-size="20px" fill="#000000" text-anchor="start" style="white-space: pre;" direction="ltr">Notifications</text><text x="0" y="43" font-family="Virgil, Segoe UI Emoji" font-size="20px" fill="#000000" text-anchor="start" style="white-space: pre;" direction="ltr">- Native</text></g><g stroke-linecap="round" transform="translate(1250 290) rotate(0 102 279)"><path d="M0 0 C61.52 0, 123.05 0, 204 0 M0 0 C61.21 0, 122.43 0, 204 0 M204 0 C204 202.61, 204 405.22, 204 558 M204 0 C204 177.51, 204 355.01, 204 558 M204 558 C142.7 558, 81.4 558, 0 558 M204 558 C153.48 558, 102.95 558, 0 558 M0 558 C0 418.17, 0 278.34, 0 0 M0 558 C0 339.49, 0 120.98, 0 0" stroke="#000000" stroke-width="2" fill="none"></path></g><g transform="translate(1277 290) rotate(0 75.5 12.5)"><text x="75.5" y="18" font-family="Virgil, Segoe UI Emoji" font-size="20px" fill="#000000" text-anchor="middle" style="white-space: pre;" direction="ltr">Store-interface</text></g><g transform="translate(410 290) rotate(0 63.5 12.5)"><text x="63.5" y="18" font-family="Virgil, Segoe UI Emoji" font-size="20px" fill="#000000" text-anchor="middle" style="white-space: pre;" direction="ltr">FactManager</text></g><g transform="translate(810 788) rotate(0 56 12.5)"><text x="0" y="18" font-family="Virgil, Segoe UI Emoji" font-size="20px" fill="#000000" text-anchor="start" style="white-space: pre;" direction="ltr">Save facts</text></g><g stroke-linecap="round" transform="translate(970 10) rotate(0 260 430)"><path d="M0 0 C200.11 0, 400.21 0, 520 0 M0 0 C169.88 0, 339.76 0, 520 0 M520 0 C520 217.14, 520 434.28, 520 860 M520 0 C520 289.23, 520 578.45, 520 860 M520 860 C378.52 860, 237.04 860, 0 860 M520 860 C326.47 860, 132.95 860, 0 860 M0 860 C0 633.47, 0 406.94, 0 0 M0 860 C0 517.33, 0 174.66, 0 0" stroke="#495057" stroke-width="4" fill="none"></path></g><g transform="translate(1070 10) rotate(0 162.5 12.5)"><text x="0" y="18" font-family="Virgil, Segoe UI Emoji" font-size="20px" fill="#000000" text-anchor="start" style="white-space: pre;" direction="ltr">Jinaga.JS - server (up &amp; running)</text></g><g transform="translate(1070 50) rotate(0 167.5 12.5)"><text x="0" y="18" font-family="Virgil, Segoe UI Emoji" font-size="20px" fill="#000000" text-anchor="start" style="white-space: pre;" direction="ltr">Jinaga.NET - server (coming soon)</text></g><g transform="translate(550 797) rotate(0 29.5 12.5)"><text x="0" y="18" font-family="Virgil, Segoe UI Emoji" font-size="20px" fill="#000000" text-anchor="start" style="white-space: pre;" direction="ltr">Queue</text></g><g stroke-linecap="round" transform="translate(490 790) rotate(0 90 20)"><path d="M0 0 C63.06 0, 126.12 0, 180 0 M0 0 C53.51 0, 107.02 0, 180 0 M180 0 C180 11.6, 180 23.2, 180 40 M180 0 C180 13.67, 180 27.34, 180 40 M180 40 C114.79 40, 49.58 40, 0 40 M180 40 C143.76 40, 107.52 40, 0 40 M0 40 C0 31, 0 22, 0 0 M0 40 C0 25.6, 0 11.2, 0 0" stroke="#000000" stroke-width="2" fill="none"></path></g><g stroke-linecap="round" transform="translate(210 290) rotate(0 260 280)"><path d="M0.49 -0.18 C131.24 1.74, 263.49 0.61, 519.33 0.05 M-0.36 0.36 C109.35 -1, 219.45 -1.4, 519.64 -0.36 M519.35 -0.55 C520.44 135.78, 520.11 273.1, 519.21 560.53 M520.17 -0.29 C520.91 116.34, 521.46 231.93, 520.34 559.73 M519.34 559.3 C317.07 560.47, 112.5 561.42, -0.48 560.11 M520.38 559.66 C404.66 562.02, 289.7 562, 0.2 559.78 M0.41 560.5 C1.22 435.2, 1.91 309.39, 0.63 -0.68 M0.2 559.73 C-1.54 410.52, -1.88 261.25, 0.08 -0.22" stroke="#000000" stroke-width="1" fill="none"></path></g><g transform="translate(470.5 467.5) rotate(270 39 12.5)"><text x="39" y="18" font-family="Virgil, Segoe UI Emoji" font-size="20px" fill="#000000" text-anchor="middle" style="white-space: pre;" direction="ltr">QueryAll</text></g><g stroke-linecap="round" transform="translate(490 430) rotate(0 20 50)"><path d="M0 0 C13.71 0, 27.43 0, 40 0 M0 0 C13.86 0, 27.71 0, 40 0 M40 0 C40 38.67, 40 77.34, 40 100 M40 0 C40 22.75, 40 45.5, 40 100 M40 100 C31.15 100, 22.3 100, 0 100 M40 100 C27.81 100, 15.63 100, 0 100 M0 100 C0 73.08, 0 46.17, 0 0 M0 100 C0 60.45, 0 20.9, 0 0" stroke="#000000" stroke-width="2" fill="none"></path></g><g transform="translate(819.5 330) rotate(0 53.5 37.5)"><text x="53.5" y="18" font-family="Virgil, Segoe UI Emoji" font-size="20px" fill="#000000" text-anchor="middle" style="white-space: pre;" direction="ltr">Subscribing</text><text x="53.5" y="43" font-family="Virgil, Segoe UI Emoji" font-size="20px" fill="#000000" text-anchor="middle" style="white-space: pre;" direction="ltr">[feed-urls]</text><text x="53.5" y="68" font-family="Virgil, Segoe UI Emoji" font-size="20px" fill="#000000" text-anchor="middle" style="white-space: pre;" direction="ltr"></text></g><g stroke-linecap="round"><g transform="translate(580 751) rotate(0 0 19)"><path d="M0 0 C0 12.02, 0 24.04, 0 38" stroke="#000000" stroke-width="2.5" fill="none" stroke-dasharray="1.5 8"></path></g><g transform="translate(580 751) rotate(0 0 19)"><path d="M-6.5 20.15 C-4.44 25.79, -2.39 31.44, 0 38" stroke="#000000" stroke-width="2.5" fill="none" stroke-dasharray="1.5 6"></path></g><g transform="translate(580 751) rotate(0 0 19)"><path d="M6.5 20.15 C4.44 25.79, 2.39 31.44, 0 38" stroke="#000000" stroke-width="2.5" fill="none" stroke-dasharray="1.5 6"></path></g></g><g stroke-linecap="round" transform="translate(1050 380) rotate(0 50 30)"><path d="M1.44 -1.79 L99.31 -0.21 L99.06 59.55 L-1.49 60.99" stroke="none" stroke-width="0" fill="#ffffff"></path><path d="M0.97 0.08 C25.08 1.75, 46 -1.44, 98.94 0.41 M0.29 0.47 C36.95 0.43, 73.5 -0.14, 100.53 -0.43 M99.69 -1.87 C99.26 22.83, 98.17 49.22, 98.87 60.16 M100.35 -0.02 C100.24 16.69, 100.22 33.43, 100.73 59.37 M100.78 61.99 C64.64 59.4, 24.77 59.82, 0.36 59.38 M99.7 59.07 C75.43 60.3, 51.64 60.12, -0.36 60.7 M0.81 58.29 C1.98 36.93, 0.72 17.54, 1.34 1.4 M-0.98 59.07 C-0.82 38.77, -0.44 18.05, 0.69 -0.14" stroke="#000000" stroke-width="1" fill="none"></path></g><g transform="translate(1040 384) rotate(0 60.5 25)"><text x="60.5" y="18" font-family="Virgil, Segoe UI Emoji" font-size="20px" fill="#000000" text-anchor="middle" style="white-space: pre;" direction="ltr">Specification</text><text x="60.5" y="43" font-family="Virgil, Segoe UI Emoji" font-size="20px" fill="#000000" text-anchor="middle" style="white-space: pre;" direction="ltr">Inverter</text></g><g stroke-linecap="round"><g transform="translate(769.7524353596159 809.8807096190906) rotate(0 99.62378232019205 0.059347333197024454)"><path d="M0 0 C54.87 0.03, 109.74 0.07, 199.25 0.12 M0 0 C52.71 0.03, 105.43 0.06, 199.25 0.12" stroke="#000000" stroke-width="2" fill="none"></path></g><g transform="translate(769.7524353596159 809.8807096190906) rotate(0 99.62378232019205 0.059347333197024454)"><path d="M171.05 10.36 C178.82 7.54, 186.58 4.72, 199.25 0.12 M171.05 10.36 C178.51 7.65, 185.97 4.94, 199.25 0.12" stroke="#000000" stroke-width="2" fill="none"></path></g><g transform="translate(769.7524353596159 809.8807096190906) rotate(0 99.62378232019205 0.059347333197024454)"><path d="M171.06 -10.16 C178.82 -7.33, 186.59 -4.5, 199.25 0.12 M171.06 -10.16 C178.52 -7.44, 185.98 -4.72, 199.25 0.12" stroke="#000000" stroke-width="2" fill="none"></path></g></g><g stroke-linecap="round" transform="translate(30 684) rotate(0 79.5 26)"><path d="M95.68 0.3 C107.49 0.64, 120.18 3.19, 129.5 5.75 C138.83 8.31, 146.72 11.94, 151.61 15.67 C156.5 19.39, 159.67 23.93, 158.86 28.08 C158.05 32.24, 153.38 37.08, 146.76 40.6 C140.14 44.11, 129.63 47.29, 119.17 49.19 C108.7 51.08, 96.33 51.86, 83.99 51.98 C71.66 52.09, 56.32 51.55, 45.14 49.87 C33.96 48.18, 24.2 44.99, 16.91 41.86 C9.62 38.73, 3.67 35.13, 1.39 31.09 C-0.88 27.04, -0.55 21.46, 3.28 17.58 C7.11 13.71, 15.57 10.55, 24.37 7.82 C33.17 5.09, 43.49 2.48, 56.08 1.21 C68.67 -0.06, 91.57 -0.11, 99.9 0.2 C108.24 0.51, 106.2 2.61, 106.11 3.05 M43.4 2.87 C53.33 0.91, 68.62 -0.24, 80.99 -0.19 C93.35 -0.14, 107.07 1.41, 117.61 3.16 C128.14 4.92, 137.49 6.94, 144.18 10.34 C150.86 13.75, 156.31 19.57, 157.71 23.59 C159.11 27.6, 156.62 30.72, 152.56 34.42 C148.5 38.11, 142.37 43.06, 133.36 45.74 C124.34 48.43, 110.68 49.68, 98.49 50.54 C86.3 51.4, 72.19 51.77, 60.22 50.9 C48.24 50.03, 35.69 47.93, 26.64 45.34 C17.59 42.75, 10.31 38.89, 5.92 35.34 C1.52 31.79, -1.09 28.22, 0.25 24.03 C1.6 19.84, 6.85 13.93, 13.99 10.19 C21.14 6.45, 38.28 2.73, 43.11 1.59 C47.93 0.45, 42.57 2.84, 42.93 3.36" stroke="none" stroke-width="0" fill="#12b886"></path><path d="M110.47 1.42 C121.6 2.6, 133.23 6.31, 141.13 9.74 C149.02 13.17, 155.36 18.02, 157.84 22 C160.33 25.99, 159.73 29.92, 156.05 33.64 C152.37 37.37, 144.3 41.48, 135.75 44.34 C127.19 47.21, 116.36 49.45, 104.72 50.82 C93.08 52.19, 78.18 53.32, 65.88 52.57 C53.59 51.81, 40.8 48.86, 30.93 46.32 C21.06 43.77, 11.73 40.84, 6.66 37.29 C1.59 33.75, -0.31 29.24, 0.53 25.06 C1.37 20.87, 5.45 15.73, 11.71 12.19 C17.97 8.64, 27.85 5.81, 38.09 3.78 C48.33 1.74, 60 0.16, 73.16 -0.02 C86.32 -0.2, 108.82 1.93, 117.05 2.69 C125.29 3.44, 123.14 3.91, 122.56 4.51 M49.2 1.8 C59.57 0.13, 73.38 0.67, 85.24 1.07 C97.11 1.47, 109.79 2.42, 120.4 4.18 C131.01 5.94, 142.32 8.13, 148.93 11.65 C155.53 15.17, 159.35 21.28, 160.02 25.3 C160.68 29.31, 158.13 32.04, 152.92 35.75 C147.71 39.46, 138.94 44.87, 128.76 47.56 C118.58 50.25, 104.19 51.24, 91.85 51.89 C79.51 52.54, 66.2 52.63, 54.72 51.49 C43.24 50.34, 31.67 48.02, 22.98 45.02 C14.29 42.02, 5.94 37.34, 2.59 33.5 C-0.76 29.66, 0.35 25.81, 2.88 21.97 C5.41 18.13, 10.19 13.9, 17.79 10.47 C25.39 7.03, 43.18 2.79, 48.49 1.35 C53.79 -0.09, 48.94 1.32, 49.59 1.82" stroke="#000000" stroke-width="1" fill="none"></path></g><g transform="translate(79 697) rotate(0 28 12.5)"><text x="0" y="18" font-family="Virgil, Segoe UI Emoji" font-size="20px" fill="#000000" text-anchor="start" style="white-space: pre;" direction="ltr">j.fact</text></g><g stroke-linecap="round"><g transform="translate(168.11677574441268 609.7510024553901) rotate(0 161.10106198450106 0.02019426736001151)"><path d="M0.25 -0.92 C96.99 -1.26, 196.11 -0.22, 321.98 1.03 M0.22 -0.2 C75.96 0.86, 153.98 1.7, 321.23 -0.05" stroke="#364fc7" stroke-width="1" fill="none"></path></g><g transform="translate(168.11677574441268 609.7510024553901) rotate(0 161.10106198450106 0.02019426736001151)"><path d="M293.47 9.1 C300.71 7.11, 311.42 5.25, 322.8 0.88 M293.42 10.14 C298.87 7.16, 307.55 5.74, 321.72 -0.66" stroke="#364fc7" stroke-width="1" fill="none"></path></g><g transform="translate(168.11677574441268 609.7510024553901) rotate(0 161.10106198450106 0.02019426736001151)"><path d="M293.32 -11.42 C300.73 -7.17, 311.49 -2.79, 322.8 0.88 M293.28 -10.38 C298.67 -8.46, 307.39 -4.97, 321.72 -0.66" stroke="#364fc7" stroke-width="1" fill="none"></path></g></g><g stroke-linecap="round"><g transform="translate(489 573.960145760906) rotate(0 -161.75964232940936 -2.0319451766906695)"><path d="M0.42 0.87 C-116.19 -1.85, -232.92 -4.13, -322.44 -4.25 M0.1 0.08 C-79.99 -2.08, -161.46 -2.21, -323.94 -4.93" stroke="#364fc7" stroke-width="4" fill="none"></path></g><g transform="translate(489 573.960145760906) rotate(0 -161.75964232940936 -2.0319451766906695)"><path d="M-294.99 -13.52 C-306.21 -10.06, -317.49 -7.41, -322.28 -4.32 M-295.46 -14.66 C-302.05 -13.12, -310.62 -9.18, -324.45 -5.29" stroke="#364fc7" stroke-width="4" fill="none"></path></g><g transform="translate(489 573.960145760906) rotate(0 -161.75964232940936 -2.0319451766906695)"><path d="M-295.3 7 C-306.26 3.1, -317.43 -1.59, -322.28 -4.32 M-295.76 5.86 C-302.25 2.3, -310.73 1.14, -324.45 -5.29" stroke="#364fc7" stroke-width="4" fill="none"></path></g></g><g stroke-linecap="round"><g transform="translate(144.75522892790167 491.0565851769421) rotate(0 172.77913931845674 -0.7385531244320305)"><path d="M1.19 -0.67 C101.8 -1.66, 206.08 -2.06, 344.84 -1.48 M-0.15 0.27 C100.97 -2.27, 201.89 -2.12, 345.71 -0.5" stroke="#e67700" stroke-width="1" fill="none"></path></g><g transform="translate(144.75522892790167 491.0565851769421) rotate(0 172.77913931845674 -0.7385531244320305)"><path d="M319.24 8.49 C324.29 7.26, 334.85 4.15, 345.09 -1.13 M317.2 9.93 C326.06 5.63, 334.58 3.4, 346.41 0.35" stroke="#e67700" stroke-width="1" fill="none"></path></g><g transform="translate(144.75522892790167 491.0565851769421) rotate(0 172.77913931845674 -0.7385531244320305)"><path d="M319.42 -12.03 C324.24 -7.14, 334.74 -4.14, 345.09 -1.13 M317.38 -10.59 C326.08 -8.91, 334.54 -5.14, 346.41 0.35" stroke="#e67700" stroke-width="1" fill="none"></path></g></g><g stroke-linecap="round"><g transform="translate(490 450) rotate(0 -160.85973838712874 0.049748568549716765)"><path d="M-0.64 0.42 C-104.88 0.65, -206.92 -0.17, -320.4 -0.84 M-0.06 0.37 C-120.11 1.27, -241.14 1.18, -321.66 -0.46" stroke="#e67700" stroke-width="4" fill="none"></path></g><g transform="translate(490 450) rotate(0 -160.85973838712874 0.049748568549716765)"><path d="M-294.25 -9.75 C-304.21 -6.15, -310.95 -4.13, -320.75 -1.66 M-293.42 -9.82 C-303.77 -6.71, -315.5 -3.13, -322.56 -1.12" stroke="#e67700" stroke-width="4" fill="none"></path></g><g transform="translate(490 450) rotate(0 -160.85973838712874 0.049748568549716765)"><path d="M-294.52 10.76 C-304.25 7.74, -310.9 3.13, -320.75 -1.66 M-293.69 10.7 C-303.91 6.13, -315.54 2.02, -322.56 -1.12" stroke="#e67700" stroke-width="4" fill="none"></path></g></g><g stroke-linecap="round"><g transform="translate(190 350) rotate(0 289.7261865027249 0.3875939533222663)"><path d="M0 0.23 C118.36 0.94, 235.62 0.17, 579.45 0.46" stroke="#862e9c" stroke-width="4.5" fill="none" stroke-dasharray="1.5 10"></path></g><g transform="translate(190 350) rotate(0 289.7261865027249 0.3875939533222663)"><path d="M551.26 11.3 C557.76 10.2, 561.61 6.19, 578.08 1.63" stroke="#862e9c" stroke-width="4.5" fill="none" stroke-dasharray="1.5 8"></path></g><g transform="translate(190 350) rotate(0 289.7261865027249 0.3875939533222663)"><path d="M551.26 -9.22 C557.88 -6.15, 561.73 -5.98, 578.08 1.63" stroke="#862e9c" stroke-width="4.5" fill="none" stroke-dasharray="1.5 8"></path></g></g><g stroke-linecap="round" transform="translate(310 560) rotate(0 50 30)"><path d="M0.4 -0.04 L98.23 1.75 L101.81 58.98 L-1.65 60.98" stroke="none" stroke-width="0" fill="#ffffff"></path><path d="M-0.36 1.4 C21.91 2.74, 44.22 2.05, 101.26 0.36 M0.64 0.69 C24.19 0.44, 46.2 -0.45, 99.37 0.31 M101.93 0.29 C100.38 15.1, 99.03 31.47, 98.15 61.17 M100.62 -0.19 C100.37 12.96, 99.93 28.26, 100.31 59.49 M100.23 61.22 C70.26 58.32, 44.99 59.13, -0.73 60.61 M100.18 59.06 C64.74 59.75, 29.06 60.01, 0.89 60.62 M-1.93 58.35 C1.29 45.74, 0.43 26.93, -0.11 1.14 M-0.58 59.59 C0.96 45.16, 0.42 30.15, -0.22 -0.96" stroke="#000000" stroke-width="1" fill="none"></path></g><g transform="translate(301.5 565) rotate(0 58.5 25)"><text x="58.5" y="18" font-family="Virgil, Segoe UI Emoji" font-size="20px" fill="#000000" text-anchor="middle" style="white-space: pre;" direction="ltr">Specifcation</text><text x="58.5" y="43" font-family="Virgil, Segoe UI Emoji" font-size="20px" fill="#000000" text-anchor="middle" style="white-space: pre;" direction="ltr">Compiler</text></g><g stroke-linecap="round" transform="translate(354 439) rotate(0 50 30)"><path d="M0.49 0.53 L101.88 -1.68 L100.47 60.38 L0.45 61.88" stroke="none" stroke-width="0" fill="#ffffff"></path><path d="M1.45 0.46 C19.09 1.06, 41.32 0.81, 101.23 -1.25 M-0.18 0.8 C32.85 0.25, 66.32 0.49, 99.11 -0.99 M99.94 -1.13 C99.44 18.19, 98.26 35.78, 100.89 60.92 M100.88 -0.83 C100.26 15.72, 101.06 31.9, 100.4 59.85 M101.9 60.6 C66.38 60.54, 33.48 60.87, -0.45 60.82 M100.69 59.28 C68.96 60.12, 38.52 60.54, 0.78 59.59 M1.34 61.26 C1.58 46.28, 0 35.21, 0.55 0.58 M-0.18 59.17 C-0.6 45.81, 0.73 30.3, 0.04 -0.63" stroke="#000000" stroke-width="1" fill="none"></path></g><g transform="translate(344 443) rotate(0 60.5 25)"><text x="60.5" y="18" font-family="Virgil, Segoe UI Emoji" font-size="20px" fill="#000000" text-anchor="middle" style="white-space: pre;" direction="ltr">Specification</text><text x="60.5" y="43" font-family="Virgil, Segoe UI Emoji" font-size="20px" fill="#000000" text-anchor="middle" style="white-space: pre;" direction="ltr">Inverter</text></g><g stroke-linecap="round" transform="translate(234 439) rotate(0 50 30)"><path d="M-0.98 -1.83 L99.64 -0.09 L101.27 59.32 L1.67 59.06" stroke="none" stroke-width="0" fill="#ffffff"></path><path d="M-1.52 -0.11 C29.99 0.93, 60.58 1.17, 98.82 -0.91 M-0.82 -0.43 C33.83 -0.83, 69.51 -0.3, 100.45 -0.53 M98.56 -0.38 C97.99 22.83, 101.61 44.05, 100.15 59.6 M99.75 -0.69 C99.81 20.96, 99.79 39.5, 99.24 60.43 M98.62 60.38 C58.84 61.04, 20.67 59.91, 1.47 60.08 M99.56 60.72 C74.19 61.03, 45.9 60.78, -0.09 59.01 M-1.51 61.78 C-1.68 46.1, 1.73 36.24, -0.22 1.44 M0.18 59.74 C-0.6 38.09, 0.66 16.36, 0.79 0.4" stroke="#000000" stroke-width="1" fill="none"></path></g><g transform="translate(227.5 450) rotate(0 60.5 25)"><text x="60.5" y="18" font-family="Virgil, Segoe UI Emoji" font-size="20px" fill="#000000" text-anchor="middle" style="white-space: pre;" direction="ltr">Specification</text><text x="60.5" y="43" font-family="Virgil, Segoe UI Emoji" font-size="20px" fill="#000000" text-anchor="middle" style="white-space: pre;" direction="ltr">Compiler</text></g><g stroke-linecap="round"><g transform="translate(670 810) rotate(0 50 0)"><path d="M0 0 C20.88 0, 41.76 0, 100 0" stroke="#000000" stroke-width="2.5" fill="none" stroke-dasharray="1.5 8"></path></g><g transform="translate(670 810) rotate(0 50 0)"><path d="M71.81 10.26 C77.7 8.12, 83.58 5.98, 100 0" stroke="#000000" stroke-width="2.5" fill="none" stroke-dasharray="1.5 6"></path></g><g transform="translate(670 810) rotate(0 50 0)"><path d="M71.81 -10.26 C77.7 -8.12, 83.58 -5.98, 100 0" stroke="#000000" stroke-width="2.5" fill="none" stroke-dasharray="1.5 6"></path></g></g><g stroke-linecap="round"><g transform="translate(770 470) rotate(0 -50 0)"><path d="M0 0 C-23.15 0, -46.3 0, -100 0" stroke="#000000" stroke-width="2.5" fill="none" stroke-dasharray="1.5 8"></path></g><g transform="translate(770 470) rotate(0 -50 0)"><path d="M-71.81 -10.26 C-78.34 -7.89, -84.86 -5.51, -100 0" stroke="#000000" stroke-width="2.5" fill="none" stroke-dasharray="1.5 6"></path></g><g transform="translate(770 470) rotate(0 -50 0)"><path d="M-71.81 10.26 C-78.34 7.89, -84.86 5.51, -100 0" stroke="#000000" stroke-width="2.5" fill="none" stroke-dasharray="1.5 6"></path></g></g><g stroke-linecap="round"><g transform="translate(770 350) rotate(0 99.8626414991636 0.7251720981113863)"><path d="M0.26 0.52 C33.66 0.69, 167.32 0.19, 200.78 0.11 M-1.06 -0.25 C32.22 0.21, 166.6 1.44, 200.25 1.7" stroke="#000000" stroke-width="1" fill="none"></path></g><g transform="translate(770 350) rotate(0 99.8626414991636 0.7251720981113863)"><path d="M172.84 13.03 C181.61 10.08, 190.85 4.62, 200.14 2.83 M171.24 12.18 C178.32 9.8, 185.38 6.85, 200.49 2.55" stroke="#000000" stroke-width="1" fill="none"></path></g><g transform="translate(770 350) rotate(0 99.8626414991636 0.7251720981113863)"><path d="M173.01 -7.49 C181.58 -3.63, 190.76 -2.28, 200.14 2.83 M171.42 -8.34 C178.46 -5.57, 185.47 -3.37, 200.49 2.55" stroke="#000000" stroke-width="1" fill="none"></path></g></g><g transform="translate(1124.5 481.5) rotate(270 85 12.5)"><text x="85" y="18" font-family="Virgil, Segoe UI Emoji" font-size="20px" fill="#000000" text-anchor="middle" style="white-space: pre;" direction="ltr">Distribution rules</text></g><g transform="translate(1115.676007736122 731.523243377027) rotate(270.10729534183 94 12.5)"><text x="0" y="18" font-family="Virgil, Segoe UI Emoji" font-size="20px" fill="#000000" text-anchor="start" style="white-space: pre;" direction="ltr">Authorzation Rules</text></g><g stroke-linecap="round"><g transform="translate(1230 590) rotate(0 10 0)"><path d="M0 0 C6.37 0, 12.75 0, 20 0 M0 0 C4.08 0, 8.16 0, 20 0" stroke="#000000" stroke-width="2" fill="none"></path></g></g><g stroke-linecap="round"><g transform="translate(1230.0000000000005 809.9999999999998) rotate(0 9.499999999999773 1.1368683772161603e-13)"><path d="M0 0 C4.91 0, 9.82 0, 19 0 M0 0 C6.46 0, 12.93 0, 19 0" stroke="#000000" stroke-width="2" fill="none"></path></g></g><g stroke-linecap="round"><g transform="translate(1030 429.8252804837525) rotate(0 -30.19910509970589 19.774640762049728)"><path d="M0 0 C-6.25 -0.14, -12.5 -0.28, -19.96 -0.44 M-19.96 -0.44 C-19.82 12.91, -19.68 26.26, -19.53 39.99 M-19.53 39.99 C-34.2 39.84, -48.88 39.68, -60.4 39.56" stroke="#000000" stroke-width="2.5" fill="none" stroke-dasharray="1.5 8"></path></g><g transform="translate(1030 429.8252804837525) rotate(0 -30.19910509970589 19.774640762049728)"><path d="M-41.12 32.77 C-47.15 34.9, -53.19 37.02, -60.4 39.56" stroke="#000000" stroke-width="2.5" fill="none" stroke-dasharray="1.5 6"></path></g><g transform="translate(1030 429.8252804837525) rotate(0 -30.19910509970589 19.774640762049728)"><path d="M-41.27 46.75 C-47.26 44.5, -53.24 42.25, -60.4 39.56" stroke="#000000" stroke-width="2.5" fill="none" stroke-dasharray="1.5 6"></path></g></g><g stroke-linecap="round"><g transform="translate(969 549.9999570457205) rotate(0 110.19982172056586 -0.8422388193656047)"><path d="M-0.42 -1.66 C59.47 -0.49, 119.12 -1.97, 220.4 -1.71 M0.77 0.06 C47.58 -0.14, 95.7 -0.51, 220.82 -0.24" stroke="#000000" stroke-width="1" fill="none"></path></g><g transform="translate(969 549.9999570457205) rotate(0 110.19982172056586 -0.8422388193656047)"><path d="M27.29 -13.83 C20.09 -7.53, 12.68 -6.46, 0.04 -3.64 M28.67 -11.84 C21.45 -10.12, 15.83 -8.33, 0.53 -1.94" stroke="#000000" stroke-width="1" fill="none"></path></g><g transform="translate(969 549.9999570457205) rotate(0 110.19982172056586 -0.8422388193656047)"><path d="M27.28 6.69 C20.22 7.45, 12.81 2.97, 0.04 -3.64 M28.66 8.68 C21.6 5.96, 15.99 3.29, 0.53 -1.94" stroke="#000000" stroke-width="1" fill="none"></path></g><g transform="translate(969 549.9999570457205) rotate(0 110.19982172056586 -0.8422388193656047)"><path d="M192.13 8.07 C200.31 8.34, 208.15 3.87, 221.28 -2.22 M193.51 10.06 C198.68 7.41, 205.29 4.75, 221.77 -0.52" stroke="#000000" stroke-width="1" fill="none"></path></g><g transform="translate(969 549.9999570457205) rotate(0 110.19982172056586 -0.8422388193656047)"><path d="M192.15 -12.45 C200.19 -6.63, 208.02 -5.55, 221.28 -2.22 M193.53 -10.46 C198.53 -8.67, 205.14 -6.87, 221.77 -0.52" stroke="#000000" stroke-width="1" fill="none"></path></g></g><g stroke-linecap="round"><g transform="translate(970 810) rotate(0 109.41905320606463 -0.09192754985451757)"><path d="M1.18 0.18 C60.37 0.39, 119.61 -1.45, 218.65 -0.19 M-0.34 0.32 C84.88 1.07, 170.96 -0.19, 219.18 -0.74" stroke="#000000" stroke-width="1" fill="none"></path></g><g transform="translate(970 810) rotate(0 109.41905320606463 -0.09192754985451757)"><path d="M192.48 10.06 C198.62 7.39, 204.72 2.35, 217.62 -0.95 M190.72 10.22 C201.19 6.72, 212.67 1.14, 218.24 -1.59" stroke="#000000" stroke-width="1" fill="none"></path></g><g transform="translate(970 810) rotate(0 109.41905320606463 -0.09192754985451757)"><path d="M192.24 -10.46 C198.25 -7.47, 204.41 -6.86, 217.62 -0.95 M190.48 -10.3 C201.06 -5.82, 212.63 -3.41, 218.24 -1.59" stroke="#000000" stroke-width="1" fill="none"></path></g></g><g stroke-linecap="round"><g transform="translate(970 350) rotate(0 30.41369047619071 19.967032967033106)"><path d="M0 0 C12.3 -0.01, 24.6 -0.02, 40.06 -0.03 M40.06 -0.03 C40.06 11.03, 40.06 22.09, 40.06 39.97 M40.06 39.97 C46.19 39.81, 52.33 39.65, 60.83 39.42" stroke="#000000" stroke-width="2.5" fill="none" stroke-dasharray="1.5 8"></path></g><g transform="translate(970 350) rotate(0 30.41369047619071 19.967032967033106)"><path d="M51.16 43.23 C54.13 42.06, 57.1 40.89, 60.83 39.42" stroke="#000000" stroke-width="2.5" fill="none" stroke-dasharray="1.5 6"></path></g><g transform="translate(970 350) rotate(0 30.41369047619071 19.967032967033106)"><path d="M50.98 36.13 C54 37.14, 57.03 38.15, 60.83 39.42" stroke="#000000" stroke-width="2.5" fill="none" stroke-dasharray="1.5 6"></path></g></g><g transform="translate(184.5 10) rotate(0 194 25)"><text x="194" y="18" font-family="Virgil, Segoe UI Emoji" font-size="20px" fill="#000000" text-anchor="middle" style="white-space: pre;" direction="ltr">Historical Modeling Mgmt Studio (HMMS)</text><text x="194" y="43" font-family="Virgil, Segoe UI Emoji" font-size="20px" fill="#000000" text-anchor="middle" style="white-space: pre;" direction="ltr">(under development)</text></g><g transform="translate(810 10) rotate(0 76 12.5)"><text x="0" y="18" font-family="Virgil, Segoe UI Emoji" font-size="20px" fill="#000000" text-anchor="start" style="white-space: pre;" direction="ltr">read (spec. lng)</text></g><g transform="translate(810 50) rotate(0 77.5 12.5)"><text x="0" y="18" font-family="Virgil, Segoe UI Emoji" font-size="20px" fill="#000000" text-anchor="start" style="white-space: pre;" direction="ltr">write (spec. lng)</text></g><g stroke-linecap="round"><g transform="translate(970 630) rotate(0 -0.43510546299626185 -0.45488924562687316)"><path d="M-1.03 0.2 C-1.01 -0.13, -0.66 -1.26, -0.7 -1.1 M0.63 -0.74 C0.59 -1.04, -1.02 -0.16, -1.5 -0.13" stroke="#000000" stroke-width="1" fill="none"></path></g><g transform="translate(970 630) rotate(0 -0.43510546299626185 -0.45488924562687316)"><path d="M-1.09 -0.42 C-1.23 -0.38, -1.23 -0.27, -1.48 -0.1 M-1.1 -0.43 C-1.24 -0.29, -1.43 -0.22, -1.49 -0.15" stroke="#000000" stroke-width="1" fill="none"></path></g><g transform="translate(970 630) rotate(0 -0.43510546299626185 -0.45488924562687316)"><path d="M-0.99 -0.09 C-1.16 -0.13, -1.18 -0.1, -1.48 -0.1 M-1 -0.1 C-1.18 -0.09, -1.41 -0.15, -1.49 -0.15" stroke="#000000" stroke-width="1" fill="none"></path></g></g><g transform="translate(830 607) rotate(0 23 12.5)"><text x="0" y="18" font-family="Virgil, Segoe UI Emoji" font-size="20px" fill="#000000" text-anchor="start" style="white-space: pre;" direction="ltr">Feed</text></g><g stroke-linecap="round"><g transform="translate(770 730) rotate(0 100.16659181448176 -0.11352562640797714)"><path d="M-0.68 -0.13 C32.64 -0.16, 165.28 -0.24, 198.89 -0.34 M1.16 -1.24 C34.93 -1.09, 167.76 0.78, 201.01 1.02" stroke="#000000" stroke-width="1" fill="none"></path></g><g transform="translate(770 730) rotate(0 100.16659181448176 -0.11352562640797714)"><path d="M27.28 -12.27 C20.94 -6.8, 14.31 -7.5, -2.15 -0.42 M26.69 -9.55 C19.4 -6.87, 11.61 -4.54, -1.67 -0.1" stroke="#000000" stroke-width="1" fill="none"></path></g><g transform="translate(770 730) rotate(0 100.16659181448176 -0.11352562640797714)"><path d="M27.3 8.25 C20.98 9.37, 14.34 4.32, -2.15 -0.42 M26.71 10.97 C19.38 8.15, 11.58 4.99, -1.67 -0.1" stroke="#000000" stroke-width="1" fill="none"></path></g><g transform="translate(770 730) rotate(0 100.16659181448176 -0.11352562640797714)"><path d="M172.5 9.11 C178.16 10.62, 183.5 5.62, 199.55 0.73 M171.9 11.83 C179.71 8.8, 187.04 5.71, 200.02 1.05" stroke="#000000" stroke-width="1" fill="none"></path></g><g transform="translate(770 730) rotate(0 100.16659181448176 -0.11352562640797714)"><path d="M172.72 -11.41 C178.31 -5.56, 183.6 -6.2, 199.55 0.73 M172.12 -8.69 C179.9 -6.22, 187.18 -3.81, 200.02 1.05" stroke="#000000" stroke-width="1" fill="none"></path></g></g><g transform="translate(830 710) rotate(0 24.5 12.5)"><text x="0" y="18" font-family="Virgil, Segoe UI Emoji" font-size="20px" fill="#000000" text-anchor="start" style="white-space: pre;" direction="ltr">Load</text></g><g transform="translate(227 548.5) rotate(0 43.5 12.5)"><text x="0" y="18" font-family="Virgil, Segoe UI Emoji" font-size="20px" fill="#000000" text-anchor="start" style="white-space: pre;" direction="ltr">Time-out</text></g><g stroke-linecap="round" transform="translate(10 10) rotate(0 380 30)"><path d="M0 0 C156.88 0, 313.76 0, 760 0 M0 0 C241.98 0, 483.95 0, 760 0 M760 0 C760 13.36, 760 26.72, 760 60 M760 0 C760 18.46, 760 36.92, 760 60 M760 60 C510.67 60, 261.33 60, 0 60 M760 60 C567.17 60, 374.33 60, 0 60 M0 60 C0 40.8, 0 21.61, 0 0 M0 60 C0 36.29, 0 12.57, 0 0" stroke="#495057" stroke-width="4" fill="none"></path></g><g stroke-linecap="round"><g transform="translate(770.9211216049641 51.79214969379029) rotate(0 99.15882820606237 -1.0014442660899476)"><path d="M0.35 -0.48 C33.37 -0.71, 166.2 -1.12, 199.24 -1.15 M-0.92 -1.78 C31.86 -1.93, 165.33 -0.56, 198.42 -0.21" stroke="#000000" stroke-width="1" fill="none"></path></g><g transform="translate(770.9211216049641 51.79214969379029) rotate(0 99.15882820606237 -1.0014442660899476)"><path d="M27.7 -10.45 C15.54 -7.42, 5.32 -2.98, -0.99 1.32 M28.99 -10.18 C22.19 -8.15, 15.81 -5.1, 0.71 -1.08" stroke="#000000" stroke-width="1" fill="none"></path></g><g transform="translate(770.9211216049641 51.79214969379029) rotate(0 99.15882820606237 -1.0014442660899476)"><path d="M27.78 10.07 C15.55 5.03, 5.29 1.4, -0.99 1.32 M29.06 10.34 C22.3 7.43, 15.9 5.53, 0.71 -1.08" stroke="#000000" stroke-width="1" fill="none"></path></g><g transform="translate(770.9211216049641 51.79214969379029) rotate(0 99.15882820606237 -1.0014442660899476)"><path d="M169.32 10.16 C179.32 5.03, 191.29 1.47, 197.07 1.59 M170.6 10.43 C177.46 7.22, 184.68 5.37, 198.77 -0.81" stroke="#000000" stroke-width="1" fill="none"></path></g><g transform="translate(770.9211216049641 51.79214969379029) rotate(0 99.15882820606237 -1.0014442660899476)"><path d="M169.53 -10.36 C179.49 -7.42, 191.37 -2.91, 197.07 1.59 M170.81 -10.09 C177.56 -8.35, 184.73 -5.26, 198.77 -0.81" stroke="#000000" stroke-width="1" fill="none"></path></g></g><g stroke-linecap="round"><g transform="translate(771.0950022532791 31.14740070394663) rotate(0 98.73323015108701 -0.1186822350337593)"><path d="M0.24 -1.15 C33.27 -1.17, 165.47 -0.7, 198.56 -0.64 M-1.1 0.87 C31.71 1.03, 164.22 0.69, 197.38 0.56" stroke="#000000" stroke-width="1" fill="none"></path></g><g transform="translate(771.0950022532791 31.14740070394663) rotate(0 98.73323015108701 -0.1186822350337593)"><path d="M26.54 -12.07 C18.05 -8.29, 8.48 -2.76, -0.94 -1.7 M28.95 -11.3 C19.24 -6.9, 8.54 -4.41, 0.05 -1.54" stroke="#000000" stroke-width="1" fill="none"></path></g><g transform="translate(771.0950022532791 31.14740070394663) rotate(0 98.73323015108701 -0.1186822350337593)"><path d="M26.49 8.45 C18.1 5.47, 8.54 4.24, -0.94 -1.7 M28.9 9.22 C19.11 6.23, 8.43 1.34, 0.05 -1.54" stroke="#000000" stroke-width="1" fill="none"></path></g><g transform="translate(771.0950022532791 31.14740070394663) rotate(0 98.73323015108701 -0.1186822350337593)"><path d="M167.31 10.17 C177.47 7.07, 186.47 5.84, 196.2 0 M169.72 10.94 C180.21 7.57, 189.81 2.67, 197.2 0.17" stroke="#000000" stroke-width="1" fill="none"></path></g><g transform="translate(771.0950022532791 31.14740070394663) rotate(0 98.73323015108701 -0.1186822350337593)"><path d="M167.25 -10.35 C177.35 -6.69, 186.37 -1.16, 196.2 0 M169.66 -9.58 C180.27 -5.56, 189.89 -3.07, 197.2 0.17" stroke="#000000" stroke-width="1" fill="none"></path></g></g><g transform="translate(790 732) rotate(0 78.5 10)"><text x="0" y="14" font-family="Virgil, Segoe UI Emoji" font-size="16px" fill="#000000" text-anchor="start" style="white-space: pre;" direction="ltr">(subgraph of facts)</text></g><g transform="translate(770 630) rotate(0 100.5 30)"><text x="0" y="14" font-family="Virgil, Segoe UI Emoji" font-size="16px" fill="#000000" text-anchor="start" style="white-space: pre;" direction="ltr">(- GET with bookmark</text><text x="0" y="34" font-family="Virgil, Segoe UI Emoji" font-size="16px" fill="#000000" text-anchor="start" style="white-space: pre;" direction="ltr">- returns FactReferences</text><text x="0" y="54" font-family="Virgil, Segoe UI Emoji" font-size="16px" fill="#000000" text-anchor="start" style="white-space: pre;" direction="ltr">      = hash + type )</text></g><g stroke-linecap="round"><g transform="translate(771.2908914340101 632.5032247831487) rotate(0 99.99018593191181 -1.2761393283215057)"><path d="M0.11 -0.05 C33.6 -0.22, 167.79 -0.42, 201.27 -0.87 M-1.29 -1.12 C32.1 -1.63, 167.17 -2.36, 200.81 -2.5" stroke="#000000" stroke-width="1" fill="none"></path></g><g transform="translate(771.2908914340101 632.5032247831487) rotate(0 99.99018593191181 -1.2761393283215057)"><path d="M28.19 -8.87 C20.67 -5.96, 8.35 -1.67, 0.94 1.84 M28.27 -10.33 C17.54 -5.44, 5.81 -2.65, 0.74 -1.01" stroke="#000000" stroke-width="1" fill="none"></path></g><g transform="translate(771.2908914340101 632.5032247831487) rotate(0 99.99018593191181 -1.2761393283215057)"><path d="M28.25 11.66 C20.69 7.88, 8.34 5.5, 0.94 1.84 M28.34 10.19 C17.76 6.94, 6 1.6, 0.74 -1.01" stroke="#000000" stroke-width="1" fill="none"></path></g><g transform="translate(771.2908914340101 632.5032247831487) rotate(0 99.99018593191181 -1.2761393283215057)"><path d="M172.59 9.43 C183.36 5.53, 189.35 3.08, 201.64 -0.62 M172.67 7.97 C184.45 4.4, 195.04 -1.04, 201.44 -3.46" stroke="#000000" stroke-width="1" fill="none"></path></g><g transform="translate(771.2908914340101 632.5032247831487) rotate(0 99.99018593191181 -1.2761393283215057)"><path d="M172.48 -11.09 C183.32 -8.31, 189.34 -4.09, 201.64 -0.62 M172.57 -12.55 C184.21 -7.98, 194.84 -5.28, 201.44 -3.46" stroke="#000000" stroke-width="1" fill="none"></path></g></g><g stroke-linecap="round"><g transform="translate(671.0000000000002 550.1630430058456) rotate(0 49.499999999999886 -0.08152150292278293)"><path d="M0 0 C30.36 -0.05, 60.72 -0.1, 99 -0.16" stroke="#000000" stroke-width="2.5" fill="none" stroke-dasharray="1.5 8"></path></g><g transform="translate(671.0000000000002 550.1630430058456) rotate(0 49.499999999999886 -0.08152150292278293)"><path d="M28.17 -10.31 C19.53 -7.15, 10.89 -3.99, 0 0" stroke="#000000" stroke-width="2.5" fill="none" stroke-dasharray="1.5 6"></path></g><g transform="translate(671.0000000000002 550.1630430058456) rotate(0 49.499999999999886 -0.08152150292278293)"><path d="M28.21 10.21 C19.56 7.08, 10.91 3.95, 0 0" stroke="#000000" stroke-width="2.5" fill="none" stroke-dasharray="1.5 6"></path></g><g transform="translate(671.0000000000002 550.1630430058456) rotate(0 49.499999999999886 -0.08152150292278293)"><path d="M70.83 10.14 C79.47 6.98, 88.11 3.82, 99 -0.16" stroke="#000000" stroke-width="2.5" fill="none" stroke-dasharray="1.5 6"></path></g><g transform="translate(671.0000000000002 550.1630430058456) rotate(0 49.499999999999886 -0.08152150292278293)"><path d="M70.79 -10.38 C79.44 -7.25, 88.09 -4.11, 99 -0.16" stroke="#000000" stroke-width="2.5" fill="none" stroke-dasharray="1.5 6"></path></g></g><g stroke-linecap="round"><g transform="translate(670 630) rotate(0 50 0)"><path d="M0 0 C29.65 0, 59.31 0, 100 0" stroke="#000000" stroke-width="2.5" fill="none" stroke-dasharray="1.5 8"></path></g><g transform="translate(670 630) rotate(0 50 0)"><path d="M28.19 -10.26 C19.83 -7.22, 11.47 -4.18, 0 0" stroke="#000000" stroke-width="2.5" fill="none" stroke-dasharray="1.5 6"></path></g><g transform="translate(670 630) rotate(0 50 0)"><path d="M28.19 10.26 C19.83 7.22, 11.47 4.18, 0 0" stroke="#000000" stroke-width="2.5" fill="none" stroke-dasharray="1.5 6"></path></g><g transform="translate(670 630) rotate(0 50 0)"><path d="M71.81 10.26 C80.17 7.22, 88.53 4.18, 100 0" stroke="#000000" stroke-width="2.5" fill="none" stroke-dasharray="1.5 6"></path></g><g transform="translate(670 630) rotate(0 50 0)"><path d="M71.81 -10.26 C80.17 -7.22, 88.53 -4.18, 100 0" stroke="#000000" stroke-width="2.5" fill="none" stroke-dasharray="1.5 6"></path></g></g><g stroke-linecap="round"><g transform="translate(670 730) rotate(0 50 0)"><path d="M0 0 C39.26 0, 78.53 0, 100 0" stroke="#000000" stroke-width="2.5" fill="none" stroke-dasharray="1.5 8"></path></g><g transform="translate(670 730) rotate(0 50 0)"><path d="M28.19 -10.26 C17.12 -6.23, 6.05 -2.2, 0 0" stroke="#000000" stroke-width="2.5" fill="none" stroke-dasharray="1.5 6"></path></g><g transform="translate(670 730) rotate(0 50 0)"><path d="M28.19 10.26 C17.12 6.23, 6.05 2.2, 0 0" stroke="#000000" stroke-width="2.5" fill="none" stroke-dasharray="1.5 6"></path></g><g transform="translate(670 730) rotate(0 50 0)"><path d="M71.81 10.26 C82.88 6.23, 93.95 2.2, 100 0" stroke="#000000" stroke-width="2.5" fill="none" stroke-dasharray="1.5 6"></path></g><g transform="translate(670 730) rotate(0 50 0)"><path d="M71.81 -10.26 C82.88 -6.23, 93.95 -2.2, 100 0" stroke="#000000" stroke-width="2.5" fill="none" stroke-dasharray="1.5 6"></path></g></g><g stroke-linecap="round"><g transform="translate(970 630) rotate(0 109.40501328083087 -30.548392967522886)"><path d="M-0.94 -0.81 C80.15 -18.7, 156.27 -41.12, 219.75 -59.94 M0.59 -0.58 C58.27 -17.61, 116.05 -33.65, 219.67 -60.51" stroke="#000000" stroke-width="1" fill="none"></path></g><g transform="translate(970 630) rotate(0 109.40501328083087 -30.548392967522886)"><path d="M22.68 -18.75 C16.3 -11, 4.75 -6.14, -1.23 -0.74 M24.47 -18.48 C17.03 -13.23, 10.25 -9.02, -1.32 -1.41" stroke="#000000" stroke-width="1" fill="none"></path></g><g transform="translate(970 630) rotate(0 109.40501328083087 -30.548392967522886)"><path d="M27.81 1.12 C19.78 1.73, 6.39 -0.49, -1.23 -0.74 M29.61 1.39 C20.95 1.45, 12.83 0.42, -1.32 -1.41" stroke="#000000" stroke-width="1" fill="none"></path></g><g transform="translate(970 630) rotate(0 109.40501328083087 -30.548392967522886)"><path d="M193.91 -44.38 C205.43 -48.29, 211.49 -55.58, 219.38 -60.44 M195.7 -44.11 C201.52 -48.28, 207.77 -53.05, 219.29 -61.11" stroke="#000000" stroke-width="1" fill="none"></path></g><g transform="translate(970 630) rotate(0 109.40501328083087 -30.548392967522886)"><path d="M188.7 -64.22 C201.91 -61.01, 209.83 -61.22, 219.38 -60.44 M190.49 -63.96 C197.54 -62.94, 205.16 -62.48, 219.29 -61.11" stroke="#000000" stroke-width="1" fill="none"></path></g></g><g stroke-linecap="round"><g transform="translate(970 730) rotate(0 109.51516023937415 -70.31782047017157)"><path d="M-1.24 -1.3 C75.5 -47.99, 155.13 -97.43, 220.27 -139.92 M0.15 -0.22 C79.45 -48.08, 157.32 -98.39, 219.44 -140.42" stroke="#000000" stroke-width="1" fill="none"></path></g><g transform="translate(970 730) rotate(0 109.51516023937415 -70.31782047017157)"><path d="M15.77 -26.5 C9.4 -16.3, 5.77 -8.31, -0.9 -1.2 M17.52 -25.14 C11.28 -15.78, 4.82 -8.45, -1.93 -1.82" stroke="#000000" stroke-width="1" fill="none"></path></g><g transform="translate(970 730) rotate(0 109.51516023937415 -70.31782047017157)"><path d="M26.58 -9.06 C16.32 -5.04, 8.88 -3.18, -0.9 -1.2 M28.32 -7.7 C18.43 -4.55, 8.15 -3.39, -1.93 -1.82" stroke="#000000" stroke-width="1" fill="none"></path></g><g transform="translate(970 730) rotate(0 109.51516023937415 -70.31782047017157)"><path d="M200.11 -117.89 C206.26 -124.28, 215.39 -133.06, 219.78 -140.31 M201.85 -116.53 C208.92 -123.89, 215.31 -133.43, 218.75 -140.94" stroke="#000000" stroke-width="1" fill="none"></path></g><g transform="translate(970 730) rotate(0 109.51516023937415 -70.31782047017157)"><path d="M188.74 -134.97 C198.98 -135.3, 212.11 -138.07, 219.78 -140.31 M190.48 -133.62 C201.41 -134.89, 211.82 -138.39, 218.75 -140.94" stroke="#000000" stroke-width="1" fill="none"></path></g></g><g transform="translate(831 525) rotate(0 28.5 12.5)"><text x="0" y="18" font-family="Virgil, Segoe UI Emoji" font-size="20px" fill="#000000" text-anchor="start" style="white-space: pre;" direction="ltr">Feeds</text></g></svg>